<?xml version="1.0" encoding="UTF-8"?>
<svg width="250px" height="250px" viewBox="0 0 130 250" version="1.1" xmlns="http://www.w3.org/2000/svg" xmlns:xlink="http://www.w3.org/1999/xlink">
    <!-- Generator: Sketch 52.6 (67491) - http://www.bohemiancoding.com/sketch -->
    <title>KBSwingSolidBlue250x</title>
    <desc>Created with Sketch.</desc>
    <g id="Page-1" stroke="none" stroke-width="1" fill="none" fill-rule="evenodd">
        <g id="KBSwingSolidBlue250x" transform="translate(-60.000000, 0.000000)">
            <path d="M73.7991204,247.992878 C70.4161103,246.924558 66.6769938,245.500133 65.6086748,244.965973 C62.8488507,243.452522 62.3146912,239.446325 63.9171697,233.748624 C65.2525684,229.119242 65.2525684,228.228976 63.5610633,218.792158 C61.2463722,205.70525 61.7805317,198.137991 65.7867279,188.25604 C67.478233,184.249843 68.9916849,178.552143 69.3477913,175.347185 C70.1490305,166.978687 68.4575254,147.748944 65.6977013,135.641329 C62.8488507,123.088581 63.1159304,120.417783 68.0123925,108.933354 C74.5113331,93.6207817 74.5113331,94.3329942 68.4575254,81.780246 C63.9171697,72.4324547 63.1159304,70.028737 62.8488507,64.9542218 C62.4037177,58.277228 63.4720368,55.4283773 67.9233659,51.2441279 C72.2856685,47.0598785 71.6624824,43.8549215 64.7184089,36.1096087 C62.5817709,33.7949176 60.6231861,30.8570403 60.3561063,29.6106682 C59.3768139,26.0496048 60.5341595,18.6603984 62.4037177,16.1676541 C65.9647811,11.3602186 68.546552,10.202873 75.5796521,10.202873 C81.5444332,10.202873 82.3456724,10.4699528 85.5506294,12.9626971 C90.6251447,17.0579199 93.7410751,23.3788073 93.8301017,29.432615 C93.8301017,35.4864227 91.6934637,43.2317354 89.5568257,44.389081 C88.3104535,45.1903203 88.2214269,45.2793468 89.4677991,45.3683734 C90.1800118,45.3683734 93.2069156,43.9439481 96.1447928,42.1634164 C106.026744,36.1986353 111.457365,33.7949176 121.161263,31.4802264 C128.01631,29.8777479 133.803038,27.6520833 141.281271,23.9129668 C147.424105,20.7970364 152.943753,18.6603984 154.635258,18.6603984 C156.504817,18.6603984 158.997561,17.5030528 161.757385,15.544468 C165.051368,13.0517237 165.941634,11.8943781 165.941634,9.84676667 C165.941634,6.90888943 169.858804,2.90269318 174.755266,0.944108342 C178.494383,-0.658370155 183.301818,0.766055178 186.862882,4.41614509 C189.177573,6.81986284 189.533679,7.88818184 189.533679,12.1614578 C189.533679,16.3457073 189.177573,17.3249997 187.129961,19.1055313 C185.794563,20.2628769 183.034738,21.4202225 180.8981,21.7763288 C176.446771,22.5775681 169.502698,26.3166846 169.502698,28.0081897 C169.502698,28.7204023 167.455086,29.7887213 164.873315,30.5899606 C159.086588,32.2814657 151.430301,36.8218214 143.684988,43.1427088 C140.391005,45.8135063 134.604277,49.4635963 130.687107,51.2441279 C126.858964,52.935633 122.496662,55.5174039 120.98321,56.9418292 C119.558784,58.3662546 116.353827,60.5028926 113.95011,61.7492648 L109.49878,64.0639559 L109.76586,68.8713914 C109.943913,72.165375 109.231701,76.0825447 107.629222,81.1570599 C105.314531,88.2791867 105.225504,89.0804258 105.759664,101.633174 C106.293823,113.384683 106.738956,115.699374 109.409754,123.533713 C113.772056,136.175488 114.662322,142.496376 113.95011,155.67231 C113.237897,169.115324 112.881791,172.142228 111.724445,176.237451 C110.30002,180.95586 110.478073,187.72188 112.703737,203.212506 L114.662322,217.189679 L118.757545,219.860477 C120.98321,221.284903 126.235778,224.044726 130.420027,226.003311 C135.761622,228.407029 138.254367,230.098534 138.610473,231.344906 C139.678792,235.707208 131.933479,237.042608 120.538077,234.549863 C117.33312,233.83765 112.169578,233.214464 108.964621,233.214464 C105.759664,233.214464 102.73276,232.858358 102.198601,232.502252 C100.507095,231.433932 100.061963,228.407029 100.863202,223.866673 C101.575414,219.949503 101.308335,218.792158 97.8362979,209.711447 C92.04957,195.02206 90.8922244,189.413385 91.8715168,182.113206 C92.3166498,178.730195 92.4056763,174.723999 92.04957,173.210547 L91.5154105,170.450723 L90.8031978,173.121521 C90.4470915,174.634973 88.3994801,179.442408 86.1738155,183.804711 C82.7908053,190.659758 82.0785927,193.241528 80.9212471,201.610028 C80.298061,207.040649 79.229742,213.27251 78.7846091,215.409148 C77.093104,222.709328 77.5382369,226.715523 80.4761142,230.9888 C83.6810712,235.618182 87.3311611,238.556059 93.2069156,241.048803 C96.5899258,242.562256 97.391165,243.363495 97.391165,245.144027 C97.391165,246.746505 96.8570055,247.547744 95.4325802,247.814824 C82.0785927,250.663675 81.9005395,250.663675 73.7991204,247.992878 Z" id="Shape" fill="#0126FF"></path>
            <rect id="Rectangle" x="0" y="0" width="250" height="250"></rect>
        </g>
    </g>
</svg>