<?xml version="1.0" encoding="UTF-8"?>
<svg width="250px" height="250px" viewBox="0 0 242 250" version="1.1" xmlns="http://www.w3.org/2000/svg" xmlns:xlink="http://www.w3.org/1999/xlink">
    <!-- Generator: Sketch 52.6 (67491) - http://www.bohemiancoding.com/sketch -->
    <title>needleBlue-1</title>
    <desc>Created with Sketch.</desc>
    <g id="Page-1" stroke="none" stroke-width="1" fill="none" fill-rule="evenodd">
        <g id="needleBlue-1" transform="translate(-4.000000, 0.000000)">
            <path d="M241.135457,178.125 C236.825113,178.125 232.514768,178.125 228.204423,178.571429 L228.204423,150.892857 C235.532009,149.107143 241.135457,141.964286 241.135457,133.482143 C241.135457,123.660714 233.376837,115.625 223.894078,115.625 C214.41132,115.625 206.652699,123.660714 206.652699,133.482143 C206.652699,141.964286 212.256147,148.660714 219.583733,150.892857 L219.583733,227.232143 C219.583733,229.910714 221.307871,231.696429 223.894078,231.696429 C226.480285,231.696429 228.204423,229.910714 228.204423,227.232143 L228.204423,187.5 C232.514768,187.5 236.825113,187.053571 241.135457,187.053571 C243.721665,187.053571 245.445802,185.267857 245.445802,182.589286 C245.445802,179.910714 243.721665,178.125 241.135457,178.125 Z M215.273389,133.482143 C215.273389,128.571429 219.152699,124.553571 223.894078,124.553571 C228.635457,124.553571 232.514768,128.571429 232.514768,133.482143 C232.514768,138.392857 228.635457,142.410714 223.894078,142.410714 C219.152699,142.410714 215.273389,138.392857 215.273389,133.482143 Z M206.221665,180.357143 C186.394078,183.035714 169.152699,187.5 152.342354,191.964286 C145.876837,193.75 139.41132,195.535714 133.376837,196.875 L133.376837,150.892857 C138.54925,149.553571 142.859595,145.535714 145.014768,140.625 C148.463044,142.857143 152.342354,144.196429 156.221665,144.196429 C160.963044,144.196429 165.704423,142.857143 169.583733,139.285714 L182.514768,129.017857 C182.945802,128.571429 183.807871,128.125 184.238905,127.678571 L206.221665,109.821429 C210.963044,106.25 214.41132,101.339286 216.997526,95.9821431 L218.721665,91.9642856 C223.032009,89.7321431 235.100975,83.4821431 242.859595,79.4642857 C245.014768,78.5714286 245.876837,75.8928572 245.014768,73.6607143 C244.152699,71.4285714 241.566492,70.5357143 239.41132,71.4285714 C233.376837,74.5535714 228.635457,76.7857143 225.187181,78.5714286 L227.773389,72.7678572 C228.635457,70.5357143 227.773389,67.8571428 225.618216,66.9642857 C223.463044,66.0714286 220.876837,66.9642857 220.014768,69.1964286 L209.238905,91.9642856 C208.807871,92.4107139 208.807871,92.8571431 208.376837,93.7499998 L201.04925,86.1607139 C199.325113,84.3749998 196.738905,84.3749998 195.014768,86.1607139 C193.29063,87.9464289 193.29063,90.6249998 195.014768,92.4107139 L203.204423,100.892857 C202.342354,101.785714 201.91132,102.232143 201.04925,102.678571 L183.807871,116.517857 C180.359595,108.035714 172.600975,102.232143 163.54925,102.232143 C160.963044,102.232143 159.238905,104.017857 159.238905,106.696429 C159.238905,109.375 160.963044,111.160714 163.54925,111.160714 C170.014768,111.160714 175.187181,116.071429 176.480285,122.321429 L164.41132,132.142857 C159.238905,136.160714 151.91132,135.714286 147.16994,131.25 L145.876837,129.910714 C143.721665,127.232143 143.29063,125.892857 141.997526,122.321429 C141.566492,118.303571 142.428561,113.839286 145.445802,110.714286 C145.445802,110.714286 145.445802,110.714286 145.445802,110.267857 L179.066492,70.0892857 C182.514768,66.0714286 184.238905,60.7142857 184.238905,55.3571428 L184.238905,53.125 C184.238905,50.4464286 182.514768,48.6607143 179.928561,48.6607143 C177.342354,48.6607143 175.618216,50.4464286 175.618216,53.125 L175.618216,55.3571428 C175.618216,58.4821428 174.325113,61.6071428 172.600975,64.2857143 L138.980285,104.464286 C135.532009,108.035714 133.807871,112.053571 132.945802,116.517857 C132.083733,116.071429 130.79063,115.625 129.066492,115.625 C124.756147,115.625 120.876837,117.410714 117.859595,120.089286 C117.859595,120.089286 117.859595,120.089286 117.859595,119.642857 L116.135457,68.75 L138.118216,53.5714286 L161.825113,61.6071428 C163.980285,62.5 166.566492,61.1607143 167.428561,58.9285714 C168.29063,56.6964286 166.997526,54.0178572 164.842354,53.125 L141.997526,45.5357143 L141.997526,30.8035714 C141.997526,28.125 140.273389,26.3392857 137.687181,26.3392857 C135.100975,26.3392857 133.376837,28.125 133.376837,30.8035714 L133.376837,46.4285714 L111.394078,61.6071428 L96.3078712,54.0178572 C94.1526987,53.125 91.5664921,54.0178572 90.7044229,55.8035714 C89.8423537,58.0357143 90.7044229,60.7142857 92.4285612,61.6071428 L107.514768,69.1964286 L109.238905,120.089286 C109.238905,120.089286 109.238905,120.535714 109.238905,120.535714 C110.100975,125.446429 107.083733,130.357143 102.773389,131.696429 C100.187181,132.589286 97.6009746,132.142857 95.0147679,130.803571 C92.8595954,129.464286 91.1354571,127.232143 90.2733887,124.553571 L89.8423537,121.428571 C90.2733887,121.428571 90.2733887,120.982143 90.2733887,120.089286 C90.2733887,117.410714 91.9975262,115.625 94.5837329,115.625 C97.1699404,115.625 98.8940779,113.839286 98.8940779,111.160714 C98.8940779,108.482143 97.1699404,106.696429 94.5837329,106.696429 C91.9975262,106.696429 89.8423537,107.589286 88.1182162,108.482143 L82.0837332,62.0535714 C82.0837332,62.0535714 82.0837332,61.6071428 82.0837332,61.6071428 C80.7906298,57.1428572 82.0837332,52.2321428 85.5320087,48.6607143 L113.54925,18.3035714 C119.152699,12.0535714 126.91132,8.48214284 135.100975,8.48214284 L240.704423,26.3392857 C242.859595,26.7857143 245.445802,25 245.445802,22.7678572 C245.876837,20.5357143 244.152699,17.8571428 241.997526,17.8571428 L135.963044,0 C135.532009,0 135.532009,0 135.100975,0 C124.325113,0 114.41132,4.46428571 107.083733,12.5 L79.4975264,42.8571428 C74.3251126,48.2142857 72.1699402,56.25 73.8940781,63.8392857 L81.6526988,126.785714 C81.6526988,126.785714 81.6526988,127.232143 81.6526988,127.232143 C82.9458022,132.142857 85.9630437,136.607143 90.7044229,139.285714 C93.2906296,140.625 96.3078712,141.517857 99.7561471,141.517857 C101.91132,141.517857 103.635457,141.071429 105.359595,140.625 C107.945802,139.732143 110.100975,138.392857 111.825113,136.607143 C113.118216,143.75 117.859595,149.107143 124.325113,150.892857 L124.325113,203.125 C124.325113,203.125 124.325113,203.125 124.325113,203.125 L124.325113,227.232143 C124.325113,229.910714 126.04925,231.696429 128.635457,231.696429 C131.221665,231.696429 132.945802,229.910714 132.945802,227.232143 L132.945802,206.25 C140.273389,204.464286 147.16994,202.678571 154.066492,200.892857 C170.445802,196.428571 187.687181,191.964286 206.652699,189.285714 C208.807871,188.839286 210.532009,186.607143 210.532009,184.375 C210.532009,181.696429 208.376837,180.357143 206.221665,180.357143 Z M120.445802,133.482143 C120.445802,128.571429 124.325113,124.553571 129.066492,124.553571 C131.221665,124.553571 132.945802,125.446429 134.238905,126.339286 C135.100975,128.571429 135.963044,131.25 137.687181,133.035714 C137.687181,133.035714 137.687181,133.035714 137.687181,133.035714 C137.687181,137.946429 133.807871,141.964286 129.066492,141.964286 C124.325113,142.410714 120.445802,138.392857 120.445802,133.482143 Z M110.963044,201.785714 C101.04925,203.571429 91.1354571,204.464286 81.6526988,204.464286 L81.6526988,177.232143 C88.9802854,175.446429 94.5837329,168.303571 94.5837329,159.821429 C94.5837329,150 86.8251129,141.964286 77.342354,141.964286 C67.8595953,141.964286 60.1009747,150 60.1009747,159.821429 C60.1009747,168.303571 65.7044229,175 73.0320092,177.232143 L73.0320092,245.089286 C73.0320092,247.767857 74.7561471,249.553571 77.342354,249.553571 C79.9285609,249.553571 81.6526988,247.767857 81.6526988,245.089286 L81.6526988,213.839286 C91.9975262,213.839286 101.91132,212.5 112.687181,210.714286 C114.842354,210.267857 116.566492,208.035714 116.135457,205.803571 C115.704423,203.125 113.54925,201.785714 110.963044,201.785714 Z M68.7216643,160.267857 C68.7216643,155.357143 72.6009747,151.339286 77.342354,151.339286 C82.0837332,151.339286 85.9630437,155.357143 85.9630437,160.267857 C85.9630437,165.178571 82.0837332,169.196429 77.342354,169.196429 C72.6009747,169.196429 68.7216643,165.178571 68.7216643,160.267857 Z M60.5320092,204.464286 C55.7906298,204.017857 51.480285,203.571429 47.1699402,203.125 L47.1699402,141.964286 C54.4975264,140.178571 60.1009747,133.035714 60.1009747,124.553571 C60.1009747,114.732143 52.342354,106.696429 42.8595953,106.696429 C33.3768367,106.696429 25.6182161,114.732143 25.6182161,124.553571 C25.6182161,133.035714 31.2216643,139.732143 38.5492505,141.964286 L38.5492505,236.160714 C38.5492505,238.839286 40.2733885,240.625 42.8595953,240.625 C45.4458022,240.625 47.1699402,238.839286 47.1699402,236.160714 L47.1699402,212.053571 C51.0492505,212.5 55.3595953,212.946429 59.6699402,213.392857 C59.6699402,213.392857 59.6699402,213.392857 60.1009747,213.392857 C62.2561471,213.392857 64.4113195,211.607143 64.4113195,209.375 C64.4113195,206.696429 62.6871816,204.464286 60.5320092,204.464286 Z M34.2389057,124.553571 C34.2389057,119.642857 38.1182161,115.625 42.8595953,115.625 C47.6009747,115.625 51.480285,119.642857 51.480285,124.553571 C51.480285,129.464286 47.6009747,133.482143 42.8595953,133.482143 C38.1182161,133.482143 34.2389057,129.464286 34.2389057,124.553571 Z M29.9285609,204.910714 C29.4975264,207.142857 27.7733885,208.482143 25.6182161,208.482143 C25.1871816,208.482143 25.1871816,208.482143 24.7561471,208.482143 L7.51476776,204.910714 C5.35959535,204.464286 3.63545741,202.232143 4.0664919,199.553571 C4.49752638,197.321429 6.6526988,195.535714 9.23890565,195.982143 L26.480285,199.553571 C28.6354574,200 30.3595953,202.232143 29.9285609,204.910714 Z" id="Shape" fill="#0126FF" fill-rule="nonzero"></path>
            <rect id="Rectangle" x="0" y="0" width="250" height="250"></rect>
        </g>
    </g>
</svg>