<?xml version="1.0" encoding="UTF-8"?>
<svg width="222px" height="173px" viewBox="0 0 222 173" version="1.1" xmlns="http://www.w3.org/2000/svg" xmlns:xlink="http://www.w3.org/1999/xlink">
    <!-- Generator: Sketch 52.6 (67491) - http://www.bohemiancoding.com/sketch -->
    <title>SnatchSolidBlue250x</title>
    <desc>Created with Sketch.</desc>
    <g id="Page-1" stroke="none" stroke-width="1" fill="none" fill-rule="evenodd">
        <g id="SnatchSolidBlue250x" transform="translate(-17.000000, -31.000000)">
            <path d="M145.859059,202.94235 C143.350096,201.822726 142.879666,199.90337 144.526172,196.864389 C145.388628,195.264925 145.702249,193.505514 145.388628,192.305917 C144.761387,189.586828 139.900272,188.86707 125.316927,189.426882 C120.220596,189.586828 118.88771,189.266936 115.124266,187.347579 C112.772113,186.147982 109.243884,183.988706 107.283757,182.709135 L103.755529,180.229965 L105.558846,182.949055 C106.578112,184.468544 107.910998,186.867741 108.459833,188.227284 C109.087074,189.586828 110.10634,191.106319 110.733581,191.666132 C111.360821,192.225944 112.301683,193.905381 112.850519,195.504844 C114.183405,199.66345 113.085734,200.223262 101.952212,201.182941 C88.2313216,202.462511 80.3908131,200.623128 84.3894724,197.184281 C85.0951184,196.544496 87.1336508,195.584818 88.8585624,195.104978 C90.9754994,194.465193 92.4651963,193.425542 93.4060571,191.826077 C94.1117031,190.546507 94.5037286,189.346909 94.1901079,189.186962 C93.3276524,188.86707 89.2505878,182.389242 89.2505878,181.509537 C89.2505878,181.109671 88.3881317,179.8301 87.2904608,178.630502 C86.1927894,177.430905 85.3303338,175.991387 85.3303338,175.511548 C85.3303338,174.951736 83.8406369,173.032379 82.1157253,171.352943 C76.8625845,166.234658 74.3536215,161.676187 74.3536215,157.277661 C74.3536215,151.519592 75.451293,149.520262 79.3715469,147.680879 C85.5655486,144.881817 88.9369677,144.881817 95.9150201,147.760852 C99.364844,149.200369 103.598719,151.039753 105.245225,151.919458 L108.303023,153.518922 L107.754188,150.95978 C107.518973,149.520262 106.029276,145.521603 104.461174,142.002783 C102.030616,136.40466 101.560186,134.565277 101.246566,127.527636 L100.776136,119.370371 L97.6399318,116.571309 C91.7595508,111.373052 88.7801571,107.854232 86.0359793,102.895894 C83.2133962,97.6176639 81.3316745,95.4583882 76.0785337,91.1398362 C73.8831912,89.3804258 71.9230641,86.6613377 70.1197472,82.902598 L67.4539743,77.2245017 L66.9051387,79.8636168 C66.0426828,83.9422494 62.8280743,90.260131 60.0054913,93.2191392 C56.9476929,96.4980395 53.8898946,97.2977719 47.3822726,96.8179324 C42.8347777,96.4180662 41.8939167,96.0981742 40.1690048,93.9388975 C37.503232,90.7399703 34.759054,85.061874 33.1909523,79.5437241 L31.936471,74.9852525 L26.2128997,74.9852525 C19.5484676,74.9852525 17.9019608,73.8656279 17.9019608,69.1472099 C17.9019608,65.4684433 19.3916574,64.5887382 25.8992794,64.5887382 L30.9172049,64.5887382 L31.7796607,59.2305348 C32.8773319,52.912653 37.5816371,42.6760852 40.325815,40.9166751 C43.1483981,38.9973186 52.7922235,39.7170773 56.5556676,42.1162729 C61.1031625,44.9953077 64.1609608,50.3535111 66.5131133,59.6304007 C67.4539743,63.2291941 67.3755692,63.2291941 72.8639251,61.7097035 C73.5695709,61.469784 74.7456469,61.8696499 75.451293,62.5894086 C76.5489639,63.7090332 80.7828385,63.62906 122.337533,61.3898108 C147.505566,60.0302666 169.223775,58.7506957 170.635066,58.5107761 C172.046357,58.2708565 173.849674,57.4711246 174.633725,56.6713928 C176.280232,54.991956 180.749322,53.8723313 181.376563,54.991956 C181.611778,55.471795 182.552639,55.7916878 183.415094,55.7916878 C184.27755,55.7916878 185.140007,56.3515001 185.375222,56.9912855 C186.472893,59.7103739 187.805779,58.030937 188.668235,52.9926262 C190.236337,43.4758171 195.567883,34.438847 201.134643,32.1196246 C202.545936,31.4798391 206.152569,31 209.210367,31 C214.228293,31 214.933939,31.2399195 216.658851,33.0793028 C220.265484,36.997989 222.539231,43.1559244 224.577764,53.9523045 C224.891384,55.6317413 225.361815,55.7916878 229.830905,55.7916878 C235.946501,55.7916878 238.220249,57.1512319 238.220249,60.9899449 C238.220249,65.3084969 236.573742,66.3481484 229.909309,66.0282557 L224.264144,65.7883361 L222.852852,70.8266468 C222.147206,73.7856547 219.951864,78.4240996 217.756522,81.8629466 L213.914673,87.7809623 L207.25024,87.7809623 C199.409732,87.7809623 197.057579,86.821284 194.078186,82.4227588 C191.255603,78.2641532 189.609096,73.9456011 188.511425,67.8676389 L187.570564,62.7493549 L184.904791,66.4281215 C180.200486,72.7460032 171.340712,83.0625443 164.205849,90.5000506 C159.031114,95.8582544 156.67896,99.0571814 154.248403,104.095493 C152.445086,107.614313 149.622503,112.012838 147.975996,113.852221 L144.839793,117.131122 L144.526172,126.408011 C144.369362,131.526295 143.977337,136.964472 143.742121,138.403989 C143.271691,140.723211 143.506906,141.203051 145.231818,142.002783 C147.975996,143.282354 154.248403,149.200369 155.424479,151.679538 C156.992581,154.878466 157.541417,164.955087 156.67896,173.992057 C156.05172,180.149993 156.05172,183.029028 156.757365,185.588169 C157.306202,187.427552 157.619822,189.586828 157.541417,190.306587 C157.463012,191.106319 158.247063,192.945703 159.344734,194.38522 C163.421798,199.90337 161.069646,203.18227 152.915517,203.502163 C150.014529,203.66211 146.878326,203.342217 145.859059,202.94235 Z" id="Shape" fill="#0126FF"></path>
            <path d="M109.621134,102.692911 C108.028434,100.932978 106.037558,99.714562 103.98032,99.1053546 C101.392183,98.3607667 100.595833,97.7515592 99.6667577,95.7885564 C99.0694949,94.5024509 97.6758826,92.6748272 96.6140823,91.7271708 C95.5522821,90.779514 94.4241196,89.4257189 94.225032,88.613442 C93.9595817,87.8011647 90.7741814,84.5520564 87.190606,81.3706377 C83.6070305,78.1892191 80.4879928,75.3462492 80.2889053,75.0078004 C80.0898177,74.6693517 81.151618,73.7216951 82.7443178,72.909418 C85.1997309,71.5556228 87.3233313,71.2848637 101.458545,70.5402764 C110.218397,70.0664482 125.614498,69.3218608 135.635237,68.9157223 C145.655976,68.5095837 156.340339,68.0357554 159.393015,67.8326861 C163.839303,67.4942373 164.83474,67.6296169 164.83474,68.3742042 C164.83474,69.3895506 158.132127,76.0908366 155.278539,77.9861498 C154.482189,78.5276679 152.756764,80.3552913 151.495876,82.1152251 C149.372276,85.0258847 137.427024,96.2623843 133.710724,98.7669055 C132.781649,99.4438028 131.454399,99.9853213 130.790773,99.9853213 C129.662611,99.9853213 129.662611,99.8499416 130.591687,98.4961471 C131.985299,96.4654537 131.918937,90.779514 130.458961,87.8011647 C129.728973,86.2443003 128.268998,84.8905051 126.344486,83.8751588 C123.82271,82.5213636 122.76091,82.3182944 119.177335,82.7244329 C114.79741,83.1305714 113.669246,83.8751588 111.612009,87.5980954 C110.284758,89.8995471 110.085671,90.779514 111.014746,90.2379959 C111.280196,90.0349266 111.744734,92.8102066 112.010184,96.3977639 C112.275634,100.053011 112.806534,103.505189 113.138347,104.182086 C114.266509,106.348158 112.275634,105.468192 109.621134,102.692911 Z" id="Shape" fill="#FFFFFF"></path>
            <rect id="Rectangle" x="0" y="0" width="250" height="250"></rect>
        </g>
    </g>
</svg>