<?xml version="1.0" encoding="UTF-8" standalone="no"?>
<!DOCTYPE svg PUBLIC "-//W3C//DTD SVG 1.1//EN" "http://www.w3.org/Graphics/SVG/1.1/DTD/svg11.dtd">
<svg viewBox="0 0 255 237" height="237.0pt" width="255.0pt" xmlns="http://www.w3.org/2000/svg" version="1.1">
<path d="M 0.00 0.00 L 114.45 0.00 C 109.88 1.41 105.12 1.28 100.52 2.56 C 104.18 3.38 108.25 2.22 112.02 1.89 C 114.23 1.71 116.16 0.91 118.15 0.00 L 118.85 0.00 C 121.88 1.52 124.74 0.94 128.00 1.04 C 131.29 0.96 134.25 1.47 137.33 0.00 L 138.02 0.00 C 141.66 2.28 145.40 2.28 149.53 1.73 C 146.91 1.21 144.30 0.71 141.73 0.00 L 255.00 0.00 L 255.00 103.52 C 253.70 107.33 253.59 109.06 255.00 112.88 L 255.00 124.53 C 253.41 128.26 253.84 130.76 255.00 134.51 L 255.00 237.00 L 145.67 237.00 C 141.76 235.67 140.01 235.59 136.08 237.00 L 119.64 237.00 C 115.99 235.33 113.08 235.88 109.40 237.00 L 0.00 237.00 L 0.00 121.95 C 2.19 119.40 1.97 117.64 0.00 115.05 L 0.00 0.00 Z" fill="#ffffff" />
<path d="M 114.45 0.00 L 118.15 0.00 C 116.16 0.91 114.23 1.71 112.02 1.89 C 108.25 2.22 104.18 3.38 100.52 2.56 C 105.12 1.28 109.88 1.41 114.45 0.00 Z" fill="#ffd0d2" />
<path d="M 118.85 0.00 L 137.33 0.00 C 134.25 1.47 131.29 0.96 128.00 1.04 C 124.74 0.94 121.88 1.52 118.85 0.00 Z" fill="#ffc0c4" />
<path d="M 138.02 0.00 L 141.73 0.00 C 144.30 0.71 146.91 1.21 149.53 1.73 C 145.40 2.28 141.66 2.28 138.02 0.00 Z" fill="#ffcfd1" />
<path d="M 149.52 2.15 C 154.38 1.77 159.08 2.94 163.47 4.95 C 158.75 4.53 154.05 3.57 149.52 2.15 Z" fill="#ffd0d1" />
<path d="M 96.38 3.37 C 97.79 3.01 99.13 3.23 100.54 3.39 C 96.09 4.78 91.50 5.56 87.09 7.13 C 82.16 8.64 77.62 11.02 72.62 12.10 C 74.09 10.96 75.62 9.99 77.37 9.35 C 83.57 6.98 89.92 4.88 96.38 3.37 Z" fill="#ffd5d6" />
<path d="M 112.15 3.82 C 138.86 0.63 166.78 5.63 190.44 18.52 C 212.19 30.29 230.39 48.48 241.27 70.77 C 249.95 88.42 253.72 108.39 251.99 127.98 C 250.47 146.99 243.67 165.27 232.91 180.97 C 219.93 200.01 201.18 214.93 180.03 223.95 C 157.81 233.58 133.13 236.50 109.18 233.24 C 84.71 229.90 60.84 219.34 42.38 202.85 C 42.37 202.16 42.28 201.50 42.11 200.87 C 40.07 198.30 37.44 196.21 35.25 193.77 C 33.64 192.27 32.69 190.52 30.26 190.52 C 15.76 173.76 6.45 152.60 4.04 130.56 C 5.54 126.33 4.92 122.37 5.02 118.00 C 4.95 114.57 5.52 111.50 3.89 108.32 C 6.51 80.53 20.20 54.47 40.91 35.88 C 60.44 17.96 85.88 6.84 112.15 3.82 Z" fill="#0124ff" />
<path d="M 163.69 4.99 C 171.45 6.08 179.09 9.56 186.12 12.90 C 189.83 14.81 193.43 16.07 196.47 19.05 C 194.15 18.29 191.99 17.33 189.84 16.15 C 183.56 12.71 177.03 9.84 170.16 7.77 C 167.88 7.09 165.68 6.34 163.69 4.99 Z" fill="#ffd7d8" />
<path d="M 118.62 9.31 C 121.07 9.20 123.54 9.27 126.00 9.21 L 126.01 10.91 C 124.57 10.44 123.14 9.97 121.69 9.51 C 121.62 10.93 121.55 12.35 121.48 13.76 C 122.66 13.55 123.85 13.34 125.04 13.13 L 125.17 15.10 C 123.90 14.80 122.63 14.50 121.36 14.20 C 121.50 15.65 121.69 17.09 121.91 18.53 C 123.36 18.62 124.39 18.43 125.66 17.75 C 126.71 18.55 127.45 18.66 127.87 18.06 C 128.37 14.89 128.20 11.58 128.29 8.38 C 131.51 10.28 132.76 13.92 135.19 16.94 C 135.23 14.32 135.06 11.77 134.54 9.21 C 135.51 9.27 136.49 9.33 137.47 9.39 C 135.99 12.89 136.47 16.66 135.65 20.48 C 133.07 18.02 131.54 15.05 129.42 12.22 C 129.18 14.68 129.10 17.00 129.63 19.42 C 124.81 19.28 119.99 19.92 115.19 19.79 C 113.82 18.53 112.63 17.07 111.38 15.70 C 111.13 17.33 111.53 19.05 111.87 20.64 C 110.63 20.78 109.39 20.92 108.14 21.06 C 108.52 20.42 108.90 19.78 109.29 19.15 C 108.90 16.40 108.64 13.69 107.99 10.99 L 106.72 12.96 C 105.54 12.65 104.36 12.33 103.17 12.01 C 103.75 15.34 104.33 18.61 105.79 21.68 C 104.52 22.02 103.25 22.35 101.97 22.69 C 102.24 21.90 102.50 21.11 102.77 20.31 C 102.14 17.59 101.49 14.92 100.37 12.35 C 99.49 13.39 98.60 14.43 97.71 15.47 C 97.46 14.67 97.24 13.87 97.06 13.05 C 101.44 11.67 106.09 11.07 110.58 10.15 C 110.68 12.03 110.81 13.91 110.98 15.79 C 111.74 15.24 112.48 14.67 113.19 14.06 C 114.30 12.23 111.74 10.94 110.94 9.53 C 112.40 10.10 114.69 9.85 115.40 11.49 C 116.30 13.16 114.70 14.46 114.05 15.93 C 115.42 17.15 116.79 18.37 118.27 19.47 C 120.87 17.43 118.97 12.13 118.62 9.31 Z" fill="#fffffe" />
<path d="M 147.23 11.00 C 146.76 11.66 146.30 12.32 145.84 12.99 C 145.29 12.15 144.72 11.33 144.13 10.52 C 138.85 9.35 137.38 19.02 142.24 20.05 C 144.26 18.62 143.01 17.26 142.37 15.55 C 143.79 15.86 145.21 16.15 146.63 16.43 C 146.10 17.82 145.60 19.21 145.12 20.62 C 143.47 20.59 141.40 20.91 139.91 20.13 C 135.78 18.33 136.59 10.93 140.81 9.76 C 142.82 8.87 145.30 10.38 147.23 11.00 Z" fill="#ffffff" />
<path d="M 148.36 10.53 C 152.82 11.72 157.28 12.93 161.79 13.89 C 160.99 15.31 160.23 16.75 159.46 18.19 C 160.98 18.62 162.51 19.04 164.04 19.47 C 164.20 17.99 164.35 16.51 164.49 15.03 C 165.60 15.32 166.72 15.60 167.84 15.88 C 165.74 19.26 164.84 22.11 164.47 26.09 C 163.43 25.70 162.38 25.32 161.34 24.94 C 162.20 23.39 162.87 21.85 163.43 20.16 C 162.06 19.77 160.70 19.37 159.34 18.97 C 158.97 20.62 158.67 22.27 158.46 23.96 C 157.38 23.65 156.30 23.36 155.21 23.06 C 156.77 20.18 157.82 17.11 158.87 14.02 L 156.35 14.80 L 154.77 12.27 C 153.22 15.63 152.15 18.89 152.72 22.64 C 151.23 22.18 149.73 21.73 148.23 21.30 C 148.82 20.93 149.42 20.57 150.01 20.21 C 150.79 17.31 151.56 14.46 151.45 11.42 C 150.24 12.04 149.04 12.68 147.84 13.32 C 148.00 12.39 148.17 11.46 148.36 10.53 Z" fill="#ffffff" />
<path d="M 70.36 12.14 C 73.64 11.44 70.96 15.01 69.24 13.81 C 69.01 13.15 69.38 12.59 70.36 12.14 Z" fill="#ffd2d3" />
<path d="M 67.22 14.30 C 67.78 14.72 67.78 14.72 67.22 14.30 Z" fill="#ffbcbd" />
<path d="M 94.97 13.68 C 95.16 14.71 95.35 15.74 95.55 16.77 C 94.60 16.12 93.65 15.46 92.71 14.79 C 92.08 15.52 91.45 16.24 90.83 16.97 C 92.80 17.77 94.79 18.52 96.80 19.24 C 97.27 20.18 97.74 21.13 98.22 22.07 C 96.62 23.73 95.50 25.34 92.97 25.43 C 90.73 25.38 91.27 24.49 90.73 22.65 C 91.87 23.17 93.00 23.69 94.14 24.23 C 94.83 23.47 95.52 22.71 96.21 21.95 C 93.99 20.69 90.47 20.06 89.06 17.86 C 88.89 14.46 92.21 13.78 94.97 13.68 Z" fill="#bfc5fb" />
<path d="M 66.41 14.89 C 64.01 17.61 60.92 18.96 57.56 20.10 C 60.04 17.47 63.02 15.99 66.41 14.89 Z" fill="#ffd8d9" />
<path d="M 196.65 18.87 C 200.96 20.81 205.29 23.49 208.36 27.12 C 204.17 25.02 199.75 22.46 196.65 18.87 Z" fill="#ffdcdd" />
<path d="M 178.61 20.30 C 180.81 21.38 183.09 22.47 185.03 23.96 L 185.00 26.53 C 183.79 25.33 182.64 24.09 181.50 22.83 C 180.82 24.15 180.18 25.48 179.51 26.81 C 180.68 26.90 181.85 26.99 183.02 27.08 C 182.63 27.82 182.24 28.56 181.84 29.30 C 180.85 28.53 179.85 27.76 178.85 26.99 C 178.40 28.66 178.01 30.33 177.67 32.03 C 176.39 31.36 175.11 30.70 173.82 30.04 C 176.00 27.84 177.49 25.42 178.66 22.55 C 178.64 21.80 178.63 21.05 178.61 20.30 Z" fill="#bbc1fa" />
<path d="M 55.19 21.28 C 55.72 21.74 55.72 21.74 55.19 21.28 Z" fill="#ffbfc0" />
<path d="M 75.91 20.99 C 76.50 21.37 77.01 21.91 77.45 22.60 C 76.31 22.70 75.17 22.82 74.04 22.97 C 71.81 23.90 74.24 25.66 74.64 27.08 C 75.40 26.32 76.18 25.59 76.98 24.88 C 77.57 25.25 78.04 25.83 78.40 26.60 C 77.14 27.03 75.88 27.47 74.63 27.90 C 75.68 29.21 76.75 30.50 77.83 31.78 C 76.68 32.40 75.53 33.03 74.39 33.66 C 73.63 29.97 72.27 26.72 69.44 24.12 C 71.51 23.06 73.63 21.49 75.91 20.99 Z" fill="#c2c7f9" />
<path d="M 54.41 21.92 C 53.29 23.35 52.06 24.56 50.57 25.61 C 46.36 28.63 42.18 31.85 38.47 35.47 C 35.24 38.58 32.75 41.94 28.81 44.26 C 30.09 42.39 31.50 40.71 33.13 39.14 C 39.47 32.79 46.40 26.06 54.41 21.92 Z" fill="#ffdcde" />
<path d="M 121.00 23.93 C 126.33 23.99 131.67 23.93 137.00 23.95 C 139.15 24.21 141.26 23.49 142.30 25.93 C 133.08 24.93 123.87 25.02 114.64 25.85 C 116.14 23.42 118.56 24.14 121.00 23.93 Z" fill="#0002fe" />
<path d="M 114.64 25.85 C 123.87 25.02 133.08 24.93 142.30 25.93 C 163.33 28.88 183.31 37.57 199.06 51.91 C 211.01 62.68 220.32 76.47 225.32 91.79 C 231.03 108.91 231.33 127.72 226.09 144.99 C 221.49 160.71 212.18 175.09 200.26 186.26 C 186.04 199.51 168.06 208.47 148.99 212.12 C 113.98 219.15 76.04 207.62 51.67 181.35 C 40.20 168.97 32.02 153.58 28.72 137.00 C 25.05 118.65 27.31 99.22 35.28 82.27 C 42.32 66.85 54.03 53.50 67.93 43.87 C 81.83 34.06 97.89 28.41 114.64 25.85 Z" fill="#ffffff" />
<path d="M 66.85 26.43 C 70.65 26.95 72.98 31.01 71.84 34.64 C 70.05 36.72 68.12 38.64 65.14 37.56 C 61.79 36.17 61.07 33.28 60.72 29.96 C 62.47 28.47 64.28 25.99 66.85 26.43 Z" fill="#cfd4fa" />
<path d="M 117.53 27.86 C 149.67 24.33 182.93 36.22 204.61 60.41 C 219.49 76.83 228.22 98.76 227.65 121.00 C 227.67 131.62 225.27 142.34 221.37 152.19 C 213.90 170.61 200.34 186.03 183.51 196.49 C 158.27 212.22 126.58 216.00 98.15 207.62 C 79.06 201.96 61.43 190.59 48.97 175.01 C 39.38 163.23 32.86 149.00 30.30 134.02 C 28.14 120.77 28.93 106.86 33.00 94.03 C 38.87 74.87 51.39 58.30 67.59 46.62 C 82.15 36.10 99.64 29.53 117.53 27.86 Z" fill="#000000" />
<path d="M 191.45 26.85 C 191.02 31.16 190.04 35.26 190.22 39.62 C 188.90 38.72 187.55 37.84 186.21 36.96 L 187.93 35.47 C 188.42 33.97 185.94 33.05 184.88 32.61 C 183.90 32.13 182.94 34.05 182.20 34.63 C 181.55 34.06 180.89 33.49 180.24 32.92 C 184.19 31.25 187.52 28.56 191.45 26.85 Z" fill="#b2baf9" />
<path d="M 66.81 27.81 C 68.92 30.17 69.83 31.89 70.37 35.05 C 68.89 35.61 67.83 36.47 66.18 35.90 C 64.02 34.07 63.02 31.96 62.80 29.15 C 64.13 28.49 65.35 28.07 66.81 27.81 Z" fill="#0228ff" />
<path d="M 210.16 28.31 C 211.21 27.68 213.34 29.74 212.72 30.81 C 211.55 31.44 209.54 29.49 210.16 28.31 Z" fill="#ffd8d9" />
<path d="M 188.93 30.06 C 189.08 31.01 188.95 31.86 188.53 32.61 C 187.39 33.82 186.08 32.33 185.89 31.13 C 186.85 30.22 187.87 29.86 188.93 30.06 Z" fill="#3c45fb" />
<path d="M 197.96 32.03 C 199.02 32.90 200.09 33.77 201.16 34.62 C 198.41 36.20 196.86 38.66 194.97 41.09 C 195.09 41.79 195.22 42.48 195.34 43.18 C 194.05 42.38 192.76 41.58 191.46 40.78 C 194.29 38.29 196.78 35.72 197.96 32.03 Z" fill="#ced3fb" />
<path d="M 216.79 33.86 C 220.19 36.03 222.93 38.91 225.17 42.25 C 221.71 40.13 218.82 37.40 216.79 33.86 Z" fill="#ffdcde" />
<path d="M 204.06 36.73 C 205.76 38.39 207.77 40.08 209.05 42.08 C 208.57 44.63 206.69 45.12 204.47 45.60 C 204.32 47.07 204.17 48.54 204.02 50.01 C 204.67 50.52 205.32 51.03 205.97 51.54 C 208.39 49.25 211.00 47.69 212.29 44.55 C 213.92 46.41 215.60 48.21 217.30 50.00 C 216.77 50.57 216.24 51.14 215.71 51.71 C 215.15 50.19 214.57 48.68 213.94 47.18 C 212.70 48.40 211.56 49.66 210.55 51.07 C 211.62 51.33 212.70 51.58 213.77 51.83 C 213.12 52.53 212.48 53.23 211.83 53.93 C 211.26 52.73 210.68 51.52 210.11 50.32 C 209.00 51.75 208.06 53.20 207.21 54.80 C 205.53 52.74 203.72 50.82 201.82 48.96 C 202.16 47.18 202.54 45.40 202.92 43.63 C 204.02 43.55 205.05 43.34 206.01 42.98 C 207.84 41.85 206.38 40.89 206.12 39.28 C 203.62 41.59 201.28 44.05 199.37 46.89 C 198.62 46.16 197.87 45.43 197.13 44.70 C 200.13 42.56 202.86 40.37 204.06 36.73 Z" fill="#ffffff" />
<path d="M 49.98 37.93 C 50.65 38.36 51.34 38.77 52.03 39.16 C 50.63 39.80 49.20 40.42 47.85 41.17 C 48.54 42.26 49.26 43.33 50.02 44.37 C 50.62 43.31 51.21 42.25 51.81 41.19 C 52.50 41.87 53.19 42.56 53.88 43.26 C 52.78 43.55 51.68 43.86 50.58 44.16 C 51.45 45.38 52.27 46.64 53.16 47.85 C 54.27 46.64 55.21 44.09 57.00 43.90 C 57.74 46.86 53.29 48.88 51.53 50.68 C 50.32 47.05 47.61 44.95 44.76 42.65 C 46.42 41.05 48.03 39.17 49.98 37.93 Z" fill="#bdc4fa" />
<path d="M 138.50 42.68 C 141.15 42.04 144.65 43.07 145.32 46.08 C 144.59 49.43 139.99 50.91 137.67 53.19 C 139.72 53.50 141.83 53.66 143.85 54.14 L 143.97 55.98 C 140.89 55.97 137.96 55.46 134.94 54.90 C 136.75 51.90 139.71 50.43 141.97 47.94 C 143.54 45.26 141.96 44.69 140.11 43.08 C 139.21 43.98 138.32 44.92 137.36 45.75 C 136.80 44.15 136.88 43.39 138.50 42.68 Z" fill="#ffffff" />
<path d="M 117.03 43.29 C 118.83 42.64 118.78 44.94 119.36 45.99 C 117.61 45.36 115.87 44.82 114.05 44.45 C 114.61 47.87 115.05 51.45 116.16 54.75 L 118.07 56.14 C 116.00 56.56 113.91 56.95 111.83 57.36 C 112.35 56.62 112.87 55.89 113.40 55.16 C 112.57 51.95 112.30 48.54 111.20 45.41 C 108.93 45.54 108.30 47.32 106.93 48.80 C 105.49 47.57 104.69 46.25 102.87 47.88 C 101.63 49.11 102.62 50.44 104.09 50.80 C 106.26 51.72 110.18 51.85 110.19 55.00 C 110.43 57.65 108.09 58.97 105.87 59.53 C 101.84 60.46 98.32 62.29 94.59 64.00 C 95.62 59.93 92.61 54.88 90.08 51.81 C 92.82 50.57 95.63 49.46 98.44 48.39 C 98.69 49.18 98.94 49.97 99.19 50.75 C 97.27 50.48 95.63 50.55 93.72 50.84 C 94.34 52.56 95.00 54.27 95.68 55.98 C 96.78 55.11 97.89 54.23 99.04 53.43 C 99.45 54.06 99.85 54.69 100.24 55.34 C 98.74 55.71 97.24 56.11 95.75 56.51 C 96.49 58.07 97.21 59.63 97.94 61.19 C 99.02 60.75 100.11 60.31 101.19 59.89 C 101.74 58.74 102.29 57.61 102.86 56.48 C 103.58 57.22 104.29 57.96 105.01 58.70 C 105.86 58.33 106.70 57.93 107.52 57.50 C 108.49 56.69 107.99 54.57 106.57 54.39 C 104.82 53.65 102.34 53.40 100.98 52.03 C 99.43 50.14 100.32 47.44 102.60 46.67 C 107.31 45.20 112.17 44.13 117.03 43.29 Z" fill="#ffffff" />
<path d="M 225.87 42.84 C 227.70 44.38 229.01 46.22 230.12 48.33 C 227.47 46.79 226.71 45.81 225.87 42.84 Z" fill="#ffdde0" />
<path d="M 148.50 44.60 C 150.68 43.53 153.16 44.73 154.14 46.84 C 155.49 49.49 154.60 52.68 153.14 55.10 C 151.60 57.34 148.72 58.68 146.38 56.66 C 142.55 53.61 144.96 46.85 148.50 44.60 Z" fill="#ffffff" />
<path d="M 43.08 44.74 C 43.88 45.22 44.62 45.77 45.33 46.39 C 43.99 46.63 42.66 46.95 41.36 47.34 C 39.36 50.49 42.83 54.19 45.97 54.33 C 47.95 53.46 49.21 51.41 51.15 50.38 C 50.13 52.64 48.63 54.44 46.93 56.21 C 44.46 55.93 42.38 56.48 40.57 54.42 C 38.47 52.68 39.05 50.65 38.85 48.22 C 40.18 47.03 41.48 45.55 43.08 44.74 Z" fill="#c6cbf9" />
<path d="M 151.03 44.84 C 151.56 45.83 152.08 46.83 152.58 47.84 C 151.85 51.02 151.52 54.47 148.94 56.76 C 147.37 56.34 146.68 55.42 146.88 54.00 C 147.27 50.44 147.75 46.92 151.03 44.84 Z" fill="#000000" />
<path d="M 26.15 47.02 C 28.00 47.23 26.56 49.71 25.23 48.85 C 24.83 48.02 25.13 47.41 26.15 47.02 Z" fill="#ffd1d7" />
<path d="M 156.71 46.89 C 158.47 47.25 160.23 47.55 161.99 47.88 C 160.54 51.38 158.89 54.94 158.05 58.63 L 159.97 60.48 C 160.68 59.66 161.40 58.83 162.11 58.01 C 162.08 59.07 162.04 60.13 161.99 61.19 C 163.95 61.55 165.13 62.66 166.53 60.57 C 168.41 58.23 164.95 56.35 163.75 54.68 C 164.97 55.16 166.18 55.66 167.38 56.16 C 168.18 55.05 170.97 53.40 169.12 52.05 C 168.07 50.24 165.96 51.93 164.59 52.39 C 164.95 51.46 165.34 50.55 165.77 49.65 C 168.55 50.03 171.24 51.16 172.25 54.01 C 171.58 56.27 170.36 56.55 168.30 57.15 C 169.08 58.98 170.27 59.90 168.87 61.83 C 166.30 65.07 162.44 62.49 159.93 60.62 C 157.25 60.03 154.90 59.17 152.50 57.82 L 155.28 57.55 C 156.72 54.90 157.62 51.90 158.63 49.06 C 158.00 48.33 157.36 47.61 156.71 46.89 Z" fill="#ffffff" />
<path d="M 232.17 51.24 C 233.51 50.39 234.88 52.95 233.06 53.11 C 232.06 52.71 231.77 52.08 232.17 51.24 Z" fill="#ffd4d8" />
<path d="M 22.27 52.26 C 22.76 52.76 22.76 52.76 22.27 52.26 Z" fill="#ffb9c0" />
<path d="M 124.76 52.24 C 124.89 53.41 125.01 54.57 125.10 55.73 C 124.12 55.80 123.13 55.86 122.14 55.92 C 121.85 54.95 121.55 53.99 121.25 53.02 C 122.41 52.74 123.58 52.48 124.76 52.24 Z" fill="#9c9b96" />
<path d="M 33.12 54.99 L 36.10 53.83 C 38.43 54.14 38.61 56.22 39.43 58.00 C 41.34 57.97 43.25 57.94 45.16 57.92 C 44.43 58.71 43.67 59.47 42.88 60.21 C 41.08 60.25 39.25 59.99 37.45 59.80 C 37.22 56.38 35.70 56.39 33.12 54.99 Z" fill="#e6e9fb" />
<path d="M 220.11 53.29 C 220.87 54.35 221.64 55.41 222.38 56.48 C 219.02 58.13 216.22 60.07 214.02 63.15 C 213.23 62.03 212.43 60.92 211.62 59.82 C 215.15 59.23 218.59 56.51 220.11 53.29 Z" fill="#e4e7fa" />
<path d="M 20.27 55.26 C 20.76 55.76 20.76 55.76 20.27 55.26 Z" fill="#ffbac3" />
<path d="M 235.27 55.28 C 235.76 55.77 235.76 55.77 235.27 55.28 Z" fill="#ffb9c0" />
<path d="M 69.30 55.81 C 72.06 58.30 74.29 61.29 77.25 63.60 C 78.43 71.35 83.79 74.60 88.33 80.16 C 84.53 78.77 81.13 76.55 78.10 73.89 C 74.94 71.06 72.86 67.11 70.04 63.84 C 68.75 61.58 69.19 58.32 69.30 55.81 Z" fill="#ffffff" />
<path d="M 193.91 55.52 C 193.92 58.52 194.90 61.86 192.76 64.35 C 187.91 70.97 183.63 76.98 175.48 79.78 L 175.61 79.46 C 177.91 76.43 180.86 74.22 183.00 71.01 C 184.57 68.70 185.48 66.12 186.13 63.41 C 188.99 61.03 191.38 58.23 193.91 55.52 Z" fill="#ffffff" />
<path d="M 32.48 56.79 C 35.49 58.80 38.17 61.18 41.37 62.90 C 40.59 63.86 39.80 64.82 39.02 65.78 C 37.13 63.02 34.90 61.02 32.02 59.35 L 30.97 60.05 C 31.70 62.60 36.44 63.66 37.72 66.39 C 38.16 69.02 36.14 70.87 34.05 72.05 C 31.41 71.42 28.98 69.50 26.71 68.07 C 26.03 68.24 25.35 68.42 24.67 68.60 C 25.44 67.23 26.23 65.86 27.00 64.49 C 29.01 67.23 31.72 68.74 34.73 70.15 C 35.47 69.34 36.21 68.53 36.95 67.71 C 34.71 64.87 32.13 62.74 28.42 62.28 C 29.70 60.50 30.98 58.72 32.33 56.98 L 32.48 56.79 Z" fill="#cbd0f9" />
<path d="M 18.28 58.15 C 19.99 58.27 17.70 62.51 16.37 61.87 C 15.86 60.63 17.11 58.63 18.28 58.15 Z" fill="#ffd9dd" />
<path d="M 77.37 57.71 C 81.75 63.20 86.39 68.08 92.83 71.16 C 98.59 73.74 104.40 76.53 108.77 81.27 C 110.66 83.44 110.61 86.32 110.11 89.00 C 108.73 92.60 105.65 95.55 104.24 99.12 C 103.82 101.42 103.81 104.68 105.52 106.50 C 106.92 107.82 108.98 109.08 110.97 108.96 C 115.36 108.85 120.71 106.98 122.94 102.93 C 124.05 99.95 123.65 96.23 122.72 93.24 C 120.26 92.42 117.26 93.04 114.71 93.17 C 115.28 91.62 115.79 89.99 116.57 88.53 C 119.16 86.88 122.27 86.90 124.61 84.60 C 126.79 82.32 130.31 83.51 133.01 83.97 C 134.76 84.52 137.47 84.99 138.04 87.00 C 140.46 92.56 139.49 98.21 141.36 103.73 C 142.85 107.10 147.55 108.81 150.99 109.05 C 155.80 109.60 160.35 104.79 159.25 99.95 C 157.94 96.03 154.61 92.78 153.08 88.92 C 152.02 85.88 153.01 82.52 155.32 80.33 C 159.15 76.62 164.01 73.94 168.90 71.90 C 175.98 68.73 181.55 63.51 185.90 57.16 C 186.01 59.24 186.11 61.33 186.13 63.41 C 185.48 66.12 184.57 68.70 183.00 71.01 C 180.86 74.22 177.91 76.43 175.61 79.46 L 175.30 79.84 L 175.48 79.78 C 183.63 76.98 187.91 70.97 192.76 64.35 C 193.34 68.71 192.19 72.36 190.30 76.20 C 188.60 79.51 186.12 82.04 184.06 85.10 C 189.67 81.79 192.88 76.82 196.75 71.83 C 196.30 74.47 195.53 77.02 194.64 79.54 C 194.10 80.68 193.59 81.83 193.06 82.98 C 191.55 85.78 189.56 88.23 187.88 90.93 C 193.01 88.17 195.03 83.63 198.96 79.60 C 197.92 83.08 196.56 86.33 196.35 90.00 C 197.56 89.43 198.78 88.86 199.99 88.29 C 197.98 94.17 194.42 98.85 190.25 103.36 C 191.23 103.50 192.21 103.64 193.18 103.79 C 191.86 105.61 190.55 107.44 189.23 109.26 C 190.18 109.81 191.13 110.37 192.07 110.93 C 190.61 112.03 189.15 113.13 187.69 114.23 C 188.36 114.78 189.03 115.33 189.69 115.89 C 188.26 116.78 186.83 117.67 185.36 118.49 C 183.91 119.19 182.65 120.15 184.32 121.56 C 183.38 121.88 182.44 122.20 181.50 122.53 C 181.68 123.21 181.86 123.89 182.04 124.58 C 179.50 125.84 178.10 125.73 177.78 128.96 C 175.61 129.87 174.30 129.89 173.50 132.42 C 172.37 132.29 171.23 132.17 170.10 132.06 L 168.28 131.91 C 168.13 132.93 167.98 133.95 167.81 134.96 L 165.60 135.42 L 165.28 135.49 C 164.36 135.66 163.75 136.43 163.46 137.80 L 162.86 137.55 L 162.29 137.30 C 160.98 136.73 159.65 136.03 158.28 135.64 L 158.30 138.97 C 155.40 137.55 152.48 136.17 149.52 134.86 C 150.06 136.25 150.60 137.64 151.15 139.02 C 148.60 139.54 148.43 141.02 147.30 143.05 C 143.74 140.39 140.59 137.31 137.43 134.20 C 137.54 138.63 137.30 142.71 139.05 146.88 C 140.82 151.13 142.98 155.20 144.82 159.42 L 143.34 159.09 L 141.29 158.60 C 141.37 160.88 141.38 163.15 141.20 165.43 C 139.61 165.58 138.81 166.40 138.81 167.88 C 138.58 169.59 138.39 171.30 138.18 173.01 C 137.25 172.54 136.32 172.11 135.37 171.71 C 135.39 172.77 135.41 173.83 135.44 174.89 C 135.50 177.28 135.44 179.63 135.27 182.01 C 134.08 181.00 132.91 179.99 131.74 178.97 C 130.57 180.02 129.42 181.09 128.27 182.17 C 127.36 178.80 127.36 175.39 127.50 171.93 C 126.78 172.30 126.06 172.69 125.36 173.09 C 124.92 171.42 124.44 169.75 124.08 168.06 C 124.24 167.04 124.09 166.18 123.62 165.50 C 122.91 165.22 122.24 165.54 121.63 166.45 L 121.55 165.44 C 121.49 164.18 121.45 162.92 121.44 161.66 C 121.92 160.61 121.98 159.74 121.61 159.04 L 120.04 158.91 L 118.45 159.16 C 120.28 155.12 122.42 151.21 124.10 147.10 C 125.80 142.86 125.76 138.42 126.00 133.91 C 122.64 137.15 119.57 140.53 115.63 143.10 C 115.14 141.96 114.66 140.82 114.18 139.68 C 113.36 139.53 112.55 139.37 111.74 139.22 C 112.44 137.73 113.15 136.25 113.83 134.76 C 110.79 136.10 107.81 137.57 104.83 139.02 L 105.06 137.00 C 105.48 135.32 105.00 134.92 103.62 135.81 C 102.91 136.29 102.19 136.76 101.46 137.19 L 99.63 137.07 C 98.07 134.94 97.57 134.94 95.00 134.78 C 95.00 133.81 95.00 132.84 95.00 131.87 L 93.18 132.04 C 91.92 132.18 90.68 132.33 89.44 132.51 C 89.29 131.67 89.14 130.83 89.00 129.99 C 87.71 129.69 86.42 129.40 85.13 129.10 C 85.05 128.10 84.96 127.09 84.87 126.09 C 83.72 125.65 82.57 125.22 81.42 124.80 C 81.50 123.97 81.58 123.14 81.66 122.30 C 80.24 121.88 78.81 121.45 77.39 121.03 C 78.82 117.88 75.65 117.47 73.80 115.76 C 74.49 115.31 75.18 114.86 75.87 114.41 C 74.38 113.23 72.90 112.07 71.41 110.90 C 72.31 110.42 73.21 109.94 74.12 109.46 C 72.87 107.52 71.59 105.60 70.30 103.69 L 72.98 103.33 C 68.87 98.88 65.21 94.29 63.29 88.44 C 64.82 89.04 66.35 89.63 67.88 90.23 L 67.23 89.70 C 66.99 88.92 66.75 88.14 66.52 87.36 C 65.73 84.54 64.87 81.73 64.28 78.86 C 64.72 79.28 65.16 79.71 65.59 80.14 C 67.41 84.19 70.38 87.25 73.68 90.13 C 75.21 91.96 76.26 89.49 74.05 89.21 C 72.98 87.50 71.88 85.82 70.85 84.09 C 70.13 82.73 69.45 81.35 68.76 79.98 C 67.75 77.41 67.02 74.85 66.56 72.13 C 69.93 76.52 73.17 80.75 77.59 84.17 C 78.09 84.97 79.55 86.82 80.10 85.03 C 80.02 84.02 79.27 83.46 77.85 83.34 C 76.44 81.47 74.97 79.68 73.69 77.72 L 73.39 77.22 C 72.78 76.11 72.19 74.99 71.63 73.86 L 71.22 73.12 L 70.80 72.43 C 70.56 69.57 70.26 66.71 70.04 63.84 C 72.86 67.11 74.94 71.06 78.10 73.89 C 81.13 76.55 84.53 78.77 88.33 80.16 C 83.79 74.60 78.43 71.35 77.25 63.60 C 77.22 61.63 77.26 59.68 77.37 57.71 Z" fill="#0126ff" />
<path d="M 237.26 58.28 C 237.76 58.77 237.76 58.77 237.26 58.28 Z" fill="#ffbbc2" />
<path d="M 238.27 60.27 C 238.76 60.76 238.76 60.76 238.27 60.27 Z" fill="#ffbdc7" />
<path d="M 225.32 60.63 C 226.57 62.64 231.00 66.36 227.53 68.24 C 227.12 66.68 227.02 65.23 226.11 63.87 C 225.05 64.39 224.01 64.94 222.98 65.51 C 223.81 66.33 224.63 67.17 225.42 68.03 C 223.37 70.62 223.02 67.48 222.12 65.96 C 221.05 66.73 219.98 67.49 218.90 68.25 C 220.04 69.46 221.18 70.65 222.33 71.85 C 221.67 72.07 221.00 72.30 220.34 72.52 C 218.98 70.42 217.65 68.29 216.35 66.15 C 220.00 65.20 222.61 63.13 225.32 60.63 Z" fill="#bec5f9" />
<path d="M 15.18 63.10 C 16.76 63.06 15.76 65.55 14.77 65.79 C 13.17 65.80 14.14 63.35 15.18 63.10 Z" fill="#ffd8dc" />
<path d="M 60.85 62.79 C 64.16 65.77 66.80 70.48 70.80 72.43 L 71.22 73.12 L 71.39 73.53 L 71.63 73.86 C 72.19 74.99 72.78 76.11 73.39 77.22 L 73.69 77.72 C 74.97 79.68 76.44 81.47 77.85 83.34 L 77.59 84.17 C 73.17 80.75 69.93 76.52 66.56 72.13 C 67.02 74.85 67.75 77.41 68.76 79.98 C 63.97 75.27 60.96 69.63 60.85 62.79 Z" fill="#ffffff" />
<path d="M 240.20 63.28 C 241.40 62.79 242.48 64.90 241.77 65.80 C 240.56 66.29 239.45 64.19 240.20 63.28 Z" fill="#ffd4d9" />
<path d="M 202.25 62.83 C 202.38 69.29 199.35 75.25 194.64 79.54 C 195.53 77.02 196.30 74.47 196.75 71.83 C 192.88 76.82 189.67 81.79 184.06 85.10 C 186.12 82.04 188.60 79.51 190.30 76.20 C 192.04 72.53 195.19 70.75 197.78 67.80 C 199.27 66.14 200.70 64.44 202.25 62.83 Z" fill="#ffffff" />
<path d="M 242.25 67.22 C 242.78 67.68 242.78 67.68 242.25 67.22 Z" fill="#ffbcc5" />
<path d="M 13.10 67.74 C 12.16 71.93 10.35 75.84 7.91 79.37 C 8.71 74.95 10.34 71.28 13.10 67.74 Z" fill="#ffd9dd" />
<path d="M 243.25 69.24 C 243.77 69.70 243.77 69.70 243.25 69.24 Z" fill="#ffb9c2" />
<path d="M 25.98 69.95 C 29.83 69.58 35.20 74.16 32.15 78.09 C 30.52 80.80 28.13 80.81 25.36 81.48 C 29.80 82.94 28.87 87.00 26.10 89.53 C 25.29 88.98 24.50 88.40 23.73 87.81 C 24.94 87.47 26.15 87.13 27.36 86.79 C 26.90 86.06 26.52 82.95 25.16 84.23 C 22.86 84.98 20.43 88.08 18.24 85.72 C 16.33 83.46 17.70 80.90 19.91 79.62 C 20.65 80.08 21.37 80.57 22.06 81.11 C 20.91 81.37 19.76 81.63 18.61 81.90 C 19.20 83.09 18.78 84.33 20.51 84.13 C 21.90 83.49 23.19 82.61 24.51 81.83 C 24.70 81.34 24.90 80.85 25.10 80.37 C 22.75 79.06 21.88 77.44 20.82 75.10 C 21.99 73.25 23.37 69.86 25.98 69.95 Z" fill="#c9cefb" />
<path d="M 230.97 69.16 C 231.53 70.37 232.09 71.59 232.66 72.80 C 229.22 73.31 226.47 75.07 223.57 76.84 C 224.59 78.00 225.76 78.86 227.10 79.43 L 226.21 81.47 C 229.39 80.28 232.50 79.29 235.12 77.03 C 236.09 80.04 238.66 83.66 236.75 86.68 C 235.07 88.40 232.54 89.51 230.12 88.94 C 227.82 87.98 227.11 86.03 226.17 83.91 C 224.83 80.59 223.12 77.48 221.40 74.35 C 224.13 73.68 226.68 72.69 229.04 71.14 C 229.69 70.49 230.33 69.83 230.97 69.16 Z" fill="#d3d7fb" />
<path d="M 244.26 71.27 C 244.77 71.75 244.77 71.75 244.26 71.27 Z" fill="#ffb5bd" />
<path d="M 24.29 72.01 C 26.82 71.74 29.58 72.95 31.03 75.03 C 31.56 77.30 31.03 78.06 29.02 79.02 C 26.74 78.57 24.64 77.55 23.12 75.75 C 22.39 73.85 23.13 73.37 24.29 72.01 Z" fill="#0223ff" />
<path d="M 205.78 71.65 C 204.38 76.90 202.01 81.57 198.45 85.68 C 197.44 86.76 197.24 87.67 197.11 89.10 C 201.39 86.26 204.38 82.27 208.08 78.80 C 206.68 82.68 204.71 86.32 203.08 90.12 C 204.73 89.51 206.38 88.89 208.04 88.29 C 205.17 94.43 200.54 98.71 195.59 103.13 C 196.58 103.28 197.58 103.43 198.57 103.59 C 197.07 105.45 195.52 107.27 193.97 109.09 C 194.90 109.67 195.83 110.25 196.75 110.84 C 194.92 111.94 193.09 113.05 191.28 114.19 C 192.01 114.67 192.75 115.16 193.48 115.65 C 191.77 116.67 190.07 117.71 188.37 118.75 L 189.91 120.69 C 187.51 121.74 183.59 120.99 184.38 124.81 C 183.10 125.26 181.48 125.49 180.45 126.39 C 180.21 127.27 180.01 128.17 179.84 129.07 C 177.37 129.91 175.57 129.40 175.44 132.74 C 174.79 132.63 174.14 132.53 173.50 132.42 C 174.30 129.89 175.61 129.87 177.78 128.96 C 178.10 125.73 179.50 125.84 182.04 124.58 C 181.86 123.89 181.68 123.21 181.50 122.53 C 182.44 122.20 183.38 121.88 184.32 121.56 L 185.83 121.00 C 185.92 120.18 185.77 119.34 185.36 118.49 C 186.83 117.67 188.26 116.78 189.69 115.89 C 189.03 115.33 188.36 114.78 187.69 114.23 C 189.15 113.13 190.61 112.03 192.07 110.93 C 191.13 110.37 190.18 109.81 189.23 109.26 C 190.55 107.44 191.86 105.61 193.18 103.79 C 192.21 103.64 191.23 103.50 190.25 103.36 C 194.42 98.85 197.98 94.17 199.99 88.29 C 198.78 88.86 197.56 89.43 196.35 90.00 C 196.56 86.33 197.92 83.08 198.96 79.60 C 195.03 83.63 193.01 88.17 187.88 90.93 C 189.56 88.23 191.55 85.78 193.06 82.98 C 195.57 80.70 198.55 79.28 200.82 76.82 C 202.47 75.09 203.99 73.26 205.78 71.65 Z" fill="#ffffff" />
<path d="M 57.50 71.96 C 58.31 72.65 59.10 73.37 59.87 74.10 C 61.39 75.65 62.82 77.25 64.28 78.86 C 64.87 81.73 65.73 84.54 66.52 87.36 C 61.97 83.46 58.99 77.70 57.50 71.96 Z" fill="#ededec" />
<path d="M 71.22 73.12 L 71.63 73.86 L 71.39 73.53 L 71.22 73.12 Z" fill="#736999" />
<path d="M 245.25 73.31 C 245.78 73.78 245.78 73.78 245.25 73.31 Z" fill="#ffb5bd" />
<path d="M 246.10 75.27 L 246.91 75.27 L 247.31 76.00 L 246.90 76.73 L 246.09 76.73 L 245.69 76.00 L 246.10 75.27 Z" fill="#ffc7cd" />
<path d="M 73.39 77.22 L 73.69 77.72 L 73.39 77.22 Z" fill="#978eb7" />
<path d="M 247.24 78.28 C 247.79 78.71 247.79 78.71 247.24 78.28 Z" fill="#ffb2b9" />
<path d="M 175.61 79.46 L 175.48 79.78 L 175.30 79.84 L 175.61 79.46 Z" fill="#8b7c9f" />
<path d="M 7.08 80.17 L 7.89 80.15 L 8.31 80.87 L 7.92 81.61 L 7.11 81.63 L 6.69 80.91 L 7.08 80.17 Z" fill="#ffc8cd" />
<path d="M 55.18 78.88 C 56.04 79.69 56.87 80.53 57.69 81.37 C 60.52 84.72 63.58 87.28 67.23 89.70 L 67.88 90.23 C 66.35 89.63 64.82 89.04 63.29 88.44 C 65.21 94.29 68.87 98.88 72.98 103.33 L 70.30 103.69 C 71.59 105.60 72.87 107.52 74.12 109.46 C 73.21 109.94 72.31 110.42 71.41 110.90 C 72.90 112.07 74.38 113.23 75.87 114.41 C 75.18 114.86 74.49 115.31 73.80 115.76 C 75.65 117.47 78.82 117.88 77.39 121.03 C 78.81 121.45 80.24 121.88 81.66 122.30 C 81.58 123.14 81.50 123.97 81.42 124.80 C 82.57 125.22 83.72 125.65 84.87 126.09 C 84.96 127.09 85.05 128.10 85.13 129.10 C 86.42 129.40 87.71 129.69 89.00 129.99 C 89.14 130.83 89.29 131.67 89.44 132.51 C 88.90 132.61 88.37 132.72 87.83 132.83 C 87.77 132.08 87.70 131.33 87.64 130.57 C 86.21 130.08 84.77 129.59 83.34 129.09 C 83.13 128.16 82.88 127.23 82.60 126.31 C 81.44 125.62 80.04 125.22 78.77 124.77 C 78.75 123.96 78.70 123.15 78.62 122.35 C 76.96 121.66 75.14 121.22 73.41 120.72 L 74.89 118.81 C 73.15 117.75 71.41 116.68 69.65 115.63 C 70.39 115.12 71.13 114.60 71.87 114.09 C 70.06 113.02 68.26 111.95 66.45 110.89 C 67.37 110.28 68.28 109.67 69.19 109.06 C 67.64 107.27 66.08 105.48 64.51 103.71 C 65.51 103.50 66.51 103.28 67.51 103.07 C 62.66 98.69 58.05 94.40 55.21 88.38 C 56.78 88.90 58.34 89.41 59.91 89.93 C 58.40 86.22 56.63 82.62 55.18 78.88 Z" fill="#ffffff" />
<path d="M 65.59 80.14 L 65.40 79.72 C 67.53 80.85 69.38 82.17 70.85 84.09 C 71.88 85.82 72.98 87.50 74.05 89.21 L 73.68 90.13 C 70.38 87.25 67.41 84.19 65.59 80.14 Z" fill="#e8e6e5" />
<path d="M 248.09 80.32 L 248.90 80.31 L 249.31 81.04 L 248.91 81.78 L 248.10 81.78 L 247.69 81.05 L 248.09 80.32 Z" fill="#ffc1c7" />
<path d="M 235.33 80.32 C 235.59 81.53 235.81 82.74 235.97 83.96 C 234.68 85.92 232.27 86.85 230.00 87.04 C 228.63 85.97 227.26 85.36 228.07 83.37 C 230.39 82.16 232.91 81.31 235.33 80.32 Z" fill="#021cff" />
<path d="M 6.09 83.15 L 6.89 83.14 L 7.31 83.87 L 6.91 84.60 L 6.10 84.62 L 5.69 83.89 L 6.09 83.15 Z" fill="#ffc9ce" />
<path d="M 77.85 83.34 C 79.27 83.46 80.02 84.02 80.10 85.03 C 79.55 86.82 78.09 84.97 77.59 84.17 L 77.85 83.34 Z" fill="#4a46b2" />
<path d="M 249.08 83.31 L 249.88 83.28 L 250.30 84.00 L 249.92 84.75 L 249.12 84.78 L 248.70 84.06 L 249.08 83.31 Z" fill="#ffbec4" />
<path d="M 5.08 86.19 L 5.89 86.17 L 6.30 86.90 L 5.92 87.64 L 5.11 87.66 L 4.69 86.94 L 5.08 86.19 Z" fill="#ffc2c8" />
<path d="M 250.17 86.35 C 251.71 85.90 251.71 88.99 250.17 88.56 C 249.50 87.82 249.50 87.09 250.17 86.35 Z" fill="#ffc6cb" />
<path d="M 125.47 87.07 C 127.91 86.56 130.27 86.28 132.76 86.32 C 131.12 88.66 127.06 90.46 125.47 87.07 Z" fill="#c3c5fb" />
<path d="M 4.92 88.57 C 4.83 91.49 4.33 93.77 3.08 96.41 C 3.00 93.39 3.21 91.12 4.92 88.57 Z" fill="#ffcdd1" />
<path d="M 74.05 89.21 C 76.26 89.49 75.21 91.96 73.68 90.13 L 74.05 89.21 Z" fill="#655bab" />
<path d="M 251.16 90.26 C 252.69 89.80 252.70 92.91 251.17 92.49 C 250.51 91.76 250.50 91.01 251.16 90.26 Z" fill="#ffcbd0" />
<path d="M 252.82 94.29 C 253.98 95.24 252.76 97.89 251.73 95.91 C 251.62 94.69 251.98 94.14 252.82 94.29 Z" fill="#ffc4c9" />
<path d="M 2.74 97.32 C 3.78 98.66 3.34 100.49 2.33 101.72 C 1.90 100.84 1.07 97.20 2.74 97.32 Z" fill="#ffc6cb" />
<path d="M 253.82 99.32 C 254.96 100.28 253.76 102.98 252.74 100.95 C 252.64 99.70 253.00 99.15 253.82 99.32 Z" fill="#ffbec4" />
<path d="M 1.66 102.51 C 2.10 105.54 2.09 108.27 1.63 111.29 C 0.70 107.98 0.68 105.82 1.66 102.51 Z" fill="#ffc3c9" />
<path d="M 255.00 103.52 L 255.00 112.88 C 253.59 109.06 253.70 107.33 255.00 103.52 Z" fill="#ffc3c8" />
<path d="M 91.69 106.54 C 92.74 107.09 93.77 107.76 94.79 108.38 C 94.06 109.75 93.73 110.98 93.56 112.53 C 92.93 112.13 92.30 111.74 91.67 111.34 C 90.99 111.79 90.31 112.24 89.62 112.69 C 89.64 110.93 89.37 109.93 88.46 108.48 C 89.53 107.83 90.60 107.17 91.69 106.54 Z" fill="#ffffff" />
<path d="M 171.57 106.70 C 172.74 107.23 173.82 107.93 174.94 108.52 C 174.39 109.07 173.83 109.61 173.28 110.16 C 173.48 110.93 173.69 111.70 173.90 112.46 C 171.69 111.63 171.28 111.77 169.08 112.46 C 169.35 111.76 169.62 111.06 169.89 110.35 C 169.29 109.76 168.68 109.17 168.08 108.58 C 169.25 108.00 170.37 107.19 171.57 106.70 Z" fill="#ffffff" />
<path d="M 16.03 106.87 C 16.92 108.68 17.80 110.49 18.69 112.30 C 20.57 112.54 22.45 112.79 24.33 113.04 C 23.00 114.49 21.55 115.90 20.38 117.49 C 20.42 119.33 21.04 121.20 21.41 122.98 C 19.60 122.10 17.79 121.20 15.98 120.31 C 14.19 121.25 12.39 122.19 10.58 123.10 C 11.03 121.18 11.49 119.27 11.94 117.36 C 10.51 115.97 9.09 114.56 7.70 113.12 C 10.82 112.32 13.45 113.41 14.71 109.73 C 15.15 108.78 15.59 107.83 16.03 106.87 Z" fill="#ffffff" />
<path d="M 3.89 108.32 C 5.52 111.50 4.95 114.57 5.02 118.00 C 4.92 122.37 5.54 126.33 4.04 130.56 C 3.32 123.21 3.41 115.69 3.89 108.32 Z" fill="#0001fe" />
<path d="M 131.62 109.09 C 132.53 110.87 133.40 112.67 134.29 114.45 C 136.20 114.63 138.11 114.80 140.02 114.98 C 138.67 116.42 137.30 117.83 135.91 119.23 C 136.19 121.18 136.46 123.13 136.73 125.08 C 134.87 124.20 133.01 123.31 131.15 122.44 C 129.49 123.42 127.82 124.37 126.15 125.32 C 126.49 123.30 126.85 121.28 127.18 119.25 C 125.76 117.87 124.37 116.46 123.00 115.02 C 124.87 114.82 126.74 114.63 128.62 114.43 C 129.60 112.65 130.57 110.84 131.62 109.09 Z" fill="#ffffff" />
<path d="M 240.82 112.00 C 241.75 113.62 242.52 115.36 243.27 117.07 C 245.18 117.44 247.09 117.78 249.00 118.13 C 247.64 119.54 246.27 120.93 244.87 122.31 C 245.31 124.19 245.77 126.07 246.21 127.95 C 244.39 127.06 242.58 126.14 240.79 125.19 C 239.00 126.15 237.19 127.09 235.38 128.01 C 235.79 126.10 236.22 124.19 236.68 122.29 C 235.26 120.92 233.86 119.54 232.47 118.14 C 234.33 117.78 236.27 117.56 238.08 116.98 C 239.15 115.44 239.91 113.65 240.82 112.00 Z" fill="#ffffff" />
<path d="M 0.00 115.05 C 1.97 117.64 2.19 119.40 0.00 121.95 L 0.00 115.05 Z" fill="#ffc9cc" />
<path d="M 156.42 117.08 C 157.06 118.26 157.67 119.45 158.29 120.64 C 159.55 120.75 160.80 120.86 162.06 120.98 C 161.16 122.03 160.26 123.07 159.35 124.11 C 159.52 125.42 159.68 126.73 159.84 128.05 C 158.61 127.45 157.38 126.85 156.16 126.24 C 155.02 126.90 153.88 127.56 152.74 128.22 C 152.88 126.96 153.12 125.69 153.13 124.42 C 152.56 123.22 151.52 122.20 150.73 121.14 C 151.94 120.93 153.15 120.70 154.35 120.45 C 155.06 119.34 155.72 118.20 156.42 117.08 Z" fill="#ffffff" />
<path d="M 106.92 116.88 C 107.51 118.03 108.14 119.16 108.82 120.25 C 110.07 120.76 111.42 121.02 112.72 121.37 C 111.77 122.31 110.83 123.25 109.88 124.19 C 110.10 125.48 110.31 126.78 110.53 128.08 C 109.31 127.49 108.10 126.90 106.89 126.31 C 105.63 126.94 104.37 127.57 103.11 128.19 C 103.37 126.92 103.62 125.64 103.88 124.36 C 102.95 123.27 102.02 122.16 101.10 121.05 C 102.30 120.91 103.51 120.76 104.71 120.59 C 105.50 119.37 106.20 118.13 106.92 116.88 Z" fill="#ffffff" />
<path d="M 185.36 118.49 C 185.77 119.34 185.92 120.18 185.83 121.00 L 184.32 121.56 C 182.65 120.15 183.91 119.19 185.36 118.49 Z" fill="#0001f9" />
<path d="M 255.00 124.53 L 255.00 134.51 C 253.84 130.76 253.41 128.26 255.00 124.53 Z" fill="#ffc7cc" />
<path d="M 0.96 127.10 L 2.03 127.12 C 2.10 129.86 2.01 132.55 1.42 135.24 C 1.05 132.53 0.95 129.82 0.96 127.10 Z" fill="#ffc3c8" />
<path d="M 93.18 132.04 L 95.00 131.87 C 95.00 132.84 95.00 133.81 95.00 134.78 C 97.57 134.94 98.07 134.94 99.63 137.07 L 101.46 137.19 C 100.53 137.75 99.60 138.30 98.67 138.84 C 98.13 137.87 97.56 136.93 96.95 136.01 C 95.70 135.83 94.44 135.70 93.18 135.62 C 93.18 134.43 93.18 133.24 93.18 132.04 Z" fill="#7c779d" />
<path d="M 168.28 131.91 L 170.10 132.06 C 170.02 133.35 169.95 134.63 169.87 135.91 C 168.45 135.75 167.03 135.56 165.60 135.42 L 167.81 134.96 C 167.98 133.95 168.13 132.93 168.28 131.91 Z" fill="#8684a6" />
<path d="M 105.06 137.00 L 103.62 135.81 C 105.00 134.92 105.48 135.32 105.06 137.00 Z" fill="#4c4568" />
<path d="M 165.28 135.49 L 165.36 135.94 C 165.55 136.92 165.40 137.76 164.93 138.45 L 163.46 137.80 C 163.75 136.43 164.36 135.66 165.28 135.49 Z" fill="#747cd6" />
<path d="M 253.76 135.46 C 254.51 136.03 254.57 138.92 253.24 138.61 C 252.49 138.04 252.45 135.17 253.76 135.46 Z" fill="#ffc6ca" />
<path d="M 2.43 135.57 C 3.27 138.86 4.03 142.06 3.64 145.47 C 2.50 142.20 1.61 139.05 2.43 135.57 Z" fill="#ffcbcf" />
<path d="M 162.29 137.30 L 162.86 137.55 L 162.55 137.44 L 162.29 137.30 Z" fill="#786f8b" />
<path d="M 252.17 141.32 C 253.68 140.87 253.68 144.02 252.17 143.57 C 251.52 142.82 251.52 142.07 252.17 141.32 Z" fill="#ffc3c8" />
<path d="M 23.15 143.77 C 26.13 145.17 26.73 147.84 27.30 150.80 C 26.28 151.17 25.26 151.54 24.24 151.92 C 25.17 149.27 25.69 148.32 24.03 145.76 C 21.42 146.27 19.03 146.14 17.17 148.33 C 16.47 150.41 18.33 152.90 18.95 154.89 C 16.57 153.44 15.50 151.77 15.02 149.02 C 15.50 145.40 19.67 142.57 23.15 143.77 Z" fill="#bcc3fa" />
<path d="M 233.10 143.03 C 232.63 144.64 230.90 145.78 229.91 147.11 C 231.63 150.59 236.23 152.54 239.03 149.01 C 239.04 147.74 239.06 146.48 239.08 145.21 C 239.71 145.54 240.35 145.87 240.98 146.21 C 240.41 147.99 240.01 150.29 238.73 151.70 C 235.74 155.02 228.76 152.68 228.94 148.00 C 229.19 145.60 229.86 142.15 233.10 143.03 Z" fill="#bcc3f9" />
<path d="M 251.17 145.44 C 252.70 144.97 252.70 148.08 251.17 147.66 C 250.51 146.93 250.50 146.19 251.17 145.44 Z" fill="#ffc5ca" />
<path d="M 4.16 146.33 C 5.71 145.89 5.71 148.97 4.17 148.55 C 3.50 147.81 3.49 147.08 4.16 146.33 Z" fill="#ffc6cb" />
<path d="M 79.80 149.18 C 79.85 151.53 79.90 153.88 79.97 156.24 C 78.31 156.25 76.66 156.25 75.00 156.26 C 74.98 154.87 74.95 153.49 74.92 152.10 C 72.55 152.15 69.72 151.70 67.49 152.55 C 65.35 153.54 64.83 155.79 66.48 157.57 C 69.90 160.02 75.54 160.38 78.53 163.45 C 82.12 167.27 80.98 174.02 75.89 175.91 C 71.07 177.58 65.02 176.61 60.12 175.59 C 60.08 173.21 60.08 170.84 60.08 168.46 C 61.63 168.49 63.18 168.51 64.73 168.54 C 64.68 169.81 64.63 171.08 64.59 172.36 C 67.34 172.49 70.52 173.04 73.17 172.24 C 75.62 171.44 76.21 168.31 74.28 166.69 C 71.01 164.19 65.11 163.98 62.17 160.80 C 59.06 157.22 60.07 151.51 64.22 149.23 C 69.39 146.77 74.50 147.95 79.80 149.18 Z" fill="#ffffff" />
<path d="M 95.49 148.57 C 97.90 147.91 100.55 147.96 103.03 148.07 C 108.56 148.34 113.46 152.89 114.77 158.17 C 115.74 163.00 115.25 168.14 111.95 172.01 C 106.44 178.43 95.39 178.63 89.70 172.31 C 83.31 164.92 85.71 151.71 95.49 148.57 Z" fill="#ffffff" />
<path d="M 154.49 148.55 C 158.80 147.47 163.90 147.83 168.15 149.08 C 169.03 151.15 168.45 154.01 168.61 156.26 C 167.00 156.26 165.38 156.26 163.77 156.25 C 163.77 154.88 163.77 153.50 163.77 152.13 C 161.29 152.16 158.13 151.60 155.86 152.76 C 153.97 153.74 153.68 156.25 155.38 157.62 C 158.69 159.94 163.76 160.37 166.93 163.08 C 170.64 166.31 170.05 173.31 165.48 175.49 C 160.35 178.05 154.02 176.63 148.71 175.42 C 148.73 173.14 148.74 170.86 148.73 168.58 C 150.38 168.54 152.03 168.51 153.67 168.49 C 153.61 169.80 153.55 171.10 153.49 172.41 C 155.93 172.56 158.45 172.77 160.89 172.53 C 162.69 172.08 164.42 171.12 164.32 168.99 C 164.13 166.58 161.13 165.47 159.18 164.82 C 155.97 163.62 151.34 162.60 149.82 159.14 C 147.92 154.88 150.02 149.98 154.49 148.55 Z" fill="#ffffff" />
<path d="M 176.83 148.24 C 184.48 148.30 192.14 148.22 199.79 148.29 C 199.76 151.14 199.76 153.98 199.78 156.82 C 198.05 156.82 196.32 156.81 194.60 156.79 C 194.64 155.40 194.68 154.00 194.72 152.60 C 191.81 152.60 188.90 152.60 185.99 152.62 C 186.05 155.38 186.06 158.13 186.05 160.89 C 189.31 160.90 192.56 160.89 195.81 160.86 C 195.80 162.27 195.79 163.68 195.78 165.09 C 192.53 165.06 189.29 165.06 186.04 165.07 C 186.05 167.44 186.04 169.81 186.02 172.18 C 187.34 172.19 188.66 172.21 189.98 172.23 C 190.03 173.64 190.07 175.05 190.10 176.46 C 185.65 176.53 181.20 176.51 176.75 176.49 C 176.74 175.08 176.73 173.66 176.71 172.25 C 178.00 172.23 179.29 172.20 180.58 172.18 C 180.44 165.67 180.43 159.16 180.52 152.64 C 179.24 152.52 177.95 152.40 176.67 152.27 C 176.72 150.93 176.78 149.58 176.83 148.24 Z" fill="#ffffff" />
<path d="M 250.98 148.52 C 250.47 152.78 249.66 156.90 247.04 160.40 C 247.87 156.25 248.88 152.24 250.98 148.52 Z" fill="#ffd5d8" />
<path d="M 5.08 150.20 L 5.89 150.18 L 6.31 150.91 L 5.92 151.64 L 5.11 151.66 L 4.69 150.94 L 5.08 150.20 Z" fill="#ffc3c8" />
<path d="M 97.51 152.71 C 100.19 151.91 103.84 151.98 106.05 153.91 C 111.64 157.99 111.18 168.82 104.58 171.67 C 100.35 173.87 94.50 171.92 92.63 167.48 C 90.27 162.40 91.64 154.68 97.51 152.71 Z" fill="#000000" />
<path d="M 6.08 153.27 L 6.89 153.24 L 7.30 153.96 L 6.92 154.71 L 6.11 154.73 L 5.69 154.01 L 6.08 153.27 Z" fill="#ffc3c9" />
<path d="M 28.69 154.15 L 29.53 155.60 C 28.32 158.05 24.53 159.01 22.22 160.20 C 21.63 160.84 21.04 161.47 20.45 162.10 C 19.73 160.58 18.99 159.07 18.26 157.55 C 19.11 157.85 19.95 158.16 20.80 158.46 C 23.48 157.11 26.02 155.50 28.69 154.15 Z" fill="#c6cbfb" />
<path d="M 6.92 155.72 C 9.28 158.09 10.27 162.26 11.08 165.45 C 8.62 162.67 7.59 159.29 6.92 155.72 Z" fill="#ffd5d9" />
<path d="M 225.63 156.12 C 227.85 158.35 230.60 159.49 233.40 160.78 C 234.14 160.52 234.88 160.25 235.62 159.98 C 234.99 161.36 234.36 162.73 233.74 164.11 C 230.77 161.85 227.72 160.04 223.88 159.90 C 224.47 158.65 225.05 157.38 225.63 156.12 Z" fill="#d9ddfb" />
<path d="M 30.80 157.57 L 30.84 160.80 C 29.53 163.02 27.76 162.23 25.67 162.06 C 24.83 163.79 24.02 165.53 23.19 167.27 C 20.43 164.30 23.38 162.22 24.63 159.41 C 25.59 159.79 26.55 160.12 27.53 160.40 C 28.69 159.54 29.72 158.52 30.80 157.57 Z" fill="#d8dcfa" />
<path d="M 120.04 158.91 L 121.61 159.04 C 121.98 159.74 121.92 160.61 121.44 161.66 L 119.52 161.61 C 118.49 161.07 118.67 160.17 120.04 158.91 Z" fill="#b0adbb" />
<path d="M 141.29 158.60 L 143.34 159.09 C 143.68 159.64 144.01 160.19 144.33 160.75 C 141.01 162.68 141.57 165.63 140.81 168.90 C 140.15 168.56 139.48 168.22 138.81 167.88 C 138.81 166.40 139.61 165.58 141.20 165.43 C 141.38 163.15 141.37 160.88 141.29 158.60 Z" fill="#7a7ebd" />
<path d="M 246.23 161.33 C 246.79 161.76 246.79 161.76 246.23 161.33 Z" fill="#ffb5bc" />
<path d="M 246.10 162.71 C 245.14 166.99 243.26 171.42 240.07 174.51 C 241.58 170.33 243.35 166.25 246.10 162.71 Z" fill="#ffdbdf" />
<path d="M 221.64 164.38 C 222.42 164.84 223.15 165.37 223.90 165.85 C 222.89 166.31 221.88 166.78 220.88 167.27 C 221.59 169.58 225.32 170.65 227.19 172.03 C 228.05 171.85 228.90 171.66 229.76 171.47 C 228.90 173.00 228.05 174.55 227.08 176.01 C 224.62 173.15 222.31 171.68 218.84 170.24 C 218.87 171.66 218.91 173.08 218.95 174.49 C 218.24 174.00 217.56 173.47 216.92 172.91 C 217.34 169.97 219.96 166.84 221.64 164.38 Z" fill="#b1b8fa" />
<path d="M 123.62 165.50 C 124.09 166.18 124.24 167.04 124.08 168.06 L 122.28 168.24 L 121.63 166.45 C 122.24 165.54 122.91 165.22 123.62 165.50 Z" fill="#bcbeee" />
<path d="M 11.25 166.25 C 11.78 166.70 11.78 166.70 11.25 166.25 Z" fill="#ffb8bf" />
<path d="M 32.99 165.94 C 35.41 166.33 36.63 169.12 37.89 170.92 C 36.87 173.71 35.85 175.85 32.84 176.83 C 29.55 177.97 27.34 175.63 26.08 172.89 C 25.06 168.99 29.40 165.52 32.99 165.94 Z" fill="#d8dcfb" />
<path d="M 12.26 168.27 C 12.77 168.76 12.77 168.76 12.26 168.27 Z" fill="#ffb8bf" />
<path d="M 34.89 167.76 C 35.32 168.82 35.71 169.89 36.05 170.98 C 34.92 173.07 32.47 175.03 30.02 175.03 C 28.69 175.45 26.97 173.15 27.59 172.01 C 28.93 168.87 31.75 168.06 34.89 167.76 Z" fill="#0226ff" />
<path d="M 13.26 170.28 C 13.77 170.76 13.77 170.76 13.26 170.28 Z" fill="#ffb7c0" />
<path d="M 13.91 171.70 C 16.92 174.35 18.45 177.79 20.01 181.40 C 16.98 178.82 15.21 175.39 13.91 171.70 Z" fill="#ffdde0" />
<path d="M 127.50 171.93 C 127.36 175.39 127.36 178.80 128.27 182.17 C 129.42 181.09 130.57 180.02 131.74 178.97 C 132.91 179.99 134.08 181.00 135.27 182.01 C 135.21 183.06 135.16 184.10 135.10 185.15 C 133.97 184.20 132.86 183.24 131.75 182.29 C 130.59 183.21 129.45 184.15 128.29 185.08 C 127.28 181.19 128.27 177.04 125.62 174.14 L 125.36 173.09 C 126.06 172.69 126.78 172.30 127.50 171.93 Z" fill="#ffffff" />
<path d="M 135.37 171.71 C 136.32 172.11 137.25 172.54 138.18 173.01 C 138.07 174.05 137.95 175.09 137.83 176.13 C 137.03 175.72 136.23 175.31 135.44 174.89 C 135.41 173.83 135.39 172.77 135.37 171.71 Z" fill="#a5a0bb" />
<path d="M 214.57 175.52 C 215.71 175.84 216.34 176.73 217.22 177.49 C 216.08 177.44 214.94 177.38 213.81 177.32 C 213.41 178.84 213.06 180.37 212.71 181.90 C 214.56 183.35 216.40 184.52 218.64 185.31 C 220.09 183.47 221.16 181.65 223.29 180.51 C 222.31 183.36 220.97 185.86 217.99 186.99 C 214.59 187.46 213.00 185.34 210.91 183.14 C 210.95 181.82 210.98 180.49 211.00 179.16 C 212.14 177.91 213.27 176.62 214.57 175.52 Z" fill="#b9c0f9" />
<path d="M 239.26 175.26 C 239.77 175.75 239.77 175.75 239.26 175.26 Z" fill="#ffb4bd" />
<path d="M 41.82 176.83 C 43.03 178.17 44.16 179.57 45.30 180.97 C 44.39 181.58 43.48 182.19 42.57 182.80 C 42.36 180.98 43.98 178.72 41.04 178.96 C 39.08 180.12 40.89 182.53 41.04 184.24 C 39.88 185.48 39.03 187.31 37.03 187.00 C 35.01 186.85 33.55 183.89 32.58 182.36 C 33.39 181.92 34.19 181.48 34.99 181.05 C 35.06 182.22 35.17 183.39 35.32 184.55 C 36.20 184.81 37.08 185.05 37.98 185.26 C 37.99 183.19 37.88 181.08 38.08 179.02 C 38.64 177.12 40.18 177.16 41.82 176.83 Z" fill="#c2c8fa" />
<path d="M 236.15 180.04 C 237.97 180.19 236.60 182.75 235.26 181.91 C 234.85 181.07 235.15 180.45 236.15 180.04 Z" fill="#ffd3d8" />
<path d="M 21.27 183.26 C 21.76 183.76 21.76 183.76 21.27 183.26 Z" fill="#ffb8c0" />
<path d="M 82.51 183.30 C 84.22 184.51 88.11 185.57 88.18 187.98 C 86.25 188.86 85.86 186.73 84.65 185.69 C 83.96 186.72 83.27 187.76 82.59 188.80 L 85.57 189.19 L 84.66 191.14 C 83.67 190.55 82.69 189.95 81.71 189.34 C 81.41 190.76 81.20 192.17 81.12 193.63 C 79.94 192.97 78.76 192.33 77.57 191.68 C 79.80 189.07 81.43 186.59 82.51 183.30 Z" fill="#b0afaa" />
<path d="M 176.63 183.40 C 177.29 184.04 177.92 184.72 178.53 185.42 C 177.23 185.44 176.08 185.17 174.92 185.89 C 176.24 188.51 177.89 190.83 179.93 192.93 C 178.83 193.61 177.74 194.30 176.65 195.00 C 176.60 191.66 174.51 189.71 172.88 187.01 C 172.22 188.05 171.56 189.10 170.90 190.15 C 169.87 189.95 168.84 189.74 167.81 189.52 C 167.18 190.32 166.58 191.14 166.01 191.99 C 166.47 193.84 167.42 195.89 169.06 196.98 C 170.93 196.97 172.77 195.54 174.50 194.90 C 173.40 197.41 170.68 199.04 167.95 198.33 C 165.81 197.87 164.75 195.71 164.06 193.84 C 163.57 191.80 165.12 189.75 166.98 189.02 C 170.49 187.46 173.54 185.70 176.63 183.40 Z" fill="#b5b4b0" />
<path d="M 234.14 183.03 C 235.97 183.20 234.59 185.72 233.24 184.88 C 232.84 184.04 233.13 183.43 234.14 183.03 Z" fill="#ffd3d8" />
<path d="M 23.16 186.23 C 24.51 185.37 25.92 187.86 24.07 188.05 C 23.06 187.67 22.76 187.06 23.16 186.23 Z" fill="#ffd3d8" />
<path d="M 49.52 186.43 C 51.00 187.23 52.16 188.43 53.07 189.82 C 52.56 190.52 52.04 191.21 51.50 191.88 C 50.99 189.58 51.19 188.42 48.74 187.38 C 48.44 189.91 48.92 192.36 48.93 194.89 C 48.08 196.13 46.70 196.42 45.40 197.04 C 44.17 195.90 42.74 194.79 41.77 193.40 C 41.22 192.24 43.13 191.55 43.74 190.79 C 43.56 191.78 43.37 192.77 43.18 193.75 C 43.77 194.29 44.37 194.82 44.96 195.35 C 45.65 194.92 46.33 194.49 47.02 194.06 C 46.64 192.17 46.17 190.16 46.21 188.23 C 47.04 187.19 48.07 186.15 49.52 186.43 Z" fill="#ffffff" />
<path d="M 231.15 187.02 C 233.00 187.22 231.58 189.71 230.24 188.84 C 229.84 188.01 230.14 187.40 231.15 187.02 Z" fill="#ffd3d8" />
<path d="M 203.37 187.28 C 204.50 187.62 205.62 187.97 206.74 188.34 C 209.68 189.39 212.59 190.40 215.70 190.83 C 214.81 191.88 213.92 192.93 213.03 193.97 C 211.90 193.01 210.96 192.31 209.46 192.04 C 208.23 191.49 207.02 190.91 205.82 190.32 C 206.92 192.68 207.96 195.14 209.41 197.31 C 208.76 198.02 208.10 198.72 207.45 199.43 C 206.63 196.45 205.48 193.59 204.40 190.70 C 204.04 189.57 203.70 188.43 203.37 187.28 Z" fill="#b8bffa" />
<path d="M 92.23 188.58 C 92.24 191.83 92.10 195.08 91.93 198.33 C 92.77 198.87 93.61 199.41 94.46 199.94 C 96.04 197.31 97.19 194.67 97.44 191.57 C 98.52 191.97 99.60 192.35 100.68 192.73 C 98.46 195.21 96.91 198.30 97.28 201.71 C 94.72 200.38 92.14 199.26 89.42 198.30 C 89.61 197.09 89.79 195.88 89.96 194.67 C 88.85 194.43 87.75 194.16 86.66 193.85 C 86.07 194.61 85.49 195.36 84.91 196.12 C 84.37 195.75 83.83 195.38 83.29 195.01 C 86.42 193.06 89.18 190.63 92.23 188.58 Z" fill="#ffffff" />
<path d="M 35.25 193.77 C 37.44 196.21 40.07 198.30 42.11 200.87 C 42.28 201.50 42.37 202.16 42.38 202.85 C 38.07 199.04 33.94 194.95 30.26 190.52 C 32.69 190.52 33.64 192.27 35.25 193.77 Z" fill="#0006fe" />
<path d="M 27.19 191.29 C 28.24 190.66 30.33 192.76 29.69 193.82 C 28.52 194.45 26.55 192.47 27.19 191.29 Z" fill="#ffd6dc" />
<path d="M 88.83 192.32 L 89.69 192.28 L 90.12 192.99 L 89.70 193.74 L 88.83 193.78 L 88.40 193.07 L 88.83 192.32 Z" fill="#000000" />
<path d="M 227.34 192.24 C 229.22 192.71 225.59 196.58 224.34 195.77 C 224.00 194.39 226.11 192.52 227.34 192.24 Z" fill="#ffd8dc" />
<path d="M 56.83 193.27 C 59.01 194.73 61.15 196.30 63.02 198.14 C 62.71 198.86 62.32 199.54 61.85 200.18 C 61.23 199.07 60.57 197.98 59.88 196.91 C 57.91 196.95 57.69 198.65 56.64 199.96 C 57.76 200.15 58.89 200.34 60.02 200.51 C 59.60 201.30 59.17 202.09 58.73 202.88 C 57.85 201.89 56.97 200.90 56.08 199.92 C 55.11 201.48 54.46 202.88 54.07 204.69 C 52.97 203.82 51.87 202.96 50.76 202.10 C 53.04 200.19 55.06 198.05 56.67 195.55 C 56.72 194.79 56.78 194.03 56.83 193.27 Z" fill="#bac1fa" />
<path d="M 102.03 193.29 L 104.38 194.08 C 104.68 197.15 103.06 200.34 102.89 203.46 C 101.79 203.23 100.68 203.00 99.57 202.77 C 101.07 200.43 101.92 198.34 102.49 195.61 C 102.34 194.83 102.19 194.06 102.03 193.29 Z" fill="#c9c8c5" />
<path d="M 105.42 193.78 C 106.80 194.82 108.16 195.88 109.49 196.98 C 108.40 198.19 107.28 199.39 106.14 200.56 C 106.96 202.04 107.63 203.48 108.93 204.64 C 110.51 202.09 111.33 198.63 110.29 195.72 C 112.46 196.18 114.69 196.50 116.82 197.13 L 117.23 199.46 C 116.02 198.72 114.82 197.97 113.63 197.20 C 113.30 198.36 112.97 199.52 112.64 200.67 C 113.87 200.63 115.11 200.58 116.35 200.54 C 115.95 201.26 115.52 201.96 115.06 202.64 C 114.19 202.23 113.33 201.81 112.48 201.36 C 112.02 203.08 112.34 204.51 112.76 206.18 C 110.23 205.57 107.71 204.93 105.23 204.12 C 104.81 202.56 104.37 201.01 103.91 199.47 C 104.80 198.78 105.68 198.09 106.54 197.36 C 106.15 196.17 105.78 194.98 105.42 193.78 Z" fill="#b5b4b1" />
<path d="M 195.35 194.77 L 198.72 195.29 C 200.14 196.28 199.97 198.23 200.39 199.79 C 202.25 200.00 204.11 200.20 205.98 200.39 C 205.04 201.23 204.09 202.06 203.15 202.89 C 201.43 202.23 199.71 201.58 198.00 200.90 C 198.17 198.18 196.77 196.83 195.35 194.77 Z" fill="#d2d7fb" />
<path d="M 149.26 198.77 C 151.13 201.83 149.66 205.37 146.16 206.07 C 142.29 206.67 138.37 207.06 134.49 207.62 C 135.27 204.62 135.00 201.98 134.30 199.00 C 132.51 199.51 131.32 199.70 129.49 199.09 L 127.88 201.44 C 129.13 201.62 130.39 201.75 131.65 201.86 C 131.75 202.36 131.84 202.86 131.93 203.37 C 130.66 203.35 129.46 203.19 128.23 203.62 C 128.23 208.20 130.49 206.35 133.16 205.59 C 132.96 206.18 132.74 206.76 132.49 207.33 C 130.42 207.58 128.29 207.49 126.20 207.55 C 126.97 204.17 127.00 201.45 126.14 198.08 C 128.44 198.24 130.73 198.36 133.01 198.67 C 134.61 198.33 136.22 198.01 137.83 197.69 C 137.35 198.09 136.87 198.48 136.38 198.87 C 136.62 201.24 136.81 203.65 137.25 206.00 C 139.70 206.86 139.17 206.39 140.50 204.62 C 141.15 205.17 141.80 205.71 142.45 206.26 C 142.12 203.20 141.53 200.46 140.35 197.63 C 143.34 197.19 147.34 195.29 149.26 198.77 Z" fill="#ffffff" />
<path d="M 119.58 197.60 C 120.72 197.63 121.86 197.75 122.99 197.83 C 121.93 201.01 121.37 204.23 122.62 207.46 C 121.34 207.29 120.07 207.13 118.79 206.98 C 120.29 203.80 120.02 200.96 119.58 197.60 Z" fill="#cac9c5" />
<path d="M 193.71 196.71 C 196.08 199.45 198.11 202.60 201.01 204.65 C 200.08 205.43 199.15 206.23 198.17 206.96 C 196.49 203.61 194.70 200.84 191.39 198.89 C 192.16 198.17 192.94 197.44 193.71 196.71 Z" fill="#cbd1fa" />
<path d="M 143.06 197.45 C 144.35 197.70 145.64 197.96 146.92 198.25 C 147.76 200.02 147.93 201.87 148.15 203.79 C 146.99 204.47 145.82 205.16 144.65 205.83 C 143.88 203.06 143.36 200.32 143.06 197.45 Z" fill="#000000" />
<path d="M 188.69 201.47 C 189.51 202.30 190.31 203.11 190.95 204.11 C 191.39 206.11 189.55 207.31 188.60 208.84 C 188.57 207.62 188.52 206.41 188.44 205.20 C 187.61 204.02 186.46 203.05 185.46 202.02 C 186.53 201.82 187.61 201.64 188.69 201.47 Z" fill="#bec5fb" />
<path d="M 68.48 201.88 C 69.63 202.63 70.78 203.37 71.94 204.11 C 69.18 205.86 67.94 208.52 66.31 211.21 C 66.45 211.90 66.60 212.60 66.74 213.29 C 65.37 212.55 64.01 211.79 62.65 211.05 C 65.58 208.53 67.27 205.50 68.48 201.88 Z" fill="#c7ccfa" />
<path d="M 153.01 202.03 L 154.93 201.88 C 156.98 203.58 155.87 204.93 154.46 206.48 C 153.93 205.01 153.41 203.54 153.01 202.03 Z" fill="#a8a6a0" />
<path d="M 216.34 203.24 C 218.22 203.71 214.59 207.59 213.34 206.77 C 212.99 205.39 215.10 203.53 216.34 203.24 Z" fill="#ffd9db" />
<path d="M 40.21 204.33 C 41.28 203.75 44.27 206.70 43.68 207.77 C 42.35 208.34 39.66 205.67 40.21 204.33 Z" fill="#ffd8db" />
<path d="M 184.37 203.20 C 186.46 205.99 188.02 209.72 190.90 211.71 C 189.80 212.49 188.70 213.28 187.62 214.08 C 186.84 210.26 184.74 207.53 181.98 204.92 C 182.76 204.33 183.56 203.76 184.37 203.20 Z" fill="#d5d9fb" />
<path d="M 76.95 207.15 C 79.75 208.12 82.51 209.57 85.02 211.15 L 84.83 212.87 C 83.34 213.34 82.85 211.43 81.80 210.62 C 79.74 213.05 78.22 216.25 78.17 219.49 C 76.92 218.92 75.66 218.37 74.40 217.82 C 76.74 215.14 78.13 212.02 79.31 208.70 C 77.82 208.97 76.32 209.21 74.82 209.47 C 75.37 208.88 76.01 206.72 76.95 207.15 Z" fill="#cbd0fa" />
<path d="M 174.43 208.41 C 179.19 206.11 183.73 211.58 182.07 215.96 C 180.43 219.52 175.22 220.54 172.81 217.18 C 170.37 214.05 170.79 210.33 174.43 208.41 Z" fill="#c6cbfa" />
<path d="M 210.36 208.17 C 212.28 208.51 209.47 211.66 208.29 210.81 C 207.78 209.71 209.34 208.31 210.36 208.17 Z" fill="#ffd7d9" />
<path d="M 45.62 208.97 C 50.07 211.61 54.84 214.41 58.44 218.17 C 53.86 216.03 48.68 213.06 45.62 208.97 Z" fill="#ffdbdd" />
<path d="M 175.97 208.62 C 179.46 211.57 180.01 212.49 180.20 217.12 C 179.11 217.38 178.01 217.61 176.91 217.82 C 174.96 216.56 173.85 214.33 173.42 212.12 C 173.50 210.75 175.19 209.63 175.97 208.62 Z" fill="#0122ff" />
<path d="M 205.14 212.02 C 207.01 212.22 205.54 214.69 204.20 213.83 C 203.81 213.00 204.12 212.40 205.14 212.02 Z" fill="#ffd4d5" />
<path d="M 165.88 213.05 C 166.71 213.92 167.41 214.86 168.14 215.81 C 167.69 216.75 167.23 217.68 166.78 218.62 C 168.55 219.72 170.30 220.84 172.02 222.00 C 168.68 223.21 167.45 221.65 164.81 220.08 C 164.89 218.39 165.08 216.79 164.94 215.15 C 163.94 214.93 162.94 214.73 161.93 214.56 C 162.63 216.26 163.33 217.96 164.00 219.67 C 164.56 221.11 165.23 222.48 165.93 223.85 C 164.83 224.28 163.72 224.71 162.62 225.15 C 162.45 221.31 161.06 218.15 159.07 214.95 C 161.17 214.22 163.62 212.83 165.88 213.05 Z" fill="#c9cefb" />
<path d="M 202.17 214.03 C 204.07 214.24 202.54 216.67 201.21 215.83 C 200.82 215.01 201.14 214.41 202.17 214.03 Z" fill="#ffd3d5" />
<path d="M 153.88 216.27 C 153.61 217.06 153.34 217.84 153.06 218.62 C 153.75 221.46 154.54 224.20 155.87 226.81 C 154.57 227.08 153.28 227.36 151.98 227.64 C 152.20 226.85 152.42 226.06 152.64 225.27 C 152.03 223.18 151.47 221.08 150.97 218.96 C 150.42 218.53 149.86 218.10 149.31 217.67 C 150.83 217.20 152.36 216.74 153.88 216.27 Z" fill="#ffffff" />
<path d="M 199.39 216.22 C 201.64 216.85 196.24 220.28 196.16 218.29 C 196.65 217.09 198.13 216.29 199.39 216.22 Z" fill="#ffd6d8" />
<path d="M 108.50 217.51 C 109.77 218.30 111.32 218.90 110.95 220.68 C 109.97 221.59 108.91 222.39 107.85 223.21 C 108.52 224.26 109.19 225.32 109.87 226.37 C 109.95 225.27 110.01 224.17 110.08 223.07 C 111.13 223.17 112.18 223.27 113.22 223.37 C 112.18 224.62 111.07 225.87 110.14 227.20 C 110.67 228.09 111.21 228.97 111.78 229.84 C 110.38 229.34 108.98 228.84 107.59 228.34 C 106.83 225.63 105.45 223.04 104.93 220.28 C 104.48 218.59 107.05 217.04 108.50 217.51 Z" fill="#d2d6fb" />
<path d="M 58.59 218.09 C 61.94 219.11 64.90 220.60 67.46 223.04 C 64.09 221.94 60.92 220.95 58.59 218.09 Z" fill="#ffdada" />
<path d="M 141.32 218.89 C 142.46 218.66 143.60 218.45 144.74 218.26 C 144.33 221.98 144.09 225.50 146.41 228.69 C 144.97 228.96 143.54 229.24 142.10 229.53 C 142.79 227.75 142.86 226.16 142.80 224.27 C 141.26 224.45 139.72 224.63 138.18 224.82 C 138.68 226.44 139.21 228.04 139.76 229.65 C 138.61 229.74 137.47 229.84 136.32 229.95 C 136.42 226.24 136.67 222.86 134.52 219.64 C 135.91 219.46 137.30 219.26 138.68 219.06 C 138.34 220.52 138.03 221.98 137.72 223.45 C 139.32 223.39 140.92 223.33 142.51 223.26 C 142.11 221.81 141.67 220.36 141.32 218.89 Z" fill="#ffffff" />
<path d="M 107.28 219.19 C 109.17 217.86 109.92 220.80 107.95 221.23 C 106.88 220.97 106.66 220.29 107.28 219.19 Z" fill="#1127fa" />
<path d="M 132.22 222.59 C 131.14 221.87 130.06 221.14 128.99 220.40 C 128.03 220.66 127.07 220.93 126.12 221.20 C 125.20 224.55 125.20 226.03 126.88 229.11 C 128.58 228.99 130.28 228.82 131.98 228.81 C 133.04 230.55 129.12 230.72 128.10 230.77 C 123.02 230.16 121.03 224.12 124.59 220.59 C 126.91 218.60 132.79 218.14 132.22 222.59 Z" fill="#c0c6fa" />
<path d="M 195.48 219.06 C 194.40 220.17 193.29 221.19 191.89 221.89 C 180.70 227.63 169.00 232.21 156.64 234.67 C 155.27 234.95 153.93 234.78 152.55 234.59 C 161.42 232.26 170.28 230.37 178.74 226.68 C 184.49 224.50 189.71 221.15 195.48 219.06 Z" fill="#ffd8d9" />
<path d="M 68.24 223.30 C 68.80 223.72 68.80 223.72 68.24 223.30 Z" fill="#ffbcbd" />
<path d="M 102.62 222.30 C 103.34 222.70 104.05 223.11 104.77 223.52 C 103.38 225.67 106.38 227.29 107.29 229.05 C 104.99 228.38 103.42 227.70 101.85 225.93 C 102.08 224.71 102.34 223.50 102.62 222.30 Z" fill="#b8c0f9" />
<path d="M 69.63 223.90 C 72.32 224.32 74.29 225.43 76.39 227.10 C 73.67 226.63 71.51 226.04 69.63 223.90 Z" fill="#ffd5d6" />
<path d="M 77.22 227.30 C 77.78 227.73 77.78 227.73 77.22 227.30 Z" fill="#ffbbbc" />
<path d="M 79.29 228.11 L 80.01 227.69 L 80.75 228.08 L 80.77 228.89 L 80.04 229.31 L 79.30 228.92 L 79.29 228.11 Z" fill="#ffc6c7" />
<path d="M 81.53 229.01 C 85.83 229.64 89.64 231.26 93.86 232.26 C 97.06 233.02 100.26 233.70 103.35 234.87 C 98.55 235.05 94.36 233.50 89.80 232.35 C 86.80 231.46 83.97 231.10 81.53 229.01 Z" fill="#ffd4d6" />
<path d="M 104.20 235.33 C 105.50 234.86 107.41 234.29 108.61 235.26 C 108.59 236.98 105.00 236.31 104.20 235.33 Z" fill="#ffcacc" />
<path d="M 151.82 235.69 C 150.21 236.36 148.75 236.44 147.14 235.73 C 148.53 234.17 150.33 234.38 151.82 235.69 Z" fill="#ffcacd" />
<path d="M 119.64 237.00 L 109.40 237.00 C 113.08 235.88 115.99 235.33 119.64 237.00 Z" fill="#ffcfd1" />
<path d="M 145.67 237.00 L 136.08 237.00 C 140.01 235.59 141.76 235.67 145.67 237.00 Z" fill="#ffccce" /></svg>