<?xml version="1.0" encoding="UTF-8"?>
<svg width="250px" height="233px" viewBox="0 0 250 233" version="1.1" xmlns="http://www.w3.org/2000/svg" xmlns:xlink="http://www.w3.org/1999/xlink">
    <!-- Generator: Sketch 52.6 (67491) - http://www.bohemiancoding.com/sketch -->
    <title>sosf_logo</title>
    <desc>Created with Sketch.</desc>
    <g id="Page-1" stroke="none" stroke-width="1" fill="none" fill-rule="evenodd">
        <g id="sosf_logo">
            <path d="M146.52,0.15 C151.38,-0.23 156.08,0.94 160.47,2.95 C155.75,2.53 151.05,1.57 146.52,0.15 Z" id="Path" fill-opacity="0" fill="#FFD0D1"></path>
            <path d="M109.15,1.82 C135.86,-1.37 163.78,3.63 187.44,16.52 C209.19,28.29 227.39,46.48 238.27,68.77 C246.95,86.42 250.72,106.39 248.99,125.98 C247.47,144.99 240.67,163.27 229.91,178.97 C216.93,198.01 198.18,212.93 177.03,221.95 C154.81,231.58 130.13,234.5 106.18,231.24 C81.71,227.9 57.84,217.34 39.38,200.85 C39.37,200.16 39.28,199.5 39.11,198.87 C37.07,196.3 34.44,194.21 32.25,191.77 C30.64,190.27 29.69,188.52 27.26,188.52 C12.76,171.76 3.45,150.6 1.04,128.56 C2.54,124.33 1.92,120.37 2.02,116 C1.95,112.57 2.52,109.5 0.89,106.32 C3.51,78.53 17.2,52.47 37.91,33.88 C57.44,15.96 82.88,4.84 109.15,1.82 Z" id="Path" fill="#0124FF"></path>
            <path d="M160.69,2.99 C168.45,4.08 176.09,7.56 183.12,10.9 C186.83,12.81 190.43,14.07 193.47,17.05 C191.15,16.29 188.99,15.33 186.84,14.15 C180.56,10.71 174.03,7.84 167.16,5.77 C164.88,5.09 162.68,4.34 160.69,2.99 Z" id="Path" fill-opacity="0" fill="#FFD7D8"></path>
            <path d="M115.62,7.31 C118.07,7.2 120.54,7.27 123,7.21 L123.01,8.91 C121.57,8.44 120.14,7.97 118.69,7.51 C118.62,8.93 118.55,10.35 118.48,11.76 C119.66,11.55 120.85,11.34 122.04,11.13 L122.17,13.1 C120.9,12.8 119.63,12.5 118.36,12.2 C118.5,13.65 118.69,15.09 118.91,16.53 C120.36,16.62 121.39,16.43 122.66,15.75 C123.71,16.55 124.45,16.66 124.87,16.06 C125.37,12.89 125.2,9.58 125.29,6.38 C128.51,8.28 129.76,11.92 132.19,14.94 C132.23,12.32 132.06,9.77 131.54,7.21 C132.51,7.27 133.49,7.33 134.47,7.39 C132.99,10.89 133.47,14.66 132.65,18.48 C130.07,16.02 128.54,13.05 126.42,10.22 C126.18,12.68 126.1,15 126.63,17.42 C121.81,17.28 116.99,17.92 112.19,17.79 C110.82,16.53 109.63,15.07 108.38,13.7 C108.13,15.33 108.53,17.05 108.87,18.64 C107.63,18.78 106.39,18.92 105.14,19.06 C105.52,18.42 105.9,17.78 106.29,17.15 C105.9,14.4 105.64,11.69 104.99,8.99 L103.72,10.96 C102.54,10.65 101.36,10.33 100.17,10.01 C100.75,13.34 101.33,16.61 102.79,19.68 C101.52,20.02 100.25,20.35 98.97,20.69 C99.24,19.9 99.5,19.11 99.77,18.31 C99.14,15.59 98.49,12.92 97.37,10.35 C96.49,11.39 95.6,12.43 94.71,13.47 C94.46,12.67 94.24,11.87 94.06,11.05 C98.44,9.67 103.09,9.07 107.58,8.15 C107.68,10.03 107.81,11.91 107.98,13.79 C108.74,13.24 109.48,12.67 110.19,12.06 C111.3,10.23 108.74,8.94 107.94,7.53 C109.4,8.1 111.69,7.85 112.4,9.49 C113.3,11.16 111.7,12.46 111.05,13.93 C112.42,15.15 113.79,16.37 115.27,17.47 C117.87,15.43 115.97,10.13 115.62,7.31 Z" id="Path" fill="#FFFFFE"></path>
            <path d="M144.23,9 C143.76,9.66 143.3,10.32 142.84,10.99 C142.29,10.15 141.72,9.33 141.13,8.52 C135.85,7.35 134.38,17.02 139.24,18.05 C141.26,16.62 140.01,15.26 139.37,13.55 C140.79,13.86 142.21,14.15 143.63,14.43 C143.1,15.82 142.6,17.21 142.12,18.62 C140.47,18.59 138.4,18.91 136.91,18.13 C132.78,16.33 133.59,8.93 137.81,7.76 C139.82,6.87 142.3,8.38 144.23,9 Z" id="Path" fill="#FFFFFF"></path>
            <path d="M145.36,8.53 C149.82,9.72 154.28,10.93 158.79,11.89 C157.99,13.31 157.23,14.75 156.46,16.19 C157.98,16.62 159.51,17.04 161.04,17.47 C161.2,15.99 161.35,14.51 161.49,13.03 C162.6,13.32 163.72,13.6 164.84,13.88 C162.74,17.26 161.84,20.11 161.47,24.09 C160.43,23.7 159.38,23.32 158.34,22.94 C159.2,21.39 159.87,19.85 160.43,18.16 C159.06,17.77 157.7,17.37 156.34,16.97 C155.97,18.62 155.67,20.27 155.46,21.96 C154.38,21.65 153.3,21.36 152.21,21.06 C153.77,18.18 154.82,15.11 155.87,12.02 L153.35,12.8 L151.77,10.27 C150.22,13.63 149.15,16.89 149.72,20.64 C148.23,20.18 146.73,19.73 145.23,19.3 C145.82,18.93 146.42,18.57 147.01,18.21 C147.79,15.31 148.56,12.46 148.45,9.42 C147.24,10.04 146.04,10.68 144.84,11.32 C145,10.39 145.17,9.46 145.36,8.53 Z" id="Path" fill="#FFFFFF"></path>
            <path d="" id="Path" fill="#FFBCBD"></path>
            <path d="M91.97,11.68 C92.16,12.71 92.35,13.74 92.55,14.77 C91.6,14.12 90.65,13.46 89.71,12.79 C89.08,13.52 88.45,14.24 87.83,14.97 C89.8,15.77 91.79,16.52 93.8,17.24 C94.27,18.18 94.74,19.13 95.22,20.07 C93.62,21.73 92.5,23.34 89.97,23.43 C87.73,23.38 88.27,22.49 87.73,20.65 C88.87,21.17 90,21.69 91.14,22.23 C91.83,21.47 92.52,20.71 93.21,19.95 C90.99,18.69 87.47,18.06 86.06,15.86 C85.89,12.46 89.21,11.78 91.97,11.68 Z" id="Path" fill="#BFC5FB"></path>
            <path d="M175.61,18.3 C177.81,19.38 180.09,20.47 182.03,21.96 L182,24.53 C180.79,23.33 179.64,22.09 178.5,20.83 C177.82,22.15 177.18,23.48 176.51,24.81 C177.68,24.9 178.85,24.99 180.02,25.08 C179.63,25.82 179.24,26.56 178.84,27.3 C177.85,26.53 176.85,25.76 175.85,24.99 C175.4,26.66 175.01,28.33 174.67,30.03 C173.39,29.36 172.11,28.7 170.82,28.04 C173,25.84 174.49,23.42 175.66,20.55 C175.64,19.8 175.63,19.05 175.61,18.3 Z" id="Path" fill="#BBC1FA"></path>
            <path d="" id="Path" fill="#FFBFC0"></path>
            <path d="M72.91,18.99 C73.5,19.37 74.01,19.91 74.45,20.6 C73.31,20.7 72.17,20.82 71.04,20.97 C68.81,21.9 71.24,23.66 71.64,25.08 C72.4,24.32 73.18,23.59 73.98,22.88 C74.57,23.25 75.04,23.83 75.4,24.6 C74.14,25.03 72.88,25.47 71.63,25.9 C72.68,27.21 73.75,28.5 74.83,29.78 C73.68,30.4 72.53,31.03 71.39,31.66 C70.63,27.97 69.27,24.72 66.44,22.12 C68.51,21.06 70.63,19.49 72.91,18.99 Z" id="Path" fill="#C2C7F9"></path>
            <path d="M118,21.93 C123.33,21.99 128.67,21.93 134,21.95 C136.15,22.21 138.26,21.49 139.3,23.93 C130.08,22.93 120.87,23.02 111.64,23.85 C113.14,21.42 115.56,22.14 118,21.93 Z" id="Path" fill="#0002FE"></path>
            <path d="M111.64,23.85 C120.87,23.02 130.08,22.93 139.3,23.93 C160.33,26.88 180.31,35.57 196.06,49.91 C208.01,60.68 217.32,74.47 222.32,89.79 C228.03,106.91 228.33,125.72 223.09,142.99 C218.49,158.71 209.18,173.09 197.26,184.26 C183.04,197.51 165.06,206.47 145.99,210.12 C110.98,217.15 73.04,205.62 48.67,179.35 C37.2,166.97 29.02,151.58 25.72,135 C22.05,116.65 24.31,97.22 32.28,80.27 C39.32,64.85 51.03,51.5 64.93,41.87 C78.83,32.06 94.89,26.41 111.64,23.85 Z" id="Path" fill="#FFFFFF"></path>
            <path d="M63.85,24.43 C67.65,24.95 69.98,29.01 68.84,32.64 C67.05,34.72 65.12,36.64 62.14,35.56 C58.79,34.17 58.07,31.28 57.72,27.96 C59.47,26.47 61.28,23.99 63.85,24.43 Z" id="Path" fill="#CFD4FA"></path>
            <path d="M114.53,25.86 C146.67,22.33 179.93,34.22 201.61,58.41 C216.49,74.83 225.22,96.76 224.65,119 C224.67,129.62 222.27,140.34 218.37,150.19 C210.9,168.61 197.34,184.03 180.51,194.49 C155.27,210.22 123.58,214 95.15,205.62 C76.06,199.96 58.43,188.59 45.97,173.01 C36.38,161.23 29.86,147 27.3,132.02 C25.14,118.77 25.93,104.86 30,92.03 C35.87,72.87 48.39,56.3 64.59,44.62 C79.15,34.1 96.64,27.53 114.53,25.86 Z" id="Path" fill="#000000"></path>
            <path d="M188.45,24.85 C188.02,29.16 187.04,33.26 187.22,37.62 C185.9,36.72 184.55,35.84 183.21,34.96 L184.93,33.47 C185.42,31.97 182.94,31.05 181.88,30.61 C180.9,30.13 179.94,32.05 179.2,32.63 C178.55,32.06 177.89,31.49 177.24,30.92 C181.19,29.25 184.52,26.56 188.45,24.85 Z" id="Path" fill="#B2BAF9"></path>
            <path d="M63.81,25.81 C65.92,28.17 66.83,29.89 67.37,33.05 C65.89,33.61 64.83,34.47 63.18,33.9 C61.02,32.07 60.02,29.96 59.8,27.15 C61.13,26.49 62.35,26.07 63.81,25.81 Z" id="Path" fill="#0228FF"></path>
            <path d="M185.93,28.06 C186.08,29.01 185.95,29.86 185.53,30.61 C184.39,31.82 183.08,30.33 182.89,29.13 C183.85,28.22 184.87,27.86 185.93,28.06 Z" id="Path" fill="#3C45FB"></path>
            <path d="M194.96,30.03 C196.02,30.9 197.09,31.77 198.16,32.62 C195.41,34.2 193.86,36.66 191.97,39.09 C192.09,39.79 192.22,40.48 192.34,41.18 C191.05,40.38 189.76,39.58 188.46,38.78 C191.29,36.29 193.78,33.72 194.96,30.03 Z" id="Path" fill="#CED3FB"></path>
            <path d="M201.06,34.73 C202.76,36.39 204.77,38.08 206.05,40.08 C205.57,42.63 203.69,43.12 201.47,43.6 C201.32,45.07 201.17,46.54 201.02,48.01 C201.67,48.52 202.32,49.03 202.97,49.54 C205.39,47.25 208,45.69 209.29,42.55 C210.92,44.41 212.6,46.21 214.3,48 C213.77,48.57 213.24,49.14 212.71,49.71 C212.15,48.19 211.57,46.68 210.94,45.18 C209.7,46.4 208.56,47.66 207.55,49.07 C208.62,49.33 209.7,49.58 210.77,49.83 C210.12,50.53 209.48,51.23 208.83,51.93 C208.26,50.73 207.68,49.52 207.11,48.32 C206,49.75 205.06,51.2 204.21,52.8 C202.53,50.74 200.72,48.82 198.82,46.96 C199.16,45.18 199.54,43.4 199.92,41.63 C201.02,41.55 202.05,41.34 203.01,40.98 C204.84,39.85 203.38,38.89 203.12,37.28 C200.62,39.59 198.28,42.05 196.37,44.89 C195.62,44.16 194.87,43.43 194.13,42.7 C197.13,40.56 199.86,38.37 201.06,34.73 Z" id="Path" fill="#FFFFFF"></path>
            <path d="M46.98,35.93 C47.65,36.36 48.34,36.77 49.03,37.16 C47.63,37.8 46.2,38.42 44.85,39.17 C45.54,40.26 46.26,41.33 47.02,42.37 C47.62,41.31 48.21,40.25 48.81,39.19 C49.5,39.87 50.19,40.56 50.88,41.26 C49.78,41.55 48.68,41.86 47.58,42.16 C48.45,43.38 49.27,44.64 50.16,45.85 C51.27,44.64 52.21,42.09 54,41.9 C54.74,44.86 50.29,46.88 48.53,48.68 C47.32,45.05 44.61,42.95 41.76,40.65 C43.42,39.05 45.03,37.17 46.98,35.93 Z" id="Path" fill="#BDC4FA"></path>
            <path d="M135.5,40.68 C138.15,40.04 141.65,41.07 142.32,44.08 C141.59,47.43 136.99,48.91 134.67,51.19 C136.72,51.5 138.83,51.66 140.85,52.14 L140.97,53.98 C137.89,53.97 134.96,53.46 131.94,52.9 C133.75,49.9 136.71,48.43 138.97,45.94 C140.54,43.26 138.96,42.69 137.11,41.08 C136.21,41.98 135.32,42.92 134.36,43.75 C133.8,42.15 133.88,41.39 135.5,40.68 Z" id="Path" fill="#FFFFFF"></path>
            <path d="M114.03,41.29 C115.83,40.64 115.78,42.94 116.36,43.99 C114.61,43.36 112.87,42.82 111.05,42.45 C111.61,45.87 112.05,49.45 113.16,52.75 L115.07,54.14 C113,54.56 110.91,54.95 108.83,55.36 C109.35,54.62 109.87,53.89 110.4,53.16 C109.57,49.95 109.3,46.54 108.2,43.41 C105.93,43.54 105.3,45.32 103.93,46.8 C102.49,45.57 101.69,44.25 99.87,45.88 C98.63,47.11 99.62,48.44 101.09,48.8 C103.26,49.72 107.18,49.85 107.19,53 C107.43,55.65 105.09,56.97 102.87,57.53 C98.84,58.46 95.32,60.29 91.59,62 C92.62,57.93 89.61,52.88 87.08,49.81 C89.82,48.57 92.63,47.46 95.44,46.39 C95.69,47.18 95.94,47.97 96.19,48.75 C94.27,48.48 92.63,48.55 90.72,48.84 C91.34,50.56 92,52.27 92.68,53.98 C93.78,53.11 94.89,52.23 96.04,51.43 C96.45,52.06 96.85,52.69 97.24,53.34 C95.74,53.71 94.24,54.11 92.75,54.51 C93.49,56.07 94.21,57.63 94.94,59.19 C96.02,58.75 97.11,58.31 98.19,57.89 C98.74,56.74 99.29,55.61 99.86,54.48 C100.58,55.22 101.29,55.96 102.01,56.7 C102.86,56.33 103.7,55.93 104.52,55.5 C105.49,54.69 104.99,52.57 103.57,52.39 C101.82,51.65 99.34,51.4 97.98,50.03 C96.43,48.14 97.32,45.44 99.6,44.67 C104.31,43.2 109.17,42.13 114.03,41.29 Z" id="Path" fill="#FFFFFF"></path>
            <path d="M145.5,42.6 C147.68,41.53 150.16,42.73 151.14,44.84 C152.49,47.49 151.6,50.68 150.14,53.1 C148.6,55.34 145.72,56.68 143.38,54.66 C139.55,51.61 141.96,44.85 145.5,42.6 Z" id="Path" fill="#FFFFFF"></path>
            <path d="M40.08,42.74 C40.88,43.22 41.62,43.77 42.33,44.39 C40.99,44.63 39.66,44.95 38.36,45.34 C36.36,48.49 39.83,52.19 42.97,52.33 C44.95,51.46 46.21,49.41 48.15,48.38 C47.13,50.64 45.63,52.44 43.93,54.21 C41.46,53.93 39.38,54.48 37.57,52.42 C35.47,50.68 36.05,48.65 35.85,46.22 C37.18,45.03 38.48,43.55 40.08,42.74 Z" id="Path" fill="#C6CBF9"></path>
            <path d="M148.03,42.84 C148.56,43.83 149.08,44.83 149.58,45.84 C148.85,49.02 148.52,52.47 145.94,54.76 C144.37,54.34 143.68,53.42 143.88,52 C144.27,48.44 144.75,44.92 148.03,42.84 Z" id="Path" fill="#000000"></path>
            <path d="M153.71,44.89 C155.47,45.25 157.23,45.55 158.99,45.88 C157.54,49.38 155.89,52.94 155.05,56.63 L156.97,58.48 C157.68,57.66 158.4,56.83 159.11,56.01 C159.08,57.07 159.04,58.13 158.99,59.19 C160.95,59.55 162.13,60.66 163.53,58.57 C165.41,56.23 161.95,54.35 160.75,52.68 C161.97,53.16 163.18,53.66 164.38,54.16 C165.18,53.05 167.97,51.4 166.12,50.05 C165.07,48.24 162.96,49.93 161.59,50.39 C161.95,49.46 162.34,48.55 162.77,47.65 C165.55,48.03 168.24,49.16 169.25,52.01 C168.58,54.27 167.36,54.55 165.3,55.15 C166.08,56.98 167.27,57.9 165.87,59.83 C163.3,63.07 159.44,60.49 156.93,58.62 C154.25,58.03 151.9,57.17 149.5,55.82 L152.28,55.55 C153.72,52.9 154.62,49.9 155.63,47.06 C155,46.33 154.36,45.61 153.71,44.89 Z" id="Path" fill="#FFFFFF"></path>
            <path d="" id="Path" fill="#FFB9C0"></path>
            <path d="M121.76,50.24 C121.89,51.41 122.01,52.57 122.1,53.73 C121.12,53.8 120.13,53.86 119.14,53.92 C118.85,52.95 118.55,51.99 118.25,51.02 C119.41,50.74 120.58,50.48 121.76,50.24 Z" id="Path" fill="#9C9B96"></path>
            <path d="M30.12,52.99 L33.1,51.83 C35.43,52.14 35.61,54.22 36.43,56 C38.34,55.97 40.25,55.94 42.16,55.92 C41.43,56.71 40.67,57.47 39.88,58.21 C38.08,58.25 36.25,57.99 34.45,57.8 C34.22,54.38 32.7,54.39 30.12,52.99 Z" id="Path" fill="#E6E9FB"></path>
            <path d="M217.11,51.29 C217.87,52.35 218.64,53.41 219.38,54.48 C216.02,56.13 213.22,58.07 211.02,61.15 C210.23,60.03 209.43,58.92 208.62,57.82 C212.15,57.23 215.59,54.51 217.11,51.29 Z" id="Path" fill="#E4E7FA"></path>
            <path d="" id="Path" fill="#FFBAC3"></path>
            <path d="" id="Path" fill="#FFB9C0"></path>
            <path d="M66.3,53.81 C69.06,56.3 71.29,59.29 74.25,61.6 C75.43,69.35 80.79,72.6 85.33,78.16 C81.53,76.77 78.13,74.55 75.1,71.89 C71.94,69.06 69.86,65.11 67.04,61.84 C65.75,59.58 66.19,56.32 66.3,53.81 Z" id="Path" fill="#FFFFFF"></path>
            <path d="M190.91,53.52 C190.92,56.52 191.9,59.86 189.76,62.35 C184.91,68.97 180.63,74.98 172.48,77.78 L172.61,77.46 C174.91,74.43 177.86,72.22 180,69.01 C181.57,66.7 182.48,64.12 183.13,61.41 C185.99,59.03 188.38,56.23 190.91,53.52 Z" id="Path" fill="#FFFFFF"></path>
            <path d="M29.48,54.79 C32.49,56.8 35.17,59.18 38.37,60.9 C37.59,61.86 36.8,62.82 36.02,63.78 C34.13,61.02 31.9,59.02 29.02,57.35 L27.97,58.05 C28.7,60.6 33.44,61.66 34.72,64.39 C35.16,67.02 33.14,68.87 31.05,70.05 C28.41,69.42 25.98,67.5 23.71,66.07 C23.03,66.24 22.35,66.42 21.67,66.6 C22.44,65.23 23.23,63.86 24,62.49 C26.01,65.23 28.72,66.74 31.73,68.15 C32.47,67.34 33.21,66.53 33.95,65.71 C31.71,62.87 29.13,60.74 25.42,60.28 C26.7,58.5 27.98,56.72 29.33,54.98 L29.48,54.79 Z" id="Path" fill="#CBD0F9"></path>
            <path d="M74.37,55.71 C78.75,61.2 83.39,66.08 89.83,69.16 C95.59,71.74 101.4,74.53 105.77,79.27 C107.66,81.44 107.61,84.32 107.11,87 C105.73,90.6 102.65,93.55 101.24,97.12 C100.82,99.42 100.81,102.68 102.52,104.5 C103.92,105.82 105.98,107.08 107.97,106.96 C112.36,106.85 117.71,104.98 119.94,100.93 C121.05,97.95 120.65,94.23 119.72,91.24 C117.26,90.42 114.26,91.04 111.71,91.17 C112.28,89.62 112.79,87.99 113.57,86.53 C116.16,84.88 119.27,84.9 121.61,82.6 C123.79,80.32 127.31,81.51 130.01,81.97 C131.76,82.52 134.47,82.99 135.04,85 C137.46,90.56 136.49,96.21 138.36,101.73 C139.85,105.1 144.55,106.81 147.99,107.05 C152.8,107.6 157.35,102.79 156.25,97.95 C154.94,94.03 151.61,90.78 150.08,86.92 C149.02,83.88 150.01,80.52 152.32,78.33 C156.15,74.62 161.01,71.94 165.9,69.9 C172.98,66.73 178.55,61.51 182.9,55.16 C183.01,57.24 183.11,59.33 183.13,61.41 C182.48,64.12 181.57,66.7 180,69.01 C177.86,72.22 174.91,74.43 172.61,77.46 L172.3,77.84 L172.48,77.78 C180.63,74.98 184.91,68.97 189.76,62.35 C190.34,66.71 189.19,70.36 187.3,74.2 C185.6,77.51 183.12,80.04 181.06,83.1 C186.67,79.79 189.88,74.82 193.75,69.83 C193.3,72.47 192.53,75.02 191.64,77.54 C191.1,78.68 190.59,79.83 190.06,80.98 C188.55,83.78 186.56,86.23 184.88,88.93 C190.01,86.17 192.03,81.63 195.96,77.6 C194.92,81.08 193.56,84.33 193.35,88 C194.56,87.43 195.78,86.86 196.99,86.29 C194.98,92.17 191.42,96.85 187.25,101.36 C188.23,101.5 189.21,101.64 190.18,101.79 C188.86,103.61 187.55,105.44 186.23,107.26 C187.18,107.81 188.13,108.37 189.07,108.93 C187.61,110.03 186.15,111.13 184.69,112.23 C185.36,112.78 186.03,113.33 186.69,113.89 C185.26,114.78 183.83,115.67 182.36,116.49 C180.91,117.19 179.65,118.15 181.32,119.56 C180.38,119.88 179.44,120.2 178.5,120.53 C178.68,121.21 178.86,121.89 179.04,122.58 C176.5,123.84 175.1,123.73 174.78,126.96 C172.61,127.87 171.3,127.89 170.5,130.42 C169.37,130.29 168.23,130.17 167.1,130.06 L165.28,129.91 C165.13,130.93 164.98,131.95 164.81,132.96 L162.6,133.42 L162.28,133.49 C161.36,133.66 160.75,134.43 160.46,135.8 L159.86,135.55 L159.29,135.3 C157.98,134.73 156.65,134.03 155.28,133.64 L155.3,136.97 C152.4,135.55 149.48,134.17 146.52,132.86 C147.06,134.25 147.6,135.64 148.15,137.02 C145.6,137.54 145.43,139.02 144.3,141.05 C140.74,138.39 137.59,135.31 134.43,132.2 C134.54,136.63 134.3,140.71 136.05,144.88 C137.82,149.13 139.98,153.2 141.82,157.42 L140.34,157.09 L138.29,156.6 C138.37,158.88 138.38,161.15 138.2,163.43 C136.61,163.58 135.81,164.4 135.81,165.88 C135.58,167.59 135.39,169.3 135.18,171.01 C134.25,170.54 133.32,170.11 132.37,169.71 C132.39,170.77 132.41,171.83 132.44,172.89 C132.5,175.28 132.44,177.63 132.27,180.01 C131.08,179 129.91,177.99 128.74,176.97 C127.57,178.02 126.42,179.09 125.27,180.17 C124.36,176.8 124.36,173.39 124.5,169.93 C123.78,170.3 123.06,170.69 122.36,171.09 C121.92,169.42 121.44,167.75 121.08,166.06 C121.24,165.04 121.09,164.18 120.62,163.5 C119.91,163.22 119.24,163.54 118.63,164.45 L118.55,163.44 C118.49,162.18 118.45,160.92 118.44,159.66 C118.92,158.61 118.98,157.74 118.61,157.04 L117.04,156.91 L115.45,157.16 C117.28,153.12 119.42,149.21 121.1,145.1 C122.8,140.86 122.76,136.42 123,131.91 C119.64,135.15 116.57,138.53 112.63,141.1 C112.14,139.96 111.66,138.82 111.18,137.68 C110.36,137.53 109.55,137.37 108.74,137.22 C109.44,135.73 110.15,134.25 110.83,132.76 C107.79,134.1 104.81,135.57 101.83,137.02 L102.06,135 C102.48,133.32 102,132.92 100.62,133.81 C99.91,134.29 99.19,134.76 98.46,135.19 L96.63,135.07 C95.07,132.94 94.57,132.94 92,132.78 C92,131.81 92,130.84 92,129.87 L90.18,130.04 C88.92,130.18 87.68,130.33 86.44,130.51 C86.29,129.67 86.14,128.83 86,127.99 C84.71,127.69 83.42,127.4 82.13,127.1 C82.05,126.1 81.96,125.09 81.87,124.09 C80.72,123.65 79.57,123.22 78.42,122.8 C78.5,121.97 78.58,121.14 78.66,120.3 C77.24,119.88 75.81,119.45 74.39,119.03 C75.82,115.88 72.65,115.47 70.8,113.76 C71.49,113.31 72.18,112.86 72.87,112.41 C71.38,111.23 69.9,110.07 68.41,108.9 C69.31,108.42 70.21,107.94 71.12,107.46 C69.87,105.52 68.59,103.6 67.3,101.69 L69.98,101.33 C65.87,96.88 62.21,92.29 60.29,86.44 C61.82,87.04 63.35,87.63 64.88,88.23 L64.23,87.7 C63.99,86.92 63.75,86.14 63.52,85.36 C62.73,82.54 61.87,79.73 61.28,76.86 C61.72,77.28 62.16,77.71 62.59,78.14 C64.41,82.19 67.38,85.25 70.68,88.13 C72.21,89.96 73.26,87.49 71.05,87.21 C69.98,85.5 68.88,83.82 67.85,82.09 C67.13,80.73 66.45,79.35 65.76,77.98 C64.75,75.41 64.02,72.85 63.56,70.13 C66.93,74.52 70.17,78.75 74.59,82.17 C75.09,82.97 76.55,84.82 77.1,83.03 C77.02,82.02 76.27,81.46 74.85,81.34 C73.44,79.47 71.97,77.68 70.69,75.72 L70.39,75.22 C69.78,74.11 69.19,72.99 68.63,71.86 L68.22,71.12 L67.8,70.43 C67.56,67.57 67.26,64.71 67.04,61.84 C69.86,65.11 71.94,69.06 75.1,71.89 C78.13,74.55 81.53,76.77 85.33,78.16 C80.79,72.6 75.43,69.35 74.25,61.6 C74.22,59.63 74.26,57.68 74.37,55.71 Z" id="Path" fill="#0126FF"></path>
            <path d="" id="Path" fill="#FFBBC2"></path>
            <path d="" id="Path" fill="#FFBDC7"></path>
            <path d="M222.32,58.63 C223.57,60.64 228,64.36 224.53,66.24 C224.12,64.68 224.02,63.23 223.11,61.87 C222.05,62.39 221.01,62.94 219.98,63.51 C220.81,64.33 221.63,65.17 222.42,66.03 C220.37,68.62 220.02,65.48 219.12,63.96 C218.05,64.73 216.98,65.49 215.9,66.25 C217.04,67.46 218.18,68.65 219.33,69.85 C218.67,70.07 218,70.3 217.34,70.52 C215.98,68.42 214.65,66.29 213.35,64.15 C217,63.2 219.61,61.13 222.32,58.63 Z" id="Path" fill="#BEC5F9"></path>
            <path d="M57.85,60.79 C61.16,63.77 63.8,68.48 67.8,70.43 L68.22,71.12 L68.39,71.53 L68.63,71.86 C69.19,72.99 69.78,74.11 70.39,75.22 L70.69,75.72 C71.97,77.68 73.44,79.47 74.85,81.34 L74.59,82.17 C70.17,78.75 66.93,74.52 63.56,70.13 C64.02,72.85 64.75,75.41 65.76,77.98 C60.97,73.27 57.96,67.63 57.85,60.79 Z" id="Path" fill="#FFFFFF"></path>
            <path d="M199.25,60.83 C199.38,67.29 196.35,73.25 191.64,77.54 C192.53,75.02 193.3,72.47 193.75,69.83 C189.88,74.82 186.67,79.79 181.06,83.1 C183.12,80.04 185.6,77.51 187.3,74.2 C189.04,70.53 192.19,68.75 194.78,65.8 C196.27,64.14 197.7,62.44 199.25,60.83 Z" id="Path" fill="#FFFFFF"></path>
            <path d="" id="Path" fill="#FFBCC5"></path>
            <path d="" id="Path" fill="#FFB9C2"></path>
            <path d="M22.98,67.95 C26.83,67.58 32.2,72.16 29.15,76.09 C27.52,78.8 25.13,78.81 22.36,79.48 C26.8,80.94 25.87,85 23.1,87.53 C22.29,86.98 21.5,86.4 20.73,85.81 C21.94,85.47 23.15,85.13 24.36,84.79 C23.9,84.06 23.52,80.95 22.16,82.23 C19.86,82.98 17.43,86.08 15.24,83.72 C13.33,81.46 14.7,78.9 16.91,77.62 C17.65,78.08 18.37,78.57 19.06,79.11 C17.91,79.37 16.76,79.63 15.61,79.9 C16.2,81.09 15.78,82.33 17.51,82.13 C18.9,81.49 20.19,80.61 21.51,79.83 C21.7,79.34 21.9,78.85 22.1,78.37 C19.75,77.06 18.88,75.44 17.82,73.1 C18.99,71.25 20.37,67.86 22.98,67.95 Z" id="Path" fill="#C9CEFB"></path>
            <path d="M227.97,67.16 C228.53,68.37 229.09,69.59 229.66,70.8 C226.22,71.31 223.47,73.07 220.57,74.84 C221.59,76 222.76,76.86 224.1,77.43 L223.21,79.47 C226.39,78.28 229.5,77.29 232.12,75.03 C233.09,78.04 235.66,81.66 233.75,84.68 C232.07,86.4 229.54,87.51 227.12,86.94 C224.82,85.98 224.11,84.03 223.17,81.91 C221.83,78.59 220.12,75.48 218.4,72.35 C221.13,71.68 223.68,70.69 226.04,69.14 C226.69,68.49 227.33,67.83 227.97,67.16 Z" id="Path" fill="#D3D7FB"></path>
            <path d="" id="Path" fill="#FFB5BD"></path>
            <path d="M21.29,70.01 C23.82,69.74 26.58,70.95 28.03,73.03 C28.56,75.3 28.03,76.06 26.02,77.02 C23.74,76.57 21.64,75.55 20.12,73.75 C19.39,71.85 20.13,71.37 21.29,70.01 Z" id="Path" fill="#0223FF"></path>
            <path d="M202.78,69.65 C201.38,74.9 199.01,79.57 195.45,83.68 C194.44,84.76 194.24,85.67 194.11,87.1 C198.39,84.26 201.38,80.27 205.08,76.8 C203.68,80.68 201.71,84.32 200.08,88.12 C201.73,87.51 203.38,86.89 205.04,86.29 C202.17,92.43 197.54,96.71 192.59,101.13 C193.58,101.28 194.58,101.43 195.57,101.59 C194.07,103.45 192.52,105.27 190.97,107.09 C191.9,107.67 192.83,108.25 193.75,108.84 C191.92,109.94 190.09,111.05 188.28,112.19 C189.01,112.67 189.75,113.16 190.48,113.65 C188.77,114.67 187.07,115.71 185.37,116.75 L186.91,118.69 C184.51,119.74 180.59,118.99 181.38,122.81 C180.1,123.26 178.48,123.49 177.45,124.39 C177.21,125.27 177.01,126.17 176.84,127.07 C174.37,127.91 172.57,127.4 172.44,130.74 C171.79,130.63 171.14,130.53 170.5,130.42 C171.3,127.89 172.61,127.87 174.78,126.96 C175.1,123.73 176.5,123.84 179.04,122.58 C178.86,121.89 178.68,121.21 178.5,120.53 C179.44,120.2 180.38,119.88 181.32,119.56 L182.83,119 C182.92,118.18 182.77,117.34 182.36,116.49 C183.83,115.67 185.26,114.78 186.69,113.89 C186.03,113.33 185.36,112.78 184.69,112.23 C186.15,111.13 187.61,110.03 189.07,108.93 C188.13,108.37 187.18,107.81 186.23,107.26 C187.55,105.44 188.86,103.61 190.18,101.79 C189.21,101.64 188.23,101.5 187.25,101.36 C191.42,96.85 194.98,92.17 196.99,86.29 C195.78,86.86 194.56,87.43 193.35,88 C193.56,84.33 194.92,81.08 195.96,77.6 C192.03,81.63 190.01,86.17 184.88,88.93 C186.56,86.23 188.55,83.78 190.06,80.98 C192.57,78.7 195.55,77.28 197.82,74.82 C199.47,73.09 200.99,71.26 202.78,69.65 Z" id="Path" fill="#FFFFFF"></path>
            <path d="M54.5,69.96 C55.31,70.65 56.1,71.37 56.87,72.1 C58.39,73.65 59.82,75.25 61.28,76.86 C61.87,79.73 62.73,82.54 63.52,85.36 C58.97,81.46 55.99,75.7 54.5,69.96 Z" id="Path" fill="#EDEDEC"></path>
            <polygon id="Path" fill="#736999" points="68.22 71.12 68.63 71.86 68.39 71.53"></polygon>
            <path d="" id="Path" fill="#FFB5BD"></path>
            <path d="M70.39,75.22 L70.69,75.72 L70.39,75.22 Z" id="Path" fill="#978EB7"></path>
            <path d="" id="Path" fill="#FFB2B9"></path>
            <polygon id="Path" fill="#8B7C9F" points="172.61 77.46 172.48 77.78 172.3 77.84"></polygon>
            <path d="M52.18,76.88 C53.04,77.69 53.87,78.53 54.69,79.37 C57.52,82.72 60.58,85.28 64.23,87.7 L64.88,88.23 C63.35,87.63 61.82,87.04 60.29,86.44 C62.21,92.29 65.87,96.88 69.98,101.33 L67.3,101.69 C68.59,103.6 69.87,105.52 71.12,107.46 C70.21,107.94 69.31,108.42 68.41,108.9 C69.9,110.07 71.38,111.23 72.87,112.41 C72.18,112.86 71.49,113.31 70.8,113.76 C72.65,115.47 75.82,115.88 74.39,119.03 C75.81,119.45 77.24,119.88 78.66,120.3 C78.58,121.14 78.5,121.97 78.42,122.8 C79.57,123.22 80.72,123.65 81.87,124.09 C81.96,125.09 82.05,126.1 82.13,127.1 C83.42,127.4 84.71,127.69 86,127.99 C86.14,128.83 86.29,129.67 86.44,130.51 C85.9,130.61 85.37,130.72 84.83,130.83 C84.77,130.08 84.7,129.33 84.64,128.57 C83.21,128.08 81.77,127.59 80.34,127.09 C80.13,126.16 79.88,125.23 79.6,124.31 C78.44,123.62 77.04,123.22 75.77,122.77 C75.75,121.96 75.7,121.15 75.62,120.35 C73.96,119.66 72.14,119.22 70.41,118.72 L71.89,116.81 C70.15,115.75 68.41,114.68 66.65,113.63 C67.39,113.12 68.13,112.6 68.87,112.09 C67.06,111.02 65.26,109.95 63.45,108.89 C64.37,108.28 65.28,107.67 66.19,107.06 C64.64,105.27 63.08,103.48 61.51,101.71 C62.51,101.5 63.51,101.28 64.51,101.07 C59.66,96.69 55.05,92.4 52.21,86.38 C53.78,86.9 55.34,87.41 56.91,87.93 C55.4,84.22 53.63,80.62 52.18,76.88 Z" id="Path" fill="#FFFFFF"></path>
            <path d="M62.59,78.14 L62.4,77.72 C64.53,78.85 66.38,80.17 67.85,82.09 C68.88,83.82 69.98,85.5 71.05,87.21 L70.68,88.13 C67.38,85.25 64.41,82.19 62.59,78.14 Z" id="Path" fill="#E8E6E5"></path>
            <path d="M232.33,78.32 C232.59,79.53 232.81,80.74 232.97,81.96 C231.68,83.92 229.27,84.85 227,85.04 C225.63,83.97 224.26,83.36 225.07,81.37 C227.39,80.16 229.91,79.31 232.33,78.32 Z" id="Path" fill="#021CFF"></path>
            <path d="M74.85,81.34 C76.27,81.46 77.02,82.02 77.1,83.03 C76.55,84.82 75.09,82.97 74.59,82.17 L74.85,81.34 Z" id="Path" fill="#4A46B2"></path>
            <path d="M122.47,85.07 C124.91,84.56 127.27,84.28 129.76,84.32 C128.12,86.66 124.06,88.46 122.47,85.07 Z" id="Path" fill="#C3C5FB"></path>
            <path d="M71.05,87.21 C73.26,87.49 72.21,89.96 70.68,88.13 L71.05,87.21 Z" id="Path" fill="#655BAB"></path>
            <path d="M88.69,104.54 C89.74,105.09 90.77,105.76 91.79,106.38 C91.06,107.75 90.73,108.98 90.56,110.53 C89.93,110.13 89.3,109.74 88.67,109.34 C87.99,109.79 87.31,110.24 86.62,110.69 C86.64,108.93 86.37,107.93 85.46,106.48 C86.53,105.83 87.6,105.17 88.69,104.54 Z" id="Path" fill="#FFFFFF"></path>
            <path d="M168.57,104.7 C169.74,105.23 170.82,105.93 171.94,106.52 C171.39,107.07 170.83,107.61 170.28,108.16 C170.48,108.93 170.69,109.7 170.9,110.46 C168.69,109.63 168.28,109.77 166.08,110.46 C166.35,109.76 166.62,109.06 166.89,108.35 C166.29,107.76 165.68,107.17 165.08,106.58 C166.25,106 167.37,105.19 168.57,104.7 Z" id="Path" fill="#FFFFFF"></path>
            <path d="M13.03,104.87 C13.92,106.68 14.8,108.49 15.69,110.3 C17.57,110.54 19.45,110.79 21.33,111.04 C20,112.49 18.55,113.9 17.38,115.49 C17.42,117.33 18.04,119.2 18.41,120.98 C16.6,120.1 14.79,119.2 12.98,118.31 C11.19,119.25 9.39,120.19 7.58,121.1 C8.03,119.18 8.49,117.27 8.94,115.36 C7.51,113.97 6.09,112.56 4.7,111.12 C7.82,110.32 10.45,111.41 11.71,107.73 C12.15,106.78 12.59,105.83 13.03,104.87 Z" id="Path" fill="#FFFFFF"></path>
            <path d="M0.89,106.32 C2.52,109.5 1.95,112.57 2.02,116 C1.92,120.37 2.54,124.33 1.04,128.56 C0.32,121.21 0.41,113.69 0.89,106.32 Z" id="Path" fill="#0001FE"></path>
            <path d="M128.62,107.09 C129.53,108.87 130.4,110.67 131.29,112.45 C133.2,112.63 135.11,112.8 137.02,112.98 C135.67,114.42 134.3,115.83 132.91,117.23 C133.19,119.18 133.46,121.13 133.73,123.08 C131.87,122.2 130.01,121.31 128.15,120.44 C126.49,121.42 124.82,122.37 123.15,123.32 C123.49,121.3 123.85,119.28 124.18,117.25 C122.76,115.87 121.37,114.46 120,113.02 C121.87,112.82 123.74,112.63 125.62,112.43 C126.6,110.65 127.57,108.84 128.62,107.09 Z" id="Path" fill="#FFFFFF"></path>
            <path d="M237.82,110 C238.75,111.62 239.52,113.36 240.27,115.07 C242.18,115.44 244.09,115.78 246,116.13 C244.64,117.54 243.27,118.93 241.87,120.31 C242.31,122.19 242.77,124.07 243.21,125.95 C241.39,125.06 239.58,124.14 237.79,123.19 C236,124.15 234.19,125.09 232.38,126.01 C232.79,124.1 233.22,122.19 233.68,120.29 C232.26,118.92 230.86,117.54 229.47,116.14 C231.33,115.78 233.27,115.56 235.08,114.98 C236.15,113.44 236.91,111.65 237.82,110 Z" id="Path" fill="#FFFFFF"></path>
            <path d="M153.42,115.08 C154.06,116.26 154.67,117.45 155.29,118.64 C156.55,118.75 157.8,118.86 159.06,118.98 C158.16,120.03 157.26,121.07 156.35,122.11 C156.52,123.42 156.68,124.73 156.84,126.05 C155.61,125.45 154.38,124.85 153.16,124.24 C152.02,124.9 150.88,125.56 149.74,126.22 C149.88,124.96 150.12,123.69 150.13,122.42 C149.56,121.22 148.52,120.2 147.73,119.14 C148.94,118.93 150.15,118.7 151.35,118.45 C152.06,117.34 152.72,116.2 153.42,115.08 Z" id="Path" fill="#FFFFFF"></path>
            <path d="M103.92,114.88 C104.51,116.03 105.14,117.16 105.82,118.25 C107.07,118.76 108.42,119.02 109.72,119.37 C108.77,120.31 107.83,121.25 106.88,122.19 C107.1,123.48 107.31,124.78 107.53,126.08 C106.31,125.49 105.1,124.9 103.89,124.31 C102.63,124.94 101.37,125.57 100.11,126.19 C100.37,124.92 100.62,123.64 100.88,122.36 C99.95,121.27 99.02,120.16 98.1,119.05 C99.3,118.91 100.51,118.76 101.71,118.59 C102.5,117.37 103.2,116.13 103.92,114.88 Z" id="Path" fill="#FFFFFF"></path>
            <path d="M182.36,116.49 C182.77,117.34 182.92,118.18 182.83,119 L181.32,119.56 C179.65,118.15 180.91,117.19 182.36,116.49 Z" id="Path" fill="#0001F9"></path>
            <path d="M90.18,130.04 L92,129.87 C92,130.84 92,131.81 92,132.78 C94.57,132.94 95.07,132.94 96.63,135.07 L98.46,135.19 C97.53,135.75 96.6,136.3 95.67,136.84 C95.13,135.87 94.56,134.93 93.95,134.01 C92.7,133.83 91.44,133.7 90.18,133.62 C90.18,132.43 90.18,131.24 90.18,130.04 Z" id="Path" fill="#7C779D"></path>
            <path d="M165.28,129.91 L167.1,130.06 C167.02,131.35 166.95,132.63 166.87,133.91 C165.45,133.75 164.03,133.56 162.6,133.42 L164.81,132.96 C164.98,131.95 165.13,130.93 165.28,129.91 Z" id="Path" fill="#8684A6"></path>
            <path d="M102.06,135 L100.62,133.81 C102,132.92 102.48,133.32 102.06,135 Z" id="Path" fill="#4C4568"></path>
            <path d="M162.28,133.49 L162.36,133.94 C162.55,134.92 162.4,135.76 161.93,136.45 L160.46,135.8 C160.75,134.43 161.36,133.66 162.28,133.49 Z" id="Path" fill="#747CD6"></path>
            <polygon id="Path" fill="#786F8B" points="159.29 135.3 159.86 135.55 159.55 135.44"></polygon>
            <path d="M20.15,141.77 C23.13,143.17 23.73,145.84 24.3,148.8 C23.28,149.17 22.26,149.54 21.24,149.92 C22.17,147.27 22.69,146.32 21.03,143.76 C18.42,144.27 16.03,144.14 14.17,146.33 C13.47,148.41 15.33,150.9 15.95,152.89 C13.57,151.44 12.5,149.77 12.02,147.02 C12.5,143.4 16.67,140.57 20.15,141.77 Z" id="Path" fill="#BCC3FA"></path>
            <path d="M230.1,141.03 C229.63,142.64 227.9,143.78 226.91,145.11 C228.63,148.59 233.23,150.54 236.03,147.01 C236.04,145.74 236.06,144.48 236.08,143.21 C236.71,143.54 237.35,143.87 237.98,144.21 C237.41,145.99 237.01,148.29 235.73,149.7 C232.74,153.02 225.76,150.68 225.94,146 C226.19,143.6 226.86,140.15 230.1,141.03 Z" id="Path" fill="#BCC3F9"></path>
            <path d="M76.8,147.18 C76.85,149.53 76.9,151.88 76.97,154.24 C75.31,154.25 73.66,154.25 72,154.26 C71.98,152.87 71.95,151.49 71.92,150.1 C69.55,150.15 66.72,149.7 64.49,150.55 C62.35,151.54 61.83,153.79 63.48,155.57 C66.9,158.02 72.54,158.38 75.53,161.45 C79.12,165.27 77.98,172.02 72.89,173.91 C68.07,175.58 62.02,174.61 57.12,173.59 C57.08,171.21 57.08,168.84 57.08,166.46 C58.63,166.49 60.18,166.51 61.73,166.54 C61.68,167.81 61.63,169.08 61.59,170.36 C64.34,170.49 67.52,171.04 70.17,170.24 C72.62,169.44 73.21,166.31 71.28,164.69 C68.01,162.19 62.11,161.98 59.17,158.8 C56.06,155.22 57.07,149.51 61.22,147.23 C66.39,144.77 71.5,145.95 76.8,147.18 Z" id="Path" fill="#FFFFFF"></path>
            <path d="M92.49,146.57 C94.9,145.91 97.55,145.96 100.03,146.07 C105.56,146.34 110.46,150.89 111.77,156.17 C112.74,161 112.25,166.14 108.95,170.01 C103.44,176.43 92.39,176.63 86.7,170.31 C80.31,162.92 82.71,149.71 92.49,146.57 Z" id="Path" fill="#FFFFFF"></path>
            <path d="M151.49,146.55 C155.8,145.47 160.9,145.83 165.15,147.08 C166.03,149.15 165.45,152.01 165.61,154.26 C164,154.26 162.38,154.26 160.77,154.25 C160.77,152.88 160.77,151.5 160.77,150.13 C158.29,150.16 155.13,149.6 152.86,150.76 C150.97,151.74 150.68,154.25 152.38,155.62 C155.69,157.94 160.76,158.37 163.93,161.08 C167.64,164.31 167.05,171.31 162.48,173.49 C157.35,176.05 151.02,174.63 145.71,173.42 C145.73,171.14 145.74,168.86 145.73,166.58 C147.38,166.54 149.03,166.51 150.67,166.49 C150.61,167.8 150.55,169.1 150.49,170.41 C152.93,170.56 155.45,170.77 157.89,170.53 C159.69,170.08 161.42,169.12 161.32,166.99 C161.13,164.58 158.13,163.47 156.18,162.82 C152.97,161.62 148.34,160.6 146.82,157.14 C144.92,152.88 147.02,147.98 151.49,146.55 Z" id="Path" fill="#FFFFFF"></path>
            <path d="M173.83,146.24 C181.48,146.3 189.14,146.22 196.79,146.29 C196.76,149.14 196.76,151.98 196.78,154.82 C195.05,154.82 193.32,154.81 191.6,154.79 C191.64,153.4 191.68,152 191.72,150.6 C188.81,150.6 185.9,150.6 182.99,150.62 C183.05,153.38 183.06,156.13 183.05,158.89 C186.31,158.9 189.56,158.89 192.81,158.86 C192.8,160.27 192.79,161.68 192.78,163.09 C189.53,163.06 186.29,163.06 183.04,163.07 C183.05,165.44 183.04,167.81 183.02,170.18 C184.34,170.19 185.66,170.21 186.98,170.23 C187.03,171.64 187.07,173.05 187.1,174.46 C182.65,174.53 178.2,174.51 173.75,174.49 C173.74,173.08 173.73,171.66 173.71,170.25 C175,170.23 176.29,170.2 177.58,170.18 C177.44,163.67 177.43,157.16 177.52,150.64 C176.24,150.52 174.95,150.4 173.67,150.27 C173.72,148.93 173.78,147.58 173.83,146.24 Z" id="Path" fill="#FFFFFF"></path>
            <path d="M94.51,150.71 C97.19,149.91 100.84,149.98 103.05,151.91 C108.64,155.99 108.18,166.82 101.58,169.67 C97.35,171.87 91.5,169.92 89.63,165.48 C87.27,160.4 88.64,152.68 94.51,150.71 Z" id="Path" fill="#000000"></path>
            <path d="M25.69,152.15 L26.53,153.6 C25.32,156.05 21.53,157.01 19.22,158.2 C18.63,158.84 18.04,159.47 17.45,160.1 C16.73,158.58 15.99,157.07 15.26,155.55 C16.11,155.85 16.95,156.16 17.8,156.46 C20.48,155.11 23.02,153.5 25.69,152.15 Z" id="Path" fill="#C6CBFB"></path>
            <path d="M222.63,154.12 C224.85,156.35 227.6,157.49 230.4,158.78 C231.14,158.52 231.88,158.25 232.62,157.98 C231.99,159.36 231.36,160.73 230.74,162.11 C227.77,159.85 224.72,158.04 220.88,157.9 C221.47,156.65 222.05,155.38 222.63,154.12 Z" id="Path" fill="#D9DDFB"></path>
            <path d="M27.8,155.57 L27.84,158.8 C26.53,161.02 24.76,160.23 22.67,160.06 C21.83,161.79 21.02,163.53 20.19,165.27 C17.43,162.3 20.38,160.22 21.63,157.41 C22.59,157.79 23.55,158.12 24.53,158.4 C25.69,157.54 26.72,156.52 27.8,155.57 Z" id="Path" fill="#D8DCFA"></path>
            <path d="M117.04,156.91 L118.61,157.04 C118.98,157.74 118.92,158.61 118.44,159.66 L116.52,159.61 C115.49,159.07 115.67,158.17 117.04,156.91 Z" id="Path" fill="#B0ADBB"></path>
            <path d="M138.29,156.6 L140.34,157.09 C140.68,157.64 141.01,158.19 141.33,158.75 C138.01,160.68 138.57,163.63 137.81,166.9 C137.15,166.56 136.48,166.22 135.81,165.88 C135.81,164.4 136.61,163.58 138.2,163.43 C138.38,161.15 138.37,158.88 138.29,156.6 Z" id="Path" fill="#7A7EBD"></path>
            <path d="" id="Path" fill="#FFB5BC"></path>
            <path d="M218.64,162.38 C219.42,162.84 220.15,163.37 220.9,163.85 C219.89,164.31 218.88,164.78 217.88,165.27 C218.59,167.58 222.32,168.65 224.19,170.03 C225.05,169.85 225.9,169.66 226.76,169.47 C225.9,171 225.05,172.55 224.08,174.01 C221.62,171.15 219.31,169.68 215.84,168.24 C215.87,169.66 215.91,171.08 215.95,172.49 C215.24,172 214.56,171.47 213.92,170.91 C214.34,167.97 216.96,164.84 218.64,162.38 Z" id="Path" fill="#B1B8FA"></path>
            <path d="M120.62,163.5 C121.09,164.18 121.24,165.04 121.08,166.06 L119.28,166.24 L118.63,164.45 C119.24,163.54 119.91,163.22 120.62,163.5 Z" id="Path" fill="#BCBEEE"></path>
            <path d="" id="Path" fill="#FFB8BF"></path>
            <path d="M29.99,163.94 C32.41,164.33 33.63,167.12 34.89,168.92 C33.87,171.71 32.85,173.85 29.84,174.83 C26.55,175.97 24.34,173.63 23.08,170.89 C22.06,166.99 26.4,163.52 29.99,163.94 Z" id="Path" fill="#D8DCFB"></path>
            <path d="" id="Path" fill="#FFB8BF"></path>
            <path d="M31.89,165.76 C32.32,166.82 32.71,167.89 33.05,168.98 C31.92,171.07 29.47,173.03 27.02,173.03 C25.69,173.45 23.97,171.15 24.59,170.01 C25.93,166.87 28.75,166.06 31.89,165.76 Z" id="Path" fill="#0226FF"></path>
            <path d="" id="Path" fill="#FFB7C0"></path>
            <path d="M124.5,169.93 C124.36,173.39 124.36,176.8 125.27,180.17 C126.42,179.09 127.57,178.02 128.74,176.97 C129.91,177.99 131.08,179 132.27,180.01 C132.21,181.06 132.16,182.1 132.1,183.15 C130.97,182.2 129.86,181.24 128.75,180.29 C127.59,181.21 126.45,182.15 125.29,183.08 C124.28,179.19 125.27,175.04 122.62,172.14 L122.36,171.09 C123.06,170.69 123.78,170.3 124.5,169.93 Z" id="Path" fill="#FFFFFF"></path>
            <path d="M132.37,169.71 C133.32,170.11 134.25,170.54 135.18,171.01 C135.07,172.05 134.95,173.09 134.83,174.13 C134.03,173.72 133.23,173.31 132.44,172.89 C132.41,171.83 132.39,170.77 132.37,169.71 Z" id="Path" fill="#A5A0BB"></path>
            <path d="M211.57,173.52 C212.71,173.84 213.34,174.73 214.22,175.49 C213.08,175.44 211.94,175.38 210.81,175.32 C210.41,176.84 210.06,178.37 209.71,179.9 C211.56,181.35 213.4,182.52 215.64,183.31 C217.09,181.47 218.16,179.65 220.29,178.51 C219.31,181.36 217.97,183.86 214.99,184.99 C211.59,185.46 210,183.34 207.91,181.14 C207.95,179.82 207.98,178.49 208,177.16 C209.14,175.91 210.27,174.62 211.57,173.52 Z" id="Path" fill="#B9C0F9"></path>
            <path d="" id="Path" fill="#FFB4BD"></path>
            <path d="M38.82,174.83 C40.03,176.17 41.16,177.57 42.3,178.97 C41.39,179.58 40.48,180.19 39.57,180.8 C39.36,178.98 40.98,176.72 38.04,176.96 C36.08,178.12 37.89,180.53 38.04,182.24 C36.88,183.48 36.03,185.31 34.03,185 C32.01,184.85 30.55,181.89 29.58,180.36 C30.39,179.92 31.19,179.48 31.99,179.05 C32.06,180.22 32.17,181.39 32.32,182.55 C33.2,182.81 34.08,183.05 34.98,183.26 C34.99,181.19 34.88,179.08 35.08,177.02 C35.64,175.12 37.18,175.16 38.82,174.83 Z" id="Path" fill="#C2C8FA"></path>
            <path d="" id="Path" fill="#FFB8C0"></path>
            <path d="M79.51,181.3 C81.22,182.51 85.11,183.57 85.18,185.98 C83.25,186.86 82.86,184.73 81.65,183.69 C80.96,184.72 80.27,185.76 79.59,186.8 L82.57,187.19 L81.66,189.14 C80.67,188.55 79.69,187.95 78.71,187.34 C78.41,188.76 78.2,190.17 78.12,191.63 C76.94,190.97 75.76,190.33 74.57,189.68 C76.8,187.07 78.43,184.59 79.51,181.3 Z" id="Path" fill="#B0AFAA"></path>
            <path d="M173.63,181.4 C174.29,182.04 174.92,182.72 175.53,183.42 C174.23,183.44 173.08,183.17 171.92,183.89 C173.24,186.51 174.89,188.83 176.93,190.93 C175.83,191.61 174.74,192.3 173.65,193 C173.6,189.66 171.51,187.71 169.88,185.01 C169.22,186.05 168.56,187.1 167.9,188.15 C166.87,187.95 165.84,187.74 164.81,187.52 C164.18,188.32 163.58,189.14 163.01,189.99 C163.47,191.84 164.42,193.89 166.06,194.98 C167.93,194.97 169.77,193.54 171.5,192.9 C170.4,195.41 167.68,197.04 164.95,196.33 C162.81,195.87 161.75,193.71 161.06,191.84 C160.57,189.8 162.12,187.75 163.98,187.02 C167.49,185.46 170.54,183.7 173.63,181.4 Z" id="Path" fill="#B5B4B0"></path>
            <path d="M46.52,184.43 C48,185.23 49.16,186.43 50.07,187.82 C49.56,188.52 49.04,189.21 48.5,189.88 C47.99,187.58 48.19,186.42 45.74,185.38 C45.44,187.91 45.92,190.36 45.93,192.89 C45.08,194.13 43.7,194.42 42.4,195.04 C41.17,193.9 39.74,192.79 38.77,191.4 C38.22,190.24 40.13,189.55 40.74,188.79 C40.56,189.78 40.37,190.77 40.18,191.75 C40.77,192.29 41.37,192.82 41.96,193.35 C42.65,192.92 43.33,192.49 44.02,192.06 C43.64,190.17 43.17,188.16 43.21,186.23 C44.04,185.19 45.07,184.15 46.52,184.43 Z" id="Path" fill="#FFFFFF"></path>
            <path d="M200.37,185.28 C201.5,185.62 202.62,185.97 203.74,186.34 C206.68,187.39 209.59,188.4 212.7,188.83 C211.81,189.88 210.92,190.93 210.03,191.97 C208.9,191.01 207.96,190.31 206.46,190.04 C205.23,189.49 204.02,188.91 202.82,188.32 C203.92,190.68 204.96,193.14 206.41,195.31 C205.76,196.02 205.1,196.72 204.45,197.43 C203.63,194.45 202.48,191.59 201.4,188.7 C201.04,187.57 200.7,186.43 200.37,185.28 Z" id="Path" fill="#B8BFFA"></path>
            <path d="M89.23,186.58 C89.24,189.83 89.1,193.08 88.93,196.33 C89.77,196.87 90.61,197.41 91.46,197.94 C93.04,195.31 94.19,192.67 94.44,189.57 C95.52,189.97 96.6,190.35 97.68,190.73 C95.46,193.21 93.91,196.3 94.28,199.71 C91.72,198.38 89.14,197.26 86.42,196.3 C86.61,195.09 86.79,193.88 86.96,192.67 C85.85,192.43 84.75,192.16 83.66,191.85 C83.07,192.61 82.49,193.36 81.91,194.12 C81.37,193.75 80.83,193.38 80.29,193.01 C83.42,191.06 86.18,188.63 89.23,186.58 Z" id="Path" fill="#FFFFFF"></path>
            <path d="M32.25,191.77 C34.44,194.21 37.07,196.3 39.11,198.87 C39.28,199.5 39.37,200.16 39.38,200.85 C35.07,197.04 30.94,192.95 27.26,188.52 C29.69,188.52 30.64,190.27 32.25,191.77 Z" id="Path" fill="#0006FE"></path>
            <polygon id="Path" fill="#000000" points="85.83 190.32 86.69 190.28 87.12 190.99 86.7 191.74 85.83 191.78 85.4 191.07"></polygon>
            <path d="M53.83,191.27 C56.01,192.73 58.15,194.3 60.02,196.14 C59.71,196.86 59.32,197.54 58.85,198.18 C58.23,197.07 57.57,195.98 56.88,194.91 C54.91,194.95 54.69,196.65 53.64,197.96 C54.76,198.15 55.89,198.34 57.02,198.51 C56.6,199.3 56.17,200.09 55.73,200.88 C54.85,199.89 53.97,198.9 53.08,197.92 C52.11,199.48 51.46,200.88 51.07,202.69 C49.97,201.82 48.87,200.96 47.76,200.1 C50.04,198.19 52.06,196.05 53.67,193.55 C53.72,192.79 53.78,192.03 53.83,191.27 Z" id="Path" fill="#BAC1FA"></path>
            <path d="M99.03,191.29 L101.38,192.08 C101.68,195.15 100.06,198.34 99.89,201.46 C98.79,201.23 97.68,201 96.57,200.77 C98.07,198.43 98.92,196.34 99.49,193.61 C99.34,192.83 99.19,192.06 99.03,191.29 Z" id="Path" fill="#C9C8C5"></path>
            <path d="M102.42,191.78 C103.8,192.82 105.16,193.88 106.49,194.98 C105.4,196.19 104.28,197.39 103.14,198.56 C103.96,200.04 104.63,201.48 105.93,202.64 C107.51,200.09 108.33,196.63 107.29,193.72 C109.46,194.18 111.69,194.5 113.82,195.13 L114.23,197.46 C113.02,196.72 111.82,195.97 110.63,195.2 C110.3,196.36 109.97,197.52 109.64,198.67 C110.87,198.63 112.11,198.58 113.35,198.54 C112.95,199.26 112.52,199.96 112.06,200.64 C111.19,200.23 110.33,199.81 109.48,199.36 C109.02,201.08 109.34,202.51 109.76,204.18 C107.23,203.57 104.71,202.93 102.23,202.12 C101.81,200.56 101.37,199.01 100.91,197.47 C101.8,196.78 102.68,196.09 103.54,195.36 C103.15,194.17 102.78,192.98 102.42,191.78 Z" id="Path" fill="#B5B4B1"></path>
            <path d="M192.35,192.77 L195.72,193.29 C197.14,194.28 196.97,196.23 197.39,197.79 C199.25,198 201.11,198.2 202.98,198.39 C202.04,199.23 201.09,200.06 200.15,200.89 C198.43,200.23 196.71,199.58 195,198.9 C195.17,196.18 193.77,194.83 192.35,192.77 Z" id="Path" fill="#D2D7FB"></path>
            <path d="M146.26,196.77 C148.13,199.83 146.66,203.37 143.16,204.07 C139.29,204.67 135.37,205.06 131.49,205.62 C132.27,202.62 132,199.98 131.3,197 C129.51,197.51 128.32,197.7 126.49,197.09 L124.88,199.44 C126.13,199.62 127.39,199.75 128.65,199.86 C128.75,200.36 128.84,200.86 128.93,201.37 C127.66,201.35 126.46,201.19 125.23,201.62 C125.23,206.2 127.49,204.35 130.16,203.59 C129.96,204.18 129.74,204.76 129.49,205.33 C127.42,205.58 125.29,205.49 123.2,205.55 C123.97,202.17 124,199.45 123.14,196.08 C125.44,196.24 127.73,196.36 130.01,196.67 C131.61,196.33 133.22,196.01 134.83,195.69 C134.35,196.09 133.87,196.48 133.38,196.87 C133.62,199.24 133.81,201.65 134.25,204 C136.7,204.86 136.17,204.39 137.5,202.62 C138.15,203.17 138.8,203.71 139.45,204.26 C139.12,201.2 138.53,198.46 137.35,195.63 C140.34,195.19 144.34,193.29 146.26,196.77 Z" id="Path" fill="#FFFFFF"></path>
            <path d="M116.58,195.6 C117.72,195.63 118.86,195.75 119.99,195.83 C118.93,199.01 118.37,202.23 119.62,205.46 C118.34,205.29 117.07,205.13 115.79,204.98 C117.29,201.8 117.02,198.96 116.58,195.6 Z" id="Path" fill="#CAC9C5"></path>
            <path d="M190.71,194.71 C193.08,197.45 195.11,200.6 198.01,202.65 C197.08,203.43 196.15,204.23 195.17,204.96 C193.49,201.61 191.7,198.84 188.39,196.89 C189.16,196.17 189.94,195.44 190.71,194.71 Z" id="Path" fill="#CBD1FA"></path>
            <path d="M140.06,195.45 C141.35,195.7 142.64,195.96 143.92,196.25 C144.76,198.02 144.93,199.87 145.15,201.79 C143.99,202.47 142.82,203.16 141.65,203.83 C140.88,201.06 140.36,198.32 140.06,195.45 Z" id="Path" fill="#000000"></path>
            <path d="M185.69,199.47 C186.51,200.3 187.31,201.11 187.95,202.11 C188.39,204.11 186.55,205.31 185.6,206.84 C185.57,205.62 185.52,204.41 185.44,203.2 C184.61,202.02 183.46,201.05 182.46,200.02 C183.53,199.82 184.61,199.64 185.69,199.47 Z" id="Path" fill="#BEC5FB"></path>
            <path d="M65.48,199.88 C66.63,200.63 67.78,201.37 68.94,202.11 C66.18,203.86 64.94,206.52 63.31,209.21 C63.45,209.9 63.6,210.6 63.74,211.29 C62.37,210.55 61.01,209.79 59.65,209.05 C62.58,206.53 64.27,203.5 65.48,199.88 Z" id="Path" fill="#C7CCFA"></path>
            <path d="M150.01,200.03 L151.93,199.88 C153.98,201.58 152.87,202.93 151.46,204.48 C150.93,203.01 150.41,201.54 150.01,200.03 Z" id="Path" fill="#A8A6A0"></path>
            <path d="M181.37,201.2 C183.46,203.99 185.02,207.72 187.9,209.71 C186.8,210.49 185.7,211.28 184.62,212.08 C183.84,208.26 181.74,205.53 178.98,202.92 C179.76,202.33 180.56,201.76 181.37,201.2 Z" id="Path" fill="#D5D9FB"></path>
            <path d="M73.95,205.15 C76.75,206.12 79.51,207.57 82.02,209.15 L81.83,210.87 C80.34,211.34 79.85,209.43 78.8,208.62 C76.74,211.05 75.22,214.25 75.17,217.49 C73.92,216.92 72.66,216.37 71.4,215.82 C73.74,213.14 75.13,210.02 76.31,206.7 C74.82,206.97 73.32,207.21 71.82,207.47 C72.37,206.88 73.01,204.72 73.95,205.15 Z" id="Path" fill="#CBD0FA"></path>
            <path d="M171.43,206.41 C176.19,204.11 180.73,209.58 179.07,213.96 C177.43,217.52 172.22,218.54 169.81,215.18 C167.37,212.05 167.79,208.33 171.43,206.41 Z" id="Path" fill="#C6CBFA"></path>
            <path d="M172.97,206.62 C176.46,209.57 177.01,210.49 177.2,215.12 C176.11,215.38 175.01,215.61 173.91,215.82 C171.96,214.56 170.85,212.33 170.42,210.12 C170.5,208.75 172.19,207.63 172.97,206.62 Z" id="Path" fill="#0122FF"></path>
            <path d="M162.88,211.05 C163.71,211.92 164.41,212.86 165.14,213.81 C164.69,214.75 164.23,215.68 163.78,216.62 C165.55,217.72 167.3,218.84 169.02,220 C165.68,221.21 164.45,219.65 161.81,218.08 C161.89,216.39 162.08,214.79 161.94,213.15 C160.94,212.93 159.94,212.73 158.93,212.56 C159.63,214.26 160.33,215.96 161,217.67 C161.56,219.11 162.23,220.48 162.93,221.85 C161.83,222.28 160.72,222.71 159.62,223.15 C159.45,219.31 158.06,216.15 156.07,212.95 C158.17,212.22 160.62,210.83 162.88,211.05 Z" id="Path" fill="#C9CEFB"></path>
            <path d="M150.88,214.27 C150.61,215.06 150.34,215.84 150.06,216.62 C150.75,219.46 151.54,222.2 152.87,224.81 C151.57,225.08 150.28,225.36 148.98,225.64 C149.2,224.85 149.42,224.06 149.64,223.27 C149.03,221.18 148.47,219.08 147.97,216.96 C147.42,216.53 146.86,216.1 146.31,215.67 C147.83,215.2 149.36,214.74 150.88,214.27 Z" id="Path" fill="#FFFFFF"></path>
            <path d="M105.5,215.51 C106.77,216.3 108.32,216.9 107.95,218.68 C106.97,219.59 105.91,220.39 104.85,221.21 C105.52,222.26 106.19,223.32 106.87,224.37 C106.95,223.27 107.01,222.17 107.08,221.07 C108.13,221.17 109.18,221.27 110.22,221.37 C109.18,222.62 108.07,223.87 107.14,225.2 C107.67,226.09 108.21,226.97 108.78,227.84 C107.38,227.34 105.98,226.84 104.59,226.34 C103.83,223.63 102.45,221.04 101.93,218.28 C101.48,216.59 104.05,215.04 105.5,215.51 Z" id="Path" fill="#D2D6FB"></path>
            <path d="M138.32,216.89 C139.46,216.66 140.6,216.45 141.74,216.26 C141.33,219.98 141.09,223.5 143.41,226.69 C141.97,226.96 140.54,227.24 139.1,227.53 C139.79,225.75 139.86,224.16 139.8,222.27 C138.26,222.45 136.72,222.63 135.18,222.82 C135.68,224.44 136.21,226.04 136.76,227.65 C135.61,227.74 134.47,227.84 133.32,227.95 C133.42,224.24 133.67,220.86 131.52,217.64 C132.91,217.46 134.3,217.26 135.68,217.06 C135.34,218.52 135.03,219.98 134.72,221.45 C136.32,221.39 137.92,221.33 139.51,221.26 C139.11,219.81 138.67,218.36 138.32,216.89 Z" id="Path" fill="#FFFFFF"></path>
            <path d="M104.28,217.19 C106.17,215.86 106.92,218.8 104.95,219.23 C103.88,218.97 103.66,218.29 104.28,217.19 Z" id="Path" fill="#1127FA"></path>
            <path d="M129.22,220.59 C128.14,219.87 127.06,219.14 125.99,218.4 C125.03,218.66 124.07,218.93 123.12,219.2 C122.2,222.55 122.2,224.03 123.88,227.11 C125.58,226.99 127.28,226.82 128.98,226.81 C130.04,228.55 126.12,228.72 125.1,228.77 C120.02,228.16 118.03,222.12 121.59,218.59 C123.91,216.6 129.79,216.14 129.22,220.59 Z" id="Path" fill="#C0C6FA"></path>
            <path d="" id="Path" fill="#FFBCBD"></path>
            <path d="M99.62,220.3 C100.34,220.7 101.05,221.11 101.77,221.52 C100.38,223.67 103.38,225.29 104.29,227.05 C101.99,226.38 100.42,225.7 98.85,223.93 C99.08,222.71 99.34,221.5 99.62,220.3 Z" id="Path" fill="#B8C0F9"></path>
            <path d="" id="Path" fill="#FFBBBC"></path>
        </g>
    </g>
</svg>