<?xml version="1.0" encoding="UTF-8"?>
<svg width="255px" height="237px" viewBox="0 0 255 237" version="1.1" xmlns="http://www.w3.org/2000/svg" xmlns:xlink="http://www.w3.org/1999/xlink">
    <!-- Generator: Sketch 52.6 (67491) - http://www.bohemiancoding.com/sketch -->
    <title>sosf_logo</title>
    <desc>Created with Sketch.</desc>
    <g id="Page-1" stroke="none" stroke-width="1" fill="none" fill-rule="evenodd">
        <g id="sosf_logo">
            <path d="M114.45,0 L118.15,0 C116.16,0.91 114.23,1.71 112.02,1.89 C108.25,2.22 104.18,3.38 100.52,2.56 C105.12,1.28 109.88,1.41 114.45,0 Z" id="Path" fill="#FFD0D2"></path>
            <path d="M118.85,0 L137.33,0 C134.25,1.47 131.29,0.96 128,1.04 C124.74,0.94 121.88,1.52 118.85,0 Z" id="Path" fill="#FFC0C4"></path>
            <path d="M138.02,0 L141.73,0 C144.3,0.71 146.91,1.21 149.53,1.73 C145.4,2.28 141.66,2.28 138.02,0 Z" id="Path" fill="#FFCFD1"></path>
            <path d="M149.52,2.15 C154.38,1.77 159.08,2.94 163.47,4.95 C158.75,4.53 154.05,3.57 149.52,2.15 Z" id="Path" fill="#FFD0D1"></path>
            <path d="M96.38,3.37 C97.79,3.01 99.13,3.23 100.54,3.39 C96.09,4.78 91.5,5.56 87.09,7.13 C82.16,8.64 77.62,11.02 72.62,12.1 C74.09,10.96 75.62,9.99 77.37,9.35 C83.57,6.98 89.92,4.88 96.38,3.37 Z" id="Path" fill="#FFD5D6"></path>
            <path d="M112.15,3.82 C138.86,0.63 166.78,5.63 190.44,18.52 C212.19,30.29 230.39,48.48 241.27,70.77 C249.95,88.42 253.72,108.39 251.99,127.98 C250.47,146.99 243.67,165.27 232.91,180.97 C219.93,200.01 201.18,214.93 180.03,223.95 C157.81,233.58 133.13,236.5 109.18,233.24 C84.71,229.9 60.84,219.34 42.38,202.85 C42.37,202.16 42.28,201.5 42.11,200.87 C40.07,198.3 37.44,196.21 35.25,193.77 C33.64,192.27 32.69,190.52 30.26,190.52 C15.76,173.76 6.45,152.6 4.04,130.56 C5.54,126.33 4.92,122.37 5.02,118 C4.95,114.57 5.52,111.5 3.89,108.32 C6.51,80.53 20.2,54.47 40.91,35.88 C60.44,17.96 85.88,6.84 112.15,3.82 Z" id="Path" fill="#0124FF"></path>
            <path d="M163.69,4.99 C171.45,6.08 179.09,9.56 186.12,12.9 C189.83,14.81 193.43,16.07 196.47,19.05 C194.15,18.29 191.99,17.33 189.84,16.15 C183.56,12.71 177.03,9.84 170.16,7.77 C167.88,7.09 165.68,6.34 163.69,4.99 Z" id="Path" fill="#FFD7D8"></path>
            <path d="M118.62,9.31 C121.07,9.2 123.54,9.27 126,9.21 L126.01,10.91 C124.57,10.44 123.14,9.97 121.69,9.51 C121.62,10.93 121.55,12.35 121.48,13.76 C122.66,13.55 123.85,13.34 125.04,13.13 L125.17,15.1 C123.9,14.8 122.63,14.5 121.36,14.2 C121.5,15.65 121.69,17.09 121.91,18.53 C123.36,18.62 124.39,18.43 125.66,17.75 C126.71,18.55 127.45,18.66 127.87,18.06 C128.37,14.89 128.2,11.58 128.29,8.38 C131.51,10.28 132.76,13.92 135.19,16.94 C135.23,14.32 135.06,11.77 134.54,9.21 C135.51,9.27 136.49,9.33 137.47,9.39 C135.99,12.89 136.47,16.66 135.65,20.48 C133.07,18.02 131.54,15.05 129.42,12.22 C129.18,14.68 129.1,17 129.63,19.42 C124.81,19.28 119.99,19.92 115.19,19.79 C113.82,18.53 112.63,17.07 111.38,15.7 C111.13,17.33 111.53,19.05 111.87,20.64 C110.63,20.78 109.39,20.92 108.14,21.06 C108.52,20.42 108.9,19.78 109.29,19.15 C108.9,16.4 108.64,13.69 107.99,10.99 L106.72,12.96 C105.54,12.65 104.36,12.33 103.17,12.01 C103.75,15.34 104.33,18.61 105.79,21.68 C104.52,22.02 103.25,22.35 101.97,22.69 C102.24,21.9 102.5,21.11 102.77,20.31 C102.14,17.59 101.49,14.92 100.37,12.35 C99.49,13.39 98.6,14.43 97.71,15.47 C97.46,14.67 97.24,13.87 97.06,13.05 C101.44,11.67 106.09,11.07 110.58,10.15 C110.68,12.03 110.81,13.91 110.98,15.79 C111.74,15.24 112.48,14.67 113.19,14.06 C114.3,12.23 111.74,10.94 110.94,9.53 C112.4,10.1 114.69,9.85 115.4,11.49 C116.3,13.16 114.7,14.46 114.05,15.93 C115.42,17.15 116.79,18.37 118.27,19.47 C120.87,17.43 118.97,12.13 118.62,9.31 Z" id="Path" fill="#FFFFFE"></path>
            <path d="M147.23,11 C146.76,11.66 146.3,12.32 145.84,12.99 C145.29,12.15 144.72,11.33 144.13,10.52 C138.85,9.35 137.38,19.02 142.24,20.05 C144.26,18.62 143.01,17.26 142.37,15.55 C143.79,15.86 145.21,16.15 146.63,16.43 C146.1,17.82 145.6,19.21 145.12,20.62 C143.47,20.59 141.4,20.91 139.91,20.13 C135.78,18.33 136.59,10.93 140.81,9.76 C142.82,8.87 145.3,10.38 147.23,11 Z" id="Path" fill="#FFFFFF"></path>
            <path d="M148.36,10.53 C152.82,11.72 157.28,12.93 161.79,13.89 C160.99,15.31 160.23,16.75 159.46,18.19 C160.98,18.62 162.51,19.04 164.04,19.47 C164.2,17.99 164.35,16.51 164.49,15.03 C165.6,15.32 166.72,15.6 167.84,15.88 C165.74,19.26 164.84,22.11 164.47,26.09 C163.43,25.7 162.38,25.32 161.34,24.94 C162.2,23.39 162.87,21.85 163.43,20.16 C162.06,19.77 160.7,19.37 159.34,18.97 C158.97,20.62 158.67,22.27 158.46,23.96 C157.38,23.65 156.3,23.36 155.21,23.06 C156.77,20.18 157.82,17.11 158.87,14.02 L156.35,14.8 L154.77,12.27 C153.22,15.63 152.15,18.89 152.72,22.64 C151.23,22.18 149.73,21.73 148.23,21.3 C148.82,20.93 149.42,20.57 150.01,20.21 C150.79,17.31 151.56,14.46 151.45,11.42 C150.24,12.04 149.04,12.68 147.84,13.32 C148,12.39 148.17,11.46 148.36,10.53 Z" id="Path" fill="#FFFFFF"></path>
            <path d="M70.36,12.14 C73.64,11.44 70.96,15.01 69.24,13.81 C69.01,13.15 69.38,12.59 70.36,12.14 Z" id="Path" fill="#FFD2D3"></path>
            <path d="" id="Path" fill="#FFBCBD"></path>
            <path d="M94.97,13.68 C95.16,14.71 95.35,15.74 95.55,16.77 C94.6,16.12 93.65,15.46 92.71,14.79 C92.08,15.52 91.45,16.24 90.83,16.97 C92.8,17.77 94.79,18.52 96.8,19.24 C97.27,20.18 97.74,21.13 98.22,22.07 C96.62,23.73 95.5,25.34 92.97,25.43 C90.73,25.38 91.27,24.49 90.73,22.65 C91.87,23.17 93,23.69 94.14,24.23 C94.83,23.47 95.52,22.71 96.21,21.95 C93.99,20.69 90.47,20.06 89.06,17.86 C88.89,14.46 92.21,13.78 94.97,13.68 Z" id="Path" fill="#BFC5FB"></path>
            <path d="M66.41,14.89 C64.01,17.61 60.92,18.96 57.56,20.1 C60.04,17.47 63.02,15.99 66.41,14.89 Z" id="Path" fill="#FFD8D9"></path>
            <path d="M196.65,18.87 C200.96,20.81 205.29,23.49 208.36,27.12 C204.17,25.02 199.75,22.46 196.65,18.87 Z" id="Path" fill="#FFDCDD"></path>
            <path d="M178.61,20.3 C180.81,21.38 183.09,22.47 185.03,23.96 L185,26.53 C183.79,25.33 182.64,24.09 181.5,22.83 C180.82,24.15 180.18,25.48 179.51,26.81 C180.68,26.9 181.85,26.99 183.02,27.08 C182.63,27.82 182.24,28.56 181.84,29.3 C180.85,28.53 179.85,27.76 178.85,26.99 C178.4,28.66 178.01,30.33 177.67,32.03 C176.39,31.36 175.11,30.7 173.82,30.04 C176,27.84 177.49,25.42 178.66,22.55 C178.64,21.8 178.63,21.05 178.61,20.3 Z" id="Path" fill="#BBC1FA"></path>
            <path d="" id="Path" fill="#FFBFC0"></path>
            <path d="M75.91,20.99 C76.5,21.37 77.01,21.91 77.45,22.6 C76.31,22.7 75.17,22.82 74.04,22.97 C71.81,23.9 74.24,25.66 74.64,27.08 C75.4,26.32 76.18,25.59 76.98,24.88 C77.57,25.25 78.04,25.83 78.4,26.6 C77.14,27.03 75.88,27.47 74.63,27.9 C75.68,29.21 76.75,30.5 77.83,31.78 C76.68,32.4 75.53,33.03 74.39,33.66 C73.63,29.97 72.27,26.72 69.44,24.12 C71.51,23.06 73.63,21.49 75.91,20.99 Z" id="Path" fill="#C2C7F9"></path>
            <path d="M54.41,21.92 C53.29,23.35 52.06,24.56 50.57,25.61 C46.36,28.63 42.18,31.85 38.47,35.47 C35.24,38.58 32.75,41.94 28.81,44.26 C30.09,42.39 31.5,40.71 33.13,39.14 C39.47,32.79 46.4,26.06 54.41,21.92 Z" id="Path" fill="#FFDCDE"></path>
            <path d="M121,23.93 C126.33,23.99 131.67,23.93 137,23.95 C139.15,24.21 141.26,23.49 142.3,25.93 C133.08,24.93 123.87,25.02 114.64,25.85 C116.14,23.42 118.56,24.14 121,23.93 Z" id="Path" fill="#0002FE"></path>
            <path d="M114.64,25.85 C123.87,25.02 133.08,24.93 142.3,25.93 C163.33,28.88 183.31,37.57 199.06,51.91 C211.01,62.68 220.32,76.47 225.32,91.79 C231.03,108.91 231.33,127.72 226.09,144.99 C221.49,160.71 212.18,175.09 200.26,186.26 C186.04,199.51 168.06,208.47 148.99,212.12 C113.98,219.15 76.04,207.62 51.67,181.35 C40.2,168.97 32.02,153.58 28.72,137 C25.05,118.65 27.31,99.22 35.28,82.27 C42.32,66.85 54.03,53.5 67.93,43.87 C81.83,34.06 97.89,28.41 114.64,25.85 Z" id="Path" fill="#FFFFFF"></path>
            <path d="M66.85,26.43 C70.65,26.95 72.98,31.01 71.84,34.64 C70.05,36.72 68.12,38.64 65.14,37.56 C61.79,36.17 61.07,33.28 60.72,29.96 C62.47,28.47 64.28,25.99 66.85,26.43 Z" id="Path" fill="#CFD4FA"></path>
            <path d="M117.53,27.86 C149.67,24.33 182.93,36.22 204.61,60.41 C219.49,76.83 228.22,98.76 227.65,121 C227.67,131.62 225.27,142.34 221.37,152.19 C213.9,170.61 200.34,186.03 183.51,196.49 C158.27,212.22 126.58,216 98.15,207.62 C79.06,201.96 61.43,190.59 48.97,175.01 C39.38,163.23 32.86,149 30.3,134.02 C28.14,120.77 28.93,106.86 33,94.03 C38.87,74.87 51.39,58.3 67.59,46.62 C82.15,36.1 99.64,29.53 117.53,27.86 Z" id="Path" fill="#000000"></path>
            <path d="M191.45,26.85 C191.02,31.16 190.04,35.26 190.22,39.62 C188.9,38.72 187.55,37.84 186.21,36.96 L187.93,35.47 C188.42,33.97 185.94,33.05 184.88,32.61 C183.9,32.13 182.94,34.05 182.2,34.63 C181.55,34.06 180.89,33.49 180.24,32.92 C184.19,31.25 187.52,28.56 191.45,26.85 Z" id="Path" fill="#B2BAF9"></path>
            <path d="M66.81,27.81 C68.92,30.17 69.83,31.89 70.37,35.05 C68.89,35.61 67.83,36.47 66.18,35.9 C64.02,34.07 63.02,31.96 62.8,29.15 C64.13,28.49 65.35,28.07 66.81,27.81 Z" id="Path" fill="#0228FF"></path>
            <path d="M210.16,28.31 C211.21,27.68 213.34,29.74 212.72,30.81 C211.55,31.44 209.54,29.49 210.16,28.31 Z" id="Path" fill="#FFD8D9"></path>
            <path d="M188.93,30.06 C189.08,31.01 188.95,31.86 188.53,32.61 C187.39,33.82 186.08,32.33 185.89,31.13 C186.85,30.22 187.87,29.86 188.93,30.06 Z" id="Path" fill="#3C45FB"></path>
            <path d="M197.96,32.03 C199.02,32.9 200.09,33.77 201.16,34.62 C198.41,36.2 196.86,38.66 194.97,41.09 C195.09,41.79 195.22,42.48 195.34,43.18 C194.05,42.38 192.76,41.58 191.46,40.78 C194.29,38.29 196.78,35.72 197.96,32.03 Z" id="Path" fill="#CED3FB"></path>
            <path d="M216.79,33.86 C220.19,36.03 222.93,38.91 225.17,42.25 C221.71,40.13 218.82,37.4 216.79,33.86 Z" id="Path" fill="#FFDCDE"></path>
            <path d="M204.06,36.73 C205.76,38.39 207.77,40.08 209.05,42.08 C208.57,44.63 206.69,45.12 204.47,45.6 C204.32,47.07 204.17,48.54 204.02,50.01 C204.67,50.52 205.32,51.03 205.97,51.54 C208.39,49.25 211,47.69 212.29,44.55 C213.92,46.41 215.6,48.21 217.3,50 C216.77,50.57 216.24,51.14 215.71,51.71 C215.15,50.19 214.57,48.68 213.94,47.18 C212.7,48.4 211.56,49.66 210.55,51.07 C211.62,51.33 212.7,51.58 213.77,51.83 C213.12,52.53 212.48,53.23 211.83,53.93 C211.26,52.73 210.68,51.52 210.11,50.32 C209,51.75 208.06,53.2 207.21,54.8 C205.53,52.74 203.72,50.82 201.82,48.96 C202.16,47.18 202.54,45.4 202.92,43.63 C204.02,43.55 205.05,43.34 206.01,42.98 C207.84,41.85 206.38,40.89 206.12,39.28 C203.62,41.59 201.28,44.05 199.37,46.89 C198.62,46.16 197.87,45.43 197.13,44.7 C200.13,42.56 202.86,40.37 204.06,36.73 Z" id="Path" fill="#FFFFFF"></path>
            <path d="M49.98,37.93 C50.65,38.36 51.34,38.77 52.03,39.16 C50.63,39.8 49.2,40.42 47.85,41.17 C48.54,42.26 49.26,43.33 50.02,44.37 C50.62,43.31 51.21,42.25 51.81,41.19 C52.5,41.87 53.19,42.56 53.88,43.26 C52.78,43.55 51.68,43.86 50.58,44.16 C51.45,45.38 52.27,46.64 53.16,47.85 C54.27,46.64 55.21,44.09 57,43.9 C57.74,46.86 53.29,48.88 51.53,50.68 C50.32,47.05 47.61,44.95 44.76,42.65 C46.42,41.05 48.03,39.17 49.98,37.93 Z" id="Path" fill="#BDC4FA"></path>
            <path d="M138.5,42.68 C141.15,42.04 144.65,43.07 145.32,46.08 C144.59,49.43 139.99,50.91 137.67,53.19 C139.72,53.5 141.83,53.66 143.85,54.14 L143.97,55.98 C140.89,55.97 137.96,55.46 134.94,54.9 C136.75,51.9 139.71,50.43 141.97,47.94 C143.54,45.26 141.96,44.69 140.11,43.08 C139.21,43.98 138.32,44.92 137.36,45.75 C136.8,44.15 136.88,43.39 138.5,42.68 Z" id="Path" fill="#FFFFFF"></path>
            <path d="M117.03,43.29 C118.83,42.64 118.78,44.94 119.36,45.99 C117.61,45.36 115.87,44.82 114.05,44.45 C114.61,47.87 115.05,51.45 116.16,54.75 L118.07,56.14 C116,56.56 113.91,56.95 111.83,57.36 C112.35,56.62 112.87,55.89 113.4,55.16 C112.57,51.95 112.3,48.54 111.2,45.41 C108.93,45.54 108.3,47.32 106.93,48.8 C105.49,47.57 104.69,46.25 102.87,47.88 C101.63,49.11 102.62,50.44 104.09,50.8 C106.26,51.72 110.18,51.85 110.19,55 C110.43,57.65 108.09,58.97 105.87,59.53 C101.84,60.46 98.32,62.29 94.59,64 C95.62,59.93 92.61,54.88 90.08,51.81 C92.82,50.57 95.63,49.46 98.44,48.39 C98.69,49.18 98.94,49.97 99.19,50.75 C97.27,50.48 95.63,50.55 93.72,50.84 C94.34,52.56 95,54.27 95.68,55.98 C96.78,55.11 97.89,54.23 99.04,53.43 C99.45,54.06 99.85,54.69 100.24,55.34 C98.74,55.71 97.24,56.11 95.75,56.51 C96.49,58.07 97.21,59.63 97.94,61.19 C99.02,60.75 100.11,60.31 101.19,59.89 C101.74,58.74 102.29,57.61 102.86,56.48 C103.58,57.22 104.29,57.96 105.01,58.7 C105.86,58.33 106.7,57.93 107.52,57.5 C108.49,56.69 107.99,54.57 106.57,54.39 C104.82,53.65 102.34,53.4 100.98,52.03 C99.43,50.14 100.32,47.44 102.6,46.67 C107.31,45.2 112.17,44.13 117.03,43.29 Z" id="Path" fill="#FFFFFF"></path>
            <path d="M225.87,42.84 C227.7,44.38 229.01,46.22 230.12,48.33 C227.47,46.79 226.71,45.81 225.87,42.84 Z" id="Path" fill="#FFDDE0"></path>
            <path d="M148.5,44.6 C150.68,43.53 153.16,44.73 154.14,46.84 C155.49,49.49 154.6,52.68 153.14,55.1 C151.6,57.34 148.72,58.68 146.38,56.66 C142.55,53.61 144.96,46.85 148.5,44.6 Z" id="Path" fill="#FFFFFF"></path>
            <path d="M43.08,44.74 C43.88,45.22 44.62,45.77 45.33,46.39 C43.99,46.63 42.66,46.95 41.36,47.34 C39.36,50.49 42.83,54.19 45.97,54.33 C47.95,53.46 49.21,51.41 51.15,50.38 C50.13,52.64 48.63,54.44 46.93,56.21 C44.46,55.93 42.38,56.48 40.57,54.42 C38.47,52.68 39.05,50.65 38.85,48.22 C40.18,47.03 41.48,45.55 43.08,44.74 Z" id="Path" fill="#C6CBF9"></path>
            <path d="M151.03,44.84 C151.56,45.83 152.08,46.83 152.58,47.84 C151.85,51.02 151.52,54.47 148.94,56.76 C147.37,56.34 146.68,55.42 146.88,54 C147.27,50.44 147.75,46.92 151.03,44.84 Z" id="Path" fill="#000000"></path>
            <path d="M26.15,47.02 C28,47.23 26.56,49.71 25.23,48.85 C24.83,48.02 25.13,47.41 26.15,47.02 Z" id="Path" fill="#FFD1D7"></path>
            <path d="M156.71,46.89 C158.47,47.25 160.23,47.55 161.99,47.88 C160.54,51.38 158.89,54.94 158.05,58.63 L159.97,60.48 C160.68,59.66 161.4,58.83 162.11,58.01 C162.08,59.07 162.04,60.13 161.99,61.19 C163.95,61.55 165.13,62.66 166.53,60.57 C168.41,58.23 164.95,56.35 163.75,54.68 C164.97,55.16 166.18,55.66 167.38,56.16 C168.18,55.05 170.97,53.4 169.12,52.05 C168.07,50.24 165.96,51.93 164.59,52.39 C164.95,51.46 165.34,50.55 165.77,49.65 C168.55,50.03 171.24,51.16 172.25,54.01 C171.58,56.27 170.36,56.55 168.3,57.15 C169.08,58.98 170.27,59.9 168.87,61.83 C166.3,65.07 162.44,62.49 159.93,60.62 C157.25,60.03 154.9,59.17 152.5,57.82 L155.28,57.55 C156.72,54.9 157.62,51.9 158.63,49.06 C158,48.33 157.36,47.61 156.71,46.89 Z" id="Path" fill="#FFFFFF"></path>
            <path d="M232.17,51.24 C233.51,50.39 234.88,52.95 233.06,53.11 C232.06,52.71 231.77,52.08 232.17,51.24 Z" id="Path" fill="#FFD4D8"></path>
            <path d="" id="Path" fill="#FFB9C0"></path>
            <path d="M124.76,52.24 C124.89,53.41 125.01,54.57 125.1,55.73 C124.12,55.8 123.13,55.86 122.14,55.92 C121.85,54.95 121.55,53.99 121.25,53.02 C122.41,52.74 123.58,52.48 124.76,52.24 Z" id="Path" fill="#9C9B96"></path>
            <path d="M33.12,54.99 L36.1,53.83 C38.43,54.14 38.61,56.22 39.43,58 C41.34,57.97 43.25,57.94 45.16,57.92 C44.43,58.71 43.67,59.47 42.88,60.21 C41.08,60.25 39.25,59.99 37.45,59.8 C37.22,56.38 35.7,56.39 33.12,54.99 Z" id="Path" fill="#E6E9FB"></path>
            <path d="M220.11,53.29 C220.87,54.35 221.64,55.41 222.38,56.48 C219.02,58.13 216.22,60.07 214.02,63.15 C213.23,62.03 212.43,60.92 211.62,59.82 C215.15,59.23 218.59,56.51 220.11,53.29 Z" id="Path" fill="#E4E7FA"></path>
            <path d="" id="Path" fill="#FFBAC3"></path>
            <path d="" id="Path" fill="#FFB9C0"></path>
            <path d="M69.3,55.81 C72.06,58.3 74.29,61.29 77.25,63.6 C78.43,71.35 83.79,74.6 88.33,80.16 C84.53,78.77 81.13,76.55 78.1,73.89 C74.94,71.06 72.86,67.11 70.04,63.84 C68.75,61.58 69.19,58.32 69.3,55.81 Z" id="Path" fill="#FFFFFF"></path>
            <path d="M193.91,55.52 C193.92,58.52 194.9,61.86 192.76,64.35 C187.91,70.97 183.63,76.98 175.48,79.78 L175.61,79.46 C177.91,76.43 180.86,74.22 183,71.01 C184.57,68.7 185.48,66.12 186.13,63.41 C188.99,61.03 191.38,58.23 193.91,55.52 Z" id="Path" fill="#FFFFFF"></path>
            <path d="M32.48,56.79 C35.49,58.8 38.17,61.18 41.37,62.9 C40.59,63.86 39.8,64.82 39.02,65.78 C37.13,63.02 34.9,61.02 32.02,59.35 L30.97,60.05 C31.7,62.6 36.44,63.66 37.72,66.39 C38.16,69.02 36.14,70.87 34.05,72.05 C31.41,71.42 28.98,69.5 26.71,68.07 C26.03,68.24 25.35,68.42 24.67,68.6 C25.44,67.23 26.23,65.86 27,64.49 C29.01,67.23 31.72,68.74 34.73,70.15 C35.47,69.34 36.21,68.53 36.95,67.71 C34.71,64.87 32.13,62.74 28.42,62.28 C29.7,60.5 30.98,58.72 32.33,56.98 L32.48,56.79 Z" id="Path" fill="#CBD0F9"></path>
            <path d="M18.28,58.15 C19.99,58.27 17.7,62.51 16.37,61.87 C15.86,60.63 17.11,58.63 18.28,58.15 Z" id="Path" fill="#FFD9DD"></path>
            <path d="M77.37,57.71 C81.75,63.2 86.39,68.08 92.83,71.16 C98.59,73.74 104.4,76.53 108.77,81.27 C110.66,83.44 110.61,86.32 110.11,89 C108.73,92.6 105.65,95.55 104.24,99.12 C103.82,101.42 103.81,104.68 105.52,106.5 C106.92,107.82 108.98,109.08 110.97,108.96 C115.36,108.85 120.71,106.98 122.94,102.93 C124.05,99.95 123.65,96.23 122.72,93.24 C120.26,92.42 117.26,93.04 114.71,93.17 C115.28,91.62 115.79,89.99 116.57,88.53 C119.16,86.88 122.27,86.9 124.61,84.6 C126.79,82.32 130.31,83.51 133.01,83.97 C134.76,84.52 137.47,84.99 138.04,87 C140.46,92.56 139.49,98.21 141.36,103.73 C142.85,107.1 147.55,108.81 150.99,109.05 C155.8,109.6 160.35,104.79 159.25,99.95 C157.94,96.03 154.61,92.78 153.08,88.92 C152.02,85.88 153.01,82.52 155.32,80.33 C159.15,76.62 164.01,73.94 168.9,71.9 C175.98,68.73 181.55,63.51 185.9,57.16 C186.01,59.24 186.11,61.33 186.13,63.41 C185.48,66.12 184.57,68.7 183,71.01 C180.86,74.22 177.91,76.43 175.61,79.46 L175.3,79.84 L175.48,79.78 C183.63,76.98 187.91,70.97 192.76,64.35 C193.34,68.71 192.19,72.36 190.3,76.2 C188.6,79.51 186.12,82.04 184.06,85.1 C189.67,81.79 192.88,76.82 196.75,71.83 C196.3,74.47 195.53,77.02 194.64,79.54 C194.1,80.68 193.59,81.83 193.06,82.98 C191.55,85.78 189.56,88.23 187.88,90.93 C193.01,88.17 195.03,83.63 198.96,79.6 C197.92,83.08 196.56,86.33 196.35,90 C197.56,89.43 198.78,88.86 199.99,88.29 C197.98,94.17 194.42,98.85 190.25,103.36 C191.23,103.5 192.21,103.64 193.18,103.79 C191.86,105.61 190.55,107.44 189.23,109.26 C190.18,109.81 191.13,110.37 192.07,110.93 C190.61,112.03 189.15,113.13 187.69,114.23 C188.36,114.78 189.03,115.33 189.69,115.89 C188.26,116.78 186.83,117.67 185.36,118.49 C183.91,119.19 182.65,120.15 184.32,121.56 C183.38,121.88 182.44,122.2 181.5,122.53 C181.68,123.21 181.86,123.89 182.04,124.58 C179.5,125.84 178.1,125.73 177.78,128.96 C175.61,129.87 174.3,129.89 173.5,132.42 C172.37,132.29 171.23,132.17 170.1,132.06 L168.28,131.91 C168.13,132.93 167.98,133.95 167.81,134.96 L165.6,135.42 L165.28,135.49 C164.36,135.66 163.75,136.43 163.46,137.8 L162.86,137.55 L162.29,137.3 C160.98,136.73 159.65,136.03 158.28,135.64 L158.3,138.97 C155.4,137.55 152.48,136.17 149.52,134.86 C150.06,136.25 150.6,137.64 151.15,139.02 C148.6,139.54 148.43,141.02 147.3,143.05 C143.74,140.39 140.59,137.31 137.43,134.2 C137.54,138.63 137.3,142.71 139.05,146.88 C140.82,151.13 142.98,155.2 144.82,159.42 L143.34,159.09 L141.29,158.6 C141.37,160.88 141.38,163.15 141.2,165.43 C139.61,165.58 138.81,166.4 138.81,167.88 C138.58,169.59 138.39,171.3 138.18,173.01 C137.25,172.54 136.32,172.11 135.37,171.71 C135.39,172.77 135.41,173.83 135.44,174.89 C135.5,177.28 135.44,179.63 135.27,182.01 C134.08,181 132.91,179.99 131.74,178.97 C130.57,180.02 129.42,181.09 128.27,182.17 C127.36,178.8 127.36,175.39 127.5,171.93 C126.78,172.3 126.06,172.69 125.36,173.09 C124.92,171.42 124.44,169.75 124.08,168.06 C124.24,167.04 124.09,166.18 123.62,165.5 C122.91,165.22 122.24,165.54 121.63,166.45 L121.55,165.44 C121.49,164.18 121.45,162.92 121.44,161.66 C121.92,160.61 121.98,159.74 121.61,159.04 L120.04,158.91 L118.45,159.16 C120.28,155.12 122.42,151.21 124.1,147.1 C125.8,142.86 125.76,138.42 126,133.91 C122.64,137.15 119.57,140.53 115.63,143.1 C115.14,141.96 114.66,140.82 114.18,139.68 C113.36,139.53 112.55,139.37 111.74,139.22 C112.44,137.73 113.15,136.25 113.83,134.76 C110.79,136.1 107.81,137.57 104.83,139.02 L105.06,137 C105.48,135.32 105,134.92 103.62,135.81 C102.91,136.29 102.19,136.76 101.46,137.19 L99.63,137.07 C98.07,134.94 97.57,134.94 95,134.78 C95,133.81 95,132.84 95,131.87 L93.18,132.04 C91.92,132.18 90.68,132.33 89.44,132.51 C89.29,131.67 89.14,130.83 89,129.99 C87.71,129.69 86.42,129.4 85.13,129.1 C85.05,128.1 84.96,127.09 84.87,126.09 C83.72,125.65 82.57,125.22 81.42,124.8 C81.5,123.97 81.58,123.14 81.66,122.3 C80.24,121.88 78.81,121.45 77.39,121.03 C78.82,117.88 75.65,117.47 73.8,115.76 C74.49,115.31 75.18,114.86 75.87,114.41 C74.38,113.23 72.9,112.07 71.41,110.9 C72.31,110.42 73.21,109.94 74.12,109.46 C72.87,107.52 71.59,105.6 70.3,103.69 L72.98,103.33 C68.87,98.88 65.21,94.29 63.29,88.44 C64.82,89.04 66.35,89.63 67.88,90.23 L67.23,89.7 C66.99,88.92 66.75,88.14 66.52,87.36 C65.73,84.54 64.87,81.73 64.28,78.86 C64.72,79.28 65.16,79.71 65.59,80.14 C67.41,84.19 70.38,87.25 73.68,90.13 C75.21,91.96 76.26,89.49 74.05,89.21 C72.98,87.5 71.88,85.82 70.85,84.09 C70.13,82.73 69.45,81.35 68.76,79.98 C67.75,77.41 67.02,74.85 66.56,72.13 C69.93,76.52 73.17,80.75 77.59,84.17 C78.09,84.97 79.55,86.82 80.1,85.03 C80.02,84.02 79.27,83.46 77.85,83.34 C76.44,81.47 74.97,79.68 73.69,77.72 L73.39,77.22 C72.78,76.11 72.19,74.99 71.63,73.86 L71.22,73.12 L70.8,72.43 C70.56,69.57 70.26,66.71 70.04,63.84 C72.86,67.11 74.94,71.06 78.1,73.89 C81.13,76.55 84.53,78.77 88.33,80.16 C83.79,74.6 78.43,71.35 77.25,63.6 C77.22,61.63 77.26,59.68 77.37,57.71 Z" id="Path" fill="#0126FF"></path>
            <path d="" id="Path" fill="#FFBBC2"></path>
            <path d="" id="Path" fill="#FFBDC7"></path>
            <path d="M225.32,60.63 C226.57,62.64 231,66.36 227.53,68.24 C227.12,66.68 227.02,65.23 226.11,63.87 C225.05,64.39 224.01,64.94 222.98,65.51 C223.81,66.33 224.63,67.17 225.42,68.03 C223.37,70.62 223.02,67.48 222.12,65.96 C221.05,66.73 219.98,67.49 218.9,68.25 C220.04,69.46 221.18,70.65 222.33,71.85 C221.67,72.07 221,72.3 220.34,72.52 C218.98,70.42 217.65,68.29 216.35,66.15 C220,65.2 222.61,63.13 225.32,60.63 Z" id="Path" fill="#BEC5F9"></path>
            <path d="M15.18,63.1 C16.76,63.06 15.76,65.55 14.77,65.79 C13.17,65.8 14.14,63.35 15.18,63.1 Z" id="Path" fill="#FFD8DC"></path>
            <path d="M60.85,62.79 C64.16,65.77 66.8,70.48 70.8,72.43 L71.22,73.12 L71.39,73.53 L71.63,73.86 C72.19,74.99 72.78,76.11 73.39,77.22 L73.69,77.72 C74.97,79.68 76.44,81.47 77.85,83.34 L77.59,84.17 C73.17,80.75 69.93,76.52 66.56,72.13 C67.02,74.85 67.75,77.41 68.76,79.98 C63.97,75.27 60.96,69.63 60.85,62.79 Z" id="Path" fill="#FFFFFF"></path>
            <path d="M240.2,63.28 C241.4,62.79 242.48,64.9 241.77,65.8 C240.56,66.29 239.45,64.19 240.2,63.28 Z" id="Path" fill="#FFD4D9"></path>
            <path d="M202.25,62.83 C202.38,69.29 199.35,75.25 194.64,79.54 C195.53,77.02 196.3,74.47 196.75,71.83 C192.88,76.82 189.67,81.79 184.06,85.1 C186.12,82.04 188.6,79.51 190.3,76.2 C192.04,72.53 195.19,70.75 197.78,67.8 C199.27,66.14 200.7,64.44 202.25,62.83 Z" id="Path" fill="#FFFFFF"></path>
            <path d="" id="Path" fill="#FFBCC5"></path>
            <path d="M13.1,67.74 C12.16,71.93 10.35,75.84 7.91,79.37 C8.71,74.95 10.34,71.28 13.1,67.74 Z" id="Path" fill="#FFD9DD"></path>
            <path d="" id="Path" fill="#FFB9C2"></path>
            <path d="M25.98,69.95 C29.83,69.58 35.2,74.16 32.15,78.09 C30.52,80.8 28.13,80.81 25.36,81.48 C29.8,82.94 28.87,87 26.1,89.53 C25.29,88.98 24.5,88.4 23.73,87.81 C24.94,87.47 26.15,87.13 27.36,86.79 C26.9,86.06 26.52,82.95 25.16,84.23 C22.86,84.98 20.43,88.08 18.24,85.72 C16.33,83.46 17.7,80.9 19.91,79.62 C20.65,80.08 21.37,80.57 22.06,81.11 C20.91,81.37 19.76,81.63 18.61,81.9 C19.2,83.09 18.78,84.33 20.51,84.13 C21.9,83.49 23.19,82.61 24.51,81.83 C24.7,81.34 24.9,80.85 25.1,80.37 C22.75,79.06 21.88,77.44 20.82,75.1 C21.99,73.25 23.37,69.86 25.98,69.95 Z" id="Path" fill="#C9CEFB"></path>
            <path d="M230.97,69.16 C231.53,70.37 232.09,71.59 232.66,72.8 C229.22,73.31 226.47,75.07 223.57,76.84 C224.59,78 225.76,78.86 227.1,79.43 L226.21,81.47 C229.39,80.28 232.5,79.29 235.12,77.03 C236.09,80.04 238.66,83.66 236.75,86.68 C235.07,88.4 232.54,89.51 230.12,88.94 C227.82,87.98 227.11,86.03 226.17,83.91 C224.83,80.59 223.12,77.48 221.4,74.35 C224.13,73.68 226.68,72.69 229.04,71.14 C229.69,70.49 230.33,69.83 230.97,69.16 Z" id="Path" fill="#D3D7FB"></path>
            <path d="" id="Path" fill="#FFB5BD"></path>
            <path d="M24.29,72.01 C26.82,71.74 29.58,72.95 31.03,75.03 C31.56,77.3 31.03,78.06 29.02,79.02 C26.74,78.57 24.64,77.55 23.12,75.75 C22.39,73.85 23.13,73.37 24.29,72.01 Z" id="Path" fill="#0223FF"></path>
            <path d="M205.78,71.65 C204.38,76.9 202.01,81.57 198.45,85.68 C197.44,86.76 197.24,87.67 197.11,89.1 C201.39,86.26 204.38,82.27 208.08,78.8 C206.68,82.68 204.71,86.32 203.08,90.12 C204.73,89.51 206.38,88.89 208.04,88.29 C205.17,94.43 200.54,98.71 195.59,103.13 C196.58,103.28 197.58,103.43 198.57,103.59 C197.07,105.45 195.52,107.27 193.97,109.09 C194.9,109.67 195.83,110.25 196.75,110.84 C194.92,111.94 193.09,113.05 191.28,114.19 C192.01,114.67 192.75,115.16 193.48,115.65 C191.77,116.67 190.07,117.71 188.37,118.75 L189.91,120.69 C187.51,121.74 183.59,120.99 184.38,124.81 C183.1,125.26 181.48,125.49 180.45,126.39 C180.21,127.27 180.01,128.17 179.84,129.07 C177.37,129.91 175.57,129.4 175.44,132.74 C174.79,132.63 174.14,132.53 173.5,132.42 C174.3,129.89 175.61,129.87 177.78,128.96 C178.1,125.73 179.5,125.84 182.04,124.58 C181.86,123.89 181.68,123.21 181.5,122.53 C182.44,122.2 183.38,121.88 184.32,121.56 L185.83,121 C185.92,120.18 185.77,119.34 185.36,118.49 C186.83,117.67 188.26,116.78 189.69,115.89 C189.03,115.33 188.36,114.78 187.69,114.23 C189.15,113.13 190.61,112.03 192.07,110.93 C191.13,110.37 190.18,109.81 189.23,109.26 C190.55,107.44 191.86,105.61 193.18,103.79 C192.21,103.64 191.23,103.5 190.25,103.36 C194.42,98.85 197.98,94.17 199.99,88.29 C198.78,88.86 197.56,89.43 196.35,90 C196.56,86.33 197.92,83.08 198.96,79.6 C195.03,83.63 193.01,88.17 187.88,90.93 C189.56,88.23 191.55,85.78 193.06,82.98 C195.57,80.7 198.55,79.28 200.82,76.82 C202.47,75.09 203.99,73.26 205.78,71.65 Z" id="Path" fill="#FFFFFF"></path>
            <path d="M57.5,71.96 C58.31,72.65 59.1,73.37 59.87,74.1 C61.39,75.65 62.82,77.25 64.28,78.86 C64.87,81.73 65.73,84.54 66.52,87.36 C61.97,83.46 58.99,77.7 57.5,71.96 Z" id="Path" fill="#EDEDEC"></path>
            <polygon id="Path" fill="#736999" points="71.22 73.12 71.63 73.86 71.39 73.53"></polygon>
            <path d="" id="Path" fill="#FFB5BD"></path>
            <polygon id="Path" fill="#FFC7CD" points="246.1 75.27 246.91 75.27 247.31 76 246.9 76.73 246.09 76.73 245.69 76"></polygon>
            <path d="M73.39,77.22 L73.69,77.72 L73.39,77.22 Z" id="Path" fill="#978EB7"></path>
            <path d="" id="Path" fill="#FFB2B9"></path>
            <polygon id="Path" fill="#8B7C9F" points="175.61 79.46 175.48 79.78 175.3 79.84"></polygon>
            <polygon id="Path" fill="#FFC8CD" points="7.08 80.17 7.89 80.15 8.31 80.87 7.92 81.61 7.11 81.63 6.69 80.91"></polygon>
            <path d="M55.18,78.88 C56.04,79.69 56.87,80.53 57.69,81.37 C60.52,84.72 63.58,87.28 67.23,89.7 L67.88,90.23 C66.35,89.63 64.82,89.04 63.29,88.44 C65.21,94.29 68.87,98.88 72.98,103.33 L70.3,103.69 C71.59,105.6 72.87,107.52 74.12,109.46 C73.21,109.94 72.31,110.42 71.41,110.9 C72.9,112.07 74.38,113.23 75.87,114.41 C75.18,114.86 74.49,115.31 73.8,115.76 C75.65,117.47 78.82,117.88 77.39,121.03 C78.81,121.45 80.24,121.88 81.66,122.3 C81.58,123.14 81.5,123.97 81.42,124.8 C82.57,125.22 83.72,125.65 84.87,126.09 C84.96,127.09 85.05,128.1 85.13,129.1 C86.42,129.4 87.71,129.69 89,129.99 C89.14,130.83 89.29,131.67 89.44,132.51 C88.9,132.61 88.37,132.72 87.83,132.83 C87.77,132.08 87.7,131.33 87.64,130.57 C86.21,130.08 84.77,129.59 83.34,129.09 C83.13,128.16 82.88,127.23 82.6,126.31 C81.44,125.62 80.04,125.22 78.77,124.77 C78.75,123.96 78.7,123.15 78.62,122.35 C76.96,121.66 75.14,121.22 73.41,120.72 L74.89,118.81 C73.15,117.75 71.41,116.68 69.65,115.63 C70.39,115.12 71.13,114.6 71.87,114.09 C70.06,113.02 68.26,111.95 66.45,110.89 C67.37,110.28 68.28,109.67 69.19,109.06 C67.64,107.27 66.08,105.48 64.51,103.71 C65.51,103.5 66.51,103.28 67.51,103.07 C62.66,98.69 58.05,94.4 55.21,88.38 C56.78,88.9 58.34,89.41 59.91,89.93 C58.4,86.22 56.63,82.62 55.18,78.88 Z" id="Path" fill="#FFFFFF"></path>
            <path d="M65.59,80.14 L65.4,79.72 C67.53,80.85 69.38,82.17 70.85,84.09 C71.88,85.82 72.98,87.5 74.05,89.21 L73.68,90.13 C70.38,87.25 67.41,84.19 65.59,80.14 Z" id="Path" fill="#E8E6E5"></path>
            <polygon id="Path" fill="#FFC1C7" points="248.09 80.32 248.9 80.31 249.31 81.04 248.91 81.78 248.1 81.78 247.69 81.05"></polygon>
            <path d="M235.33,80.32 C235.59,81.53 235.81,82.74 235.97,83.96 C234.68,85.92 232.27,86.85 230,87.04 C228.63,85.97 227.26,85.36 228.07,83.37 C230.39,82.16 232.91,81.31 235.33,80.32 Z" id="Path" fill="#021CFF"></path>
            <polygon id="Path" fill="#FFC9CE" points="6.09 83.15 6.89 83.14 7.31 83.87 6.91 84.6 6.1 84.62 5.69 83.89"></polygon>
            <path d="M77.85,83.34 C79.27,83.46 80.02,84.02 80.1,85.03 C79.55,86.82 78.09,84.97 77.59,84.17 L77.85,83.34 Z" id="Path" fill="#4A46B2"></path>
            <polygon id="Path" fill="#FFBEC4" points="249.08 83.31 249.88 83.28 250.3 84 249.92 84.75 249.12 84.78 248.7 84.06"></polygon>
            <polygon id="Path" fill="#FFC2C8" points="5.08 86.19 5.89 86.17 6.3 86.9 5.92 87.64 5.11 87.66 4.69 86.94"></polygon>
            <path d="M250.17,86.35 C251.71,85.9 251.71,88.99 250.17,88.56 C249.5,87.82 249.5,87.09 250.17,86.35 Z" id="Path" fill="#FFC6CB"></path>
            <path d="M125.47,87.07 C127.91,86.56 130.27,86.28 132.76,86.32 C131.12,88.66 127.06,90.46 125.47,87.07 Z" id="Path" fill="#C3C5FB"></path>
            <path d="M4.92,88.57 C4.83,91.49 4.33,93.77 3.08,96.41 C3,93.39 3.21,91.12 4.92,88.57 Z" id="Path" fill="#FFCDD1"></path>
            <path d="M74.05,89.21 C76.26,89.49 75.21,91.96 73.68,90.13 L74.05,89.21 Z" id="Path" fill="#655BAB"></path>
            <path d="M251.16,90.26 C252.69,89.8 252.7,92.91 251.17,92.49 C250.51,91.76 250.5,91.01 251.16,90.26 Z" id="Path" fill="#FFCBD0"></path>
            <path d="M252.82,94.29 C253.98,95.24 252.76,97.89 251.73,95.91 C251.62,94.69 251.98,94.14 252.82,94.29 Z" id="Path" fill="#FFC4C9"></path>
            <path d="M2.74,97.32 C3.78,98.66 3.34,100.49 2.33,101.72 C1.9,100.84 1.07,97.2 2.74,97.32 Z" id="Path" fill="#FFC6CB"></path>
            <path d="M253.82,99.32 C254.96,100.28 253.76,102.98 252.74,100.95 C252.64,99.7 253,99.15 253.82,99.32 Z" id="Path" fill="#FFBEC4"></path>
            <path d="M1.66,102.51 C2.1,105.54 2.09,108.27 1.63,111.29 C0.7,107.98 0.68,105.82 1.66,102.51 Z" id="Path" fill="#FFC3C9"></path>
            <path d="M255,103.52 L255,112.88 C253.59,109.06 253.7,107.33 255,103.52 Z" id="Path" fill="#FFC3C8"></path>
            <path d="M91.69,106.54 C92.74,107.09 93.77,107.76 94.79,108.38 C94.06,109.75 93.73,110.98 93.56,112.53 C92.93,112.13 92.3,111.74 91.67,111.34 C90.99,111.79 90.31,112.24 89.62,112.69 C89.64,110.93 89.37,109.93 88.46,108.48 C89.53,107.83 90.6,107.17 91.69,106.54 Z" id="Path" fill="#FFFFFF"></path>
            <path d="M171.57,106.7 C172.74,107.23 173.82,107.93 174.94,108.52 C174.39,109.07 173.83,109.61 173.28,110.16 C173.48,110.93 173.69,111.7 173.9,112.46 C171.69,111.63 171.28,111.77 169.08,112.46 C169.35,111.76 169.62,111.06 169.89,110.35 C169.29,109.76 168.68,109.17 168.08,108.58 C169.25,108 170.37,107.19 171.57,106.7 Z" id="Path" fill="#FFFFFF"></path>
            <path d="M16.03,106.87 C16.92,108.68 17.8,110.49 18.69,112.3 C20.57,112.54 22.45,112.79 24.33,113.04 C23,114.49 21.55,115.9 20.38,117.49 C20.42,119.33 21.04,121.2 21.41,122.98 C19.6,122.1 17.79,121.2 15.98,120.31 C14.19,121.25 12.39,122.19 10.58,123.1 C11.03,121.18 11.49,119.27 11.94,117.36 C10.51,115.97 9.09,114.56 7.7,113.12 C10.82,112.32 13.45,113.41 14.71,109.73 C15.15,108.78 15.59,107.83 16.03,106.87 Z" id="Path" fill="#FFFFFF"></path>
            <path d="M3.89,108.32 C5.52,111.5 4.95,114.57 5.02,118 C4.92,122.37 5.54,126.33 4.04,130.56 C3.32,123.21 3.41,115.69 3.89,108.32 Z" id="Path" fill="#0001FE"></path>
            <path d="M131.62,109.09 C132.53,110.87 133.4,112.67 134.29,114.45 C136.2,114.63 138.11,114.8 140.02,114.98 C138.67,116.42 137.3,117.83 135.91,119.23 C136.19,121.18 136.46,123.13 136.73,125.08 C134.87,124.2 133.01,123.31 131.15,122.44 C129.49,123.42 127.82,124.37 126.15,125.32 C126.49,123.3 126.85,121.28 127.18,119.25 C125.76,117.87 124.37,116.46 123,115.02 C124.87,114.82 126.74,114.63 128.62,114.43 C129.6,112.65 130.57,110.84 131.62,109.09 Z" id="Path" fill="#FFFFFF"></path>
            <path d="M240.82,112 C241.75,113.62 242.52,115.36 243.27,117.07 C245.18,117.44 247.09,117.78 249,118.13 C247.64,119.54 246.27,120.93 244.87,122.31 C245.31,124.19 245.77,126.07 246.21,127.95 C244.39,127.06 242.58,126.14 240.79,125.19 C239,126.15 237.19,127.09 235.38,128.01 C235.79,126.1 236.22,124.19 236.68,122.29 C235.26,120.92 233.86,119.54 232.47,118.14 C234.33,117.78 236.27,117.56 238.08,116.98 C239.15,115.44 239.91,113.65 240.82,112 Z" id="Path" fill="#FFFFFF"></path>
            <path d="M0,115.05 C1.97,117.64 2.19,119.4 0,121.95 L0,115.05 Z" id="Path" fill="#FFC9CC"></path>
            <path d="M156.42,117.08 C157.06,118.26 157.67,119.45 158.29,120.64 C159.55,120.75 160.8,120.86 162.06,120.98 C161.16,122.03 160.26,123.07 159.35,124.11 C159.52,125.42 159.68,126.73 159.84,128.05 C158.61,127.45 157.38,126.85 156.16,126.24 C155.02,126.9 153.88,127.56 152.74,128.22 C152.88,126.96 153.12,125.69 153.13,124.42 C152.56,123.22 151.52,122.2 150.73,121.14 C151.94,120.93 153.15,120.7 154.35,120.45 C155.06,119.34 155.72,118.2 156.42,117.08 Z" id="Path" fill="#FFFFFF"></path>
            <path d="M106.92,116.88 C107.51,118.03 108.14,119.16 108.82,120.25 C110.07,120.76 111.42,121.02 112.72,121.37 C111.77,122.31 110.83,123.25 109.88,124.19 C110.1,125.48 110.31,126.78 110.53,128.08 C109.31,127.49 108.1,126.9 106.89,126.31 C105.63,126.94 104.37,127.57 103.11,128.19 C103.37,126.92 103.62,125.64 103.88,124.36 C102.95,123.27 102.02,122.16 101.1,121.05 C102.3,120.91 103.51,120.76 104.71,120.59 C105.5,119.37 106.2,118.13 106.92,116.88 Z" id="Path" fill="#FFFFFF"></path>
            <path d="M185.36,118.49 C185.77,119.34 185.92,120.18 185.83,121 L184.32,121.56 C182.65,120.15 183.91,119.19 185.36,118.49 Z" id="Path" fill="#0001F9"></path>
            <path d="M255,124.53 L255,134.51 C253.84,130.76 253.41,128.26 255,124.53 Z" id="Path" fill="#FFC7CC"></path>
            <path d="M0.96,127.1 L2.03,127.12 C2.1,129.86 2.01,132.55 1.42,135.24 C1.05,132.53 0.95,129.82 0.96,127.1 Z" id="Path" fill="#FFC3C8"></path>
            <path d="M93.18,132.04 L95,131.87 C95,132.84 95,133.81 95,134.78 C97.57,134.94 98.07,134.94 99.63,137.07 L101.46,137.19 C100.53,137.75 99.6,138.3 98.67,138.84 C98.13,137.87 97.56,136.93 96.95,136.01 C95.7,135.83 94.44,135.7 93.18,135.62 C93.18,134.43 93.18,133.24 93.18,132.04 Z" id="Path" fill="#7C779D"></path>
            <path d="M168.28,131.91 L170.1,132.06 C170.02,133.35 169.95,134.63 169.87,135.91 C168.45,135.75 167.03,135.56 165.6,135.42 L167.81,134.96 C167.98,133.95 168.13,132.93 168.28,131.91 Z" id="Path" fill="#8684A6"></path>
            <path d="M105.06,137 L103.62,135.81 C105,134.92 105.48,135.32 105.06,137 Z" id="Path" fill="#4C4568"></path>
            <path d="M165.28,135.49 L165.36,135.94 C165.55,136.92 165.4,137.76 164.93,138.45 L163.46,137.8 C163.75,136.43 164.36,135.66 165.28,135.49 Z" id="Path" fill="#747CD6"></path>
            <path d="M253.76,135.46 C254.51,136.03 254.57,138.92 253.24,138.61 C252.49,138.04 252.45,135.17 253.76,135.46 Z" id="Path" fill="#FFC6CA"></path>
            <path d="M2.43,135.57 C3.27,138.86 4.03,142.06 3.64,145.47 C2.5,142.2 1.61,139.05 2.43,135.57 Z" id="Path" fill="#FFCBCF"></path>
            <polygon id="Path" fill="#786F8B" points="162.29 137.3 162.86 137.55 162.55 137.44"></polygon>
            <path d="M252.17,141.32 C253.68,140.87 253.68,144.02 252.17,143.57 C251.52,142.82 251.52,142.07 252.17,141.32 Z" id="Path" fill="#FFC3C8"></path>
            <path d="M23.15,143.77 C26.13,145.17 26.73,147.84 27.3,150.8 C26.28,151.17 25.26,151.54 24.24,151.92 C25.17,149.27 25.69,148.32 24.03,145.76 C21.42,146.27 19.03,146.14 17.17,148.33 C16.47,150.41 18.33,152.9 18.95,154.89 C16.57,153.44 15.5,151.77 15.02,149.02 C15.5,145.4 19.67,142.57 23.15,143.77 Z" id="Path" fill="#BCC3FA"></path>
            <path d="M233.1,143.03 C232.63,144.64 230.9,145.78 229.91,147.11 C231.63,150.59 236.23,152.54 239.03,149.01 C239.04,147.74 239.06,146.48 239.08,145.21 C239.71,145.54 240.35,145.87 240.98,146.21 C240.41,147.99 240.01,150.29 238.73,151.7 C235.74,155.02 228.76,152.68 228.94,148 C229.19,145.6 229.86,142.15 233.1,143.03 Z" id="Path" fill="#BCC3F9"></path>
            <path d="M251.17,145.44 C252.7,144.97 252.7,148.08 251.17,147.66 C250.51,146.93 250.5,146.19 251.17,145.44 Z" id="Path" fill="#FFC5CA"></path>
            <path d="M4.16,146.33 C5.71,145.89 5.71,148.97 4.17,148.55 C3.5,147.81 3.49,147.08 4.16,146.33 Z" id="Path" fill="#FFC6CB"></path>
            <path d="M79.8,149.18 C79.85,151.53 79.9,153.88 79.97,156.24 C78.31,156.25 76.66,156.25 75,156.26 C74.98,154.87 74.95,153.49 74.92,152.1 C72.55,152.15 69.72,151.7 67.49,152.55 C65.35,153.54 64.83,155.79 66.48,157.57 C69.9,160.02 75.54,160.38 78.53,163.45 C82.12,167.27 80.98,174.02 75.89,175.91 C71.07,177.58 65.02,176.61 60.12,175.59 C60.08,173.21 60.08,170.84 60.08,168.46 C61.63,168.49 63.18,168.51 64.73,168.54 C64.68,169.81 64.63,171.08 64.59,172.36 C67.34,172.49 70.52,173.04 73.17,172.24 C75.62,171.44 76.21,168.31 74.28,166.69 C71.01,164.19 65.11,163.98 62.17,160.8 C59.06,157.22 60.07,151.51 64.22,149.23 C69.39,146.77 74.5,147.95 79.8,149.18 Z" id="Path" fill="#FFFFFF"></path>
            <path d="M95.49,148.57 C97.9,147.91 100.55,147.96 103.03,148.07 C108.56,148.34 113.46,152.89 114.77,158.17 C115.74,163 115.25,168.14 111.95,172.01 C106.44,178.43 95.39,178.63 89.7,172.31 C83.31,164.92 85.71,151.71 95.49,148.57 Z" id="Path" fill="#FFFFFF"></path>
            <path d="M154.49,148.55 C158.8,147.47 163.9,147.83 168.15,149.08 C169.03,151.15 168.45,154.01 168.61,156.26 C167,156.26 165.38,156.26 163.77,156.25 C163.77,154.88 163.77,153.5 163.77,152.13 C161.29,152.16 158.13,151.6 155.86,152.76 C153.97,153.74 153.68,156.25 155.38,157.62 C158.69,159.94 163.76,160.37 166.93,163.08 C170.64,166.31 170.05,173.31 165.48,175.49 C160.35,178.05 154.02,176.63 148.71,175.42 C148.73,173.14 148.74,170.86 148.73,168.58 C150.38,168.54 152.03,168.51 153.67,168.49 C153.61,169.8 153.55,171.1 153.49,172.41 C155.93,172.56 158.45,172.77 160.89,172.53 C162.69,172.08 164.42,171.12 164.32,168.99 C164.13,166.58 161.13,165.47 159.18,164.82 C155.97,163.62 151.34,162.6 149.82,159.14 C147.92,154.88 150.02,149.98 154.49,148.55 Z" id="Path" fill="#FFFFFF"></path>
            <path d="M176.83,148.24 C184.48,148.3 192.14,148.22 199.79,148.29 C199.76,151.14 199.76,153.98 199.78,156.82 C198.05,156.82 196.32,156.81 194.6,156.79 C194.64,155.4 194.68,154 194.72,152.6 C191.81,152.6 188.9,152.6 185.99,152.62 C186.05,155.38 186.06,158.13 186.05,160.89 C189.31,160.9 192.56,160.89 195.81,160.86 C195.8,162.27 195.79,163.68 195.78,165.09 C192.53,165.06 189.29,165.06 186.04,165.07 C186.05,167.44 186.04,169.81 186.02,172.18 C187.34,172.19 188.66,172.21 189.98,172.23 C190.03,173.64 190.07,175.05 190.1,176.46 C185.65,176.53 181.2,176.51 176.75,176.49 C176.74,175.08 176.73,173.66 176.71,172.25 C178,172.23 179.29,172.2 180.58,172.18 C180.44,165.67 180.43,159.16 180.52,152.64 C179.24,152.52 177.95,152.4 176.67,152.27 C176.72,150.93 176.78,149.58 176.83,148.24 Z" id="Path" fill="#FFFFFF"></path>
            <path d="M250.98,148.52 C250.47,152.78 249.66,156.9 247.04,160.4 C247.87,156.25 248.88,152.24 250.98,148.52 Z" id="Path" fill="#FFD5D8"></path>
            <polygon id="Path" fill="#FFC3C8" points="5.08 150.2 5.89 150.18 6.31 150.91 5.92 151.64 5.11 151.66 4.69 150.94"></polygon>
            <path d="M97.51,152.71 C100.19,151.91 103.84,151.98 106.05,153.91 C111.64,157.99 111.18,168.82 104.58,171.67 C100.35,173.87 94.5,171.92 92.63,167.48 C90.27,162.4 91.64,154.68 97.51,152.71 Z" id="Path" fill="#000000"></path>
            <polygon id="Path" fill="#FFC3C9" points="6.08 153.27 6.89 153.24 7.3 153.96 6.92 154.71 6.11 154.73 5.69 154.01"></polygon>
            <path d="M28.69,154.15 L29.53,155.6 C28.32,158.05 24.53,159.01 22.22,160.2 C21.63,160.84 21.04,161.47 20.45,162.1 C19.73,160.58 18.99,159.07 18.26,157.55 C19.11,157.85 19.95,158.16 20.8,158.46 C23.48,157.11 26.02,155.5 28.69,154.15 Z" id="Path" fill="#C6CBFB"></path>
            <path d="M6.92,155.72 C9.28,158.09 10.27,162.26 11.08,165.45 C8.62,162.67 7.59,159.29 6.92,155.72 Z" id="Path" fill="#FFD5D9"></path>
            <path d="M225.63,156.12 C227.85,158.35 230.6,159.49 233.4,160.78 C234.14,160.52 234.88,160.25 235.62,159.98 C234.99,161.36 234.36,162.73 233.74,164.11 C230.77,161.85 227.72,160.04 223.88,159.9 C224.47,158.65 225.05,157.38 225.63,156.12 Z" id="Path" fill="#D9DDFB"></path>
            <path d="M30.8,157.57 L30.84,160.8 C29.53,163.02 27.76,162.23 25.67,162.06 C24.83,163.79 24.02,165.53 23.19,167.27 C20.43,164.3 23.38,162.22 24.63,159.41 C25.59,159.79 26.55,160.12 27.53,160.4 C28.69,159.54 29.72,158.52 30.8,157.57 Z" id="Path" fill="#D8DCFA"></path>
            <path d="M120.04,158.91 L121.61,159.04 C121.98,159.74 121.92,160.61 121.44,161.66 L119.52,161.61 C118.49,161.07 118.67,160.17 120.04,158.91 Z" id="Path" fill="#B0ADBB"></path>
            <path d="M141.29,158.6 L143.34,159.09 C143.68,159.64 144.01,160.19 144.33,160.75 C141.01,162.68 141.57,165.63 140.81,168.9 C140.15,168.56 139.48,168.22 138.81,167.88 C138.81,166.4 139.61,165.58 141.2,165.43 C141.38,163.15 141.37,160.88 141.29,158.6 Z" id="Path" fill="#7A7EBD"></path>
            <path d="" id="Path" fill="#FFB5BC"></path>
            <path d="M246.1,162.71 C245.14,166.99 243.26,171.42 240.07,174.51 C241.58,170.33 243.35,166.25 246.1,162.71 Z" id="Path" fill="#FFDBDF"></path>
            <path d="M221.64,164.38 C222.42,164.84 223.15,165.37 223.9,165.85 C222.89,166.31 221.88,166.78 220.88,167.27 C221.59,169.58 225.32,170.65 227.19,172.03 C228.05,171.85 228.9,171.66 229.76,171.47 C228.9,173 228.05,174.55 227.08,176.01 C224.62,173.15 222.31,171.68 218.84,170.24 C218.87,171.66 218.91,173.08 218.95,174.49 C218.24,174 217.56,173.47 216.92,172.91 C217.34,169.97 219.96,166.84 221.64,164.38 Z" id="Path" fill="#B1B8FA"></path>
            <path d="M123.62,165.5 C124.09,166.18 124.24,167.04 124.08,168.06 L122.28,168.24 L121.63,166.45 C122.24,165.54 122.91,165.22 123.62,165.5 Z" id="Path" fill="#BCBEEE"></path>
            <path d="" id="Path" fill="#FFB8BF"></path>
            <path d="M32.99,165.94 C35.41,166.33 36.63,169.12 37.89,170.92 C36.87,173.71 35.85,175.85 32.84,176.83 C29.55,177.97 27.34,175.63 26.08,172.89 C25.06,168.99 29.4,165.52 32.99,165.94 Z" id="Path" fill="#D8DCFB"></path>
            <path d="" id="Path" fill="#FFB8BF"></path>
            <path d="M34.89,167.76 C35.32,168.82 35.71,169.89 36.05,170.98 C34.92,173.07 32.47,175.03 30.02,175.03 C28.69,175.45 26.97,173.15 27.59,172.01 C28.93,168.87 31.75,168.06 34.89,167.76 Z" id="Path" fill="#0226FF"></path>
            <path d="" id="Path" fill="#FFB7C0"></path>
            <path d="M13.91,171.7 C16.92,174.35 18.45,177.79 20.01,181.4 C16.98,178.82 15.21,175.39 13.91,171.7 Z" id="Path" fill="#FFDDE0"></path>
            <path d="M127.5,171.93 C127.36,175.39 127.36,178.8 128.27,182.17 C129.42,181.09 130.57,180.02 131.74,178.97 C132.91,179.99 134.08,181 135.27,182.01 C135.21,183.06 135.16,184.1 135.1,185.15 C133.97,184.2 132.86,183.24 131.75,182.29 C130.59,183.21 129.45,184.15 128.29,185.08 C127.28,181.19 128.27,177.04 125.62,174.14 L125.36,173.09 C126.06,172.69 126.78,172.3 127.5,171.93 Z" id="Path" fill="#FFFFFF"></path>
            <path d="M135.37,171.71 C136.32,172.11 137.25,172.54 138.18,173.01 C138.07,174.05 137.95,175.09 137.83,176.13 C137.03,175.72 136.23,175.31 135.44,174.89 C135.41,173.83 135.39,172.77 135.37,171.71 Z" id="Path" fill="#A5A0BB"></path>
            <path d="M214.57,175.52 C215.71,175.84 216.34,176.73 217.22,177.49 C216.08,177.44 214.94,177.38 213.81,177.32 C213.41,178.84 213.06,180.37 212.71,181.9 C214.56,183.35 216.4,184.52 218.64,185.31 C220.09,183.47 221.16,181.65 223.29,180.51 C222.31,183.36 220.97,185.86 217.99,186.99 C214.59,187.46 213,185.34 210.91,183.14 C210.95,181.82 210.98,180.49 211,179.16 C212.14,177.91 213.27,176.62 214.57,175.52 Z" id="Path" fill="#B9C0F9"></path>
            <path d="" id="Path" fill="#FFB4BD"></path>
            <path d="M41.82,176.83 C43.03,178.17 44.16,179.57 45.3,180.97 C44.39,181.58 43.48,182.19 42.57,182.8 C42.36,180.98 43.98,178.72 41.04,178.96 C39.08,180.12 40.89,182.53 41.04,184.24 C39.88,185.48 39.03,187.31 37.03,187 C35.01,186.85 33.55,183.89 32.58,182.36 C33.39,181.92 34.19,181.48 34.99,181.05 C35.06,182.22 35.17,183.39 35.32,184.55 C36.2,184.81 37.08,185.05 37.98,185.26 C37.99,183.19 37.88,181.08 38.08,179.02 C38.64,177.12 40.18,177.16 41.82,176.83 Z" id="Path" fill="#C2C8FA"></path>
            <path d="M236.15,180.04 C237.97,180.19 236.6,182.75 235.26,181.91 C234.85,181.07 235.15,180.45 236.15,180.04 Z" id="Path" fill="#FFD3D8"></path>
            <path d="" id="Path" fill="#FFB8C0"></path>
            <path d="M82.51,183.3 C84.22,184.51 88.11,185.57 88.18,187.98 C86.25,188.86 85.86,186.73 84.65,185.69 C83.96,186.72 83.27,187.76 82.59,188.8 L85.57,189.19 L84.66,191.14 C83.67,190.55 82.69,189.95 81.71,189.34 C81.41,190.76 81.2,192.17 81.12,193.63 C79.94,192.97 78.76,192.33 77.57,191.68 C79.8,189.07 81.43,186.59 82.51,183.3 Z" id="Path" fill="#B0AFAA"></path>
            <path d="M176.63,183.4 C177.29,184.04 177.92,184.72 178.53,185.42 C177.23,185.44 176.08,185.17 174.92,185.89 C176.24,188.51 177.89,190.83 179.93,192.93 C178.83,193.61 177.74,194.3 176.65,195 C176.6,191.66 174.51,189.71 172.88,187.01 C172.22,188.05 171.56,189.1 170.9,190.15 C169.87,189.95 168.84,189.74 167.81,189.52 C167.18,190.32 166.58,191.14 166.01,191.99 C166.47,193.84 167.42,195.89 169.06,196.98 C170.93,196.97 172.77,195.54 174.5,194.9 C173.4,197.41 170.68,199.04 167.95,198.33 C165.81,197.87 164.75,195.71 164.06,193.84 C163.57,191.8 165.12,189.75 166.98,189.02 C170.49,187.46 173.54,185.7 176.63,183.4 Z" id="Path" fill="#B5B4B0"></path>
            <path d="M234.14,183.03 C235.97,183.2 234.59,185.72 233.24,184.88 C232.84,184.04 233.13,183.43 234.14,183.03 Z" id="Path" fill="#FFD3D8"></path>
            <path d="M23.16,186.23 C24.51,185.37 25.92,187.86 24.07,188.05 C23.06,187.67 22.76,187.06 23.16,186.23 Z" id="Path" fill="#FFD3D8"></path>
            <path d="M49.52,186.43 C51,187.23 52.16,188.43 53.07,189.82 C52.56,190.52 52.04,191.21 51.5,191.88 C50.99,189.58 51.19,188.42 48.74,187.38 C48.44,189.91 48.92,192.36 48.93,194.89 C48.08,196.13 46.7,196.42 45.4,197.04 C44.17,195.9 42.74,194.79 41.77,193.4 C41.22,192.24 43.13,191.55 43.74,190.79 C43.56,191.78 43.37,192.77 43.18,193.75 C43.77,194.29 44.37,194.82 44.96,195.35 C45.65,194.92 46.33,194.49 47.02,194.06 C46.64,192.17 46.17,190.16 46.21,188.23 C47.04,187.19 48.07,186.15 49.52,186.43 Z" id="Path" fill="#FFFFFF"></path>
            <path d="M231.15,187.02 C233,187.22 231.58,189.71 230.24,188.84 C229.84,188.01 230.14,187.4 231.15,187.02 Z" id="Path" fill="#FFD3D8"></path>
            <path d="M203.37,187.28 C204.5,187.62 205.62,187.97 206.74,188.34 C209.68,189.39 212.59,190.4 215.7,190.83 C214.81,191.88 213.92,192.93 213.03,193.97 C211.9,193.01 210.96,192.31 209.46,192.04 C208.23,191.49 207.02,190.91 205.82,190.32 C206.92,192.68 207.96,195.14 209.41,197.31 C208.76,198.02 208.1,198.72 207.45,199.43 C206.63,196.45 205.48,193.59 204.4,190.7 C204.04,189.57 203.7,188.43 203.37,187.28 Z" id="Path" fill="#B8BFFA"></path>
            <path d="M92.23,188.58 C92.24,191.83 92.1,195.08 91.93,198.33 C92.77,198.87 93.61,199.41 94.46,199.94 C96.04,197.31 97.19,194.67 97.44,191.57 C98.52,191.97 99.6,192.35 100.68,192.73 C98.46,195.21 96.91,198.3 97.28,201.71 C94.72,200.38 92.14,199.26 89.42,198.3 C89.61,197.09 89.79,195.88 89.96,194.67 C88.85,194.43 87.75,194.16 86.66,193.85 C86.07,194.61 85.49,195.36 84.91,196.12 C84.37,195.75 83.83,195.38 83.29,195.01 C86.42,193.06 89.18,190.63 92.23,188.58 Z" id="Path" fill="#FFFFFF"></path>
            <path d="M35.25,193.77 C37.44,196.21 40.07,198.3 42.11,200.87 C42.28,201.5 42.37,202.16 42.38,202.85 C38.07,199.04 33.94,194.95 30.26,190.52 C32.69,190.52 33.64,192.27 35.25,193.77 Z" id="Path" fill="#0006FE"></path>
            <path d="M27.19,191.29 C28.24,190.66 30.33,192.76 29.69,193.82 C28.52,194.45 26.55,192.47 27.19,191.29 Z" id="Path" fill="#FFD6DC"></path>
            <polygon id="Path" fill="#000000" points="88.83 192.32 89.69 192.28 90.12 192.99 89.7 193.74 88.83 193.78 88.4 193.07"></polygon>
            <path d="M227.34,192.24 C229.22,192.71 225.59,196.58 224.34,195.77 C224,194.39 226.11,192.52 227.34,192.24 Z" id="Path" fill="#FFD8DC"></path>
            <path d="M56.83,193.27 C59.01,194.73 61.15,196.3 63.02,198.14 C62.71,198.86 62.32,199.54 61.85,200.18 C61.23,199.07 60.57,197.98 59.88,196.91 C57.91,196.95 57.69,198.65 56.64,199.96 C57.76,200.15 58.89,200.34 60.02,200.51 C59.6,201.3 59.17,202.09 58.73,202.88 C57.85,201.89 56.97,200.9 56.08,199.92 C55.11,201.48 54.46,202.88 54.07,204.69 C52.97,203.82 51.87,202.96 50.76,202.1 C53.04,200.19 55.06,198.05 56.67,195.55 C56.72,194.79 56.78,194.03 56.83,193.27 Z" id="Path" fill="#BAC1FA"></path>
            <path d="M102.03,193.29 L104.38,194.08 C104.68,197.15 103.06,200.34 102.89,203.46 C101.79,203.23 100.68,203 99.57,202.77 C101.07,200.43 101.92,198.34 102.49,195.61 C102.34,194.83 102.19,194.06 102.03,193.29 Z" id="Path" fill="#C9C8C5"></path>
            <path d="M105.42,193.78 C106.8,194.82 108.16,195.88 109.49,196.98 C108.4,198.19 107.28,199.39 106.14,200.56 C106.96,202.04 107.63,203.48 108.93,204.64 C110.51,202.09 111.33,198.63 110.29,195.72 C112.46,196.18 114.69,196.5 116.82,197.13 L117.23,199.46 C116.02,198.72 114.82,197.97 113.63,197.2 C113.3,198.36 112.97,199.52 112.64,200.67 C113.87,200.63 115.11,200.58 116.35,200.54 C115.95,201.26 115.52,201.96 115.06,202.64 C114.19,202.23 113.33,201.81 112.48,201.36 C112.02,203.08 112.34,204.51 112.76,206.18 C110.23,205.57 107.71,204.93 105.23,204.12 C104.81,202.56 104.37,201.01 103.91,199.47 C104.8,198.78 105.68,198.09 106.54,197.36 C106.15,196.17 105.78,194.98 105.42,193.78 Z" id="Path" fill="#B5B4B1"></path>
            <path d="M195.35,194.77 L198.72,195.29 C200.14,196.28 199.97,198.23 200.39,199.79 C202.25,200 204.11,200.2 205.98,200.39 C205.04,201.23 204.09,202.06 203.15,202.89 C201.43,202.23 199.71,201.58 198,200.9 C198.17,198.18 196.77,196.83 195.35,194.77 Z" id="Path" fill="#D2D7FB"></path>
            <path d="M149.26,198.77 C151.13,201.83 149.66,205.37 146.16,206.07 C142.29,206.67 138.37,207.06 134.49,207.62 C135.27,204.62 135,201.98 134.3,199 C132.51,199.51 131.32,199.7 129.49,199.09 L127.88,201.44 C129.13,201.62 130.39,201.75 131.65,201.86 C131.75,202.36 131.84,202.86 131.93,203.37 C130.66,203.35 129.46,203.19 128.23,203.62 C128.23,208.2 130.49,206.35 133.16,205.59 C132.96,206.18 132.74,206.76 132.49,207.33 C130.42,207.58 128.29,207.49 126.2,207.55 C126.97,204.17 127,201.45 126.14,198.08 C128.44,198.24 130.73,198.36 133.01,198.67 C134.61,198.33 136.22,198.01 137.83,197.69 C137.35,198.09 136.87,198.48 136.38,198.87 C136.62,201.24 136.81,203.65 137.25,206 C139.7,206.86 139.17,206.39 140.5,204.62 C141.15,205.17 141.8,205.71 142.45,206.26 C142.12,203.2 141.53,200.46 140.35,197.63 C143.34,197.19 147.34,195.29 149.26,198.77 Z" id="Path" fill="#FFFFFF"></path>
            <path d="M119.58,197.6 C120.72,197.63 121.86,197.75 122.99,197.83 C121.93,201.01 121.37,204.23 122.62,207.46 C121.34,207.29 120.07,207.13 118.79,206.98 C120.29,203.8 120.02,200.96 119.58,197.6 Z" id="Path" fill="#CAC9C5"></path>
            <path d="M193.71,196.71 C196.08,199.45 198.11,202.6 201.01,204.65 C200.08,205.43 199.15,206.23 198.17,206.96 C196.49,203.61 194.7,200.84 191.39,198.89 C192.16,198.17 192.94,197.44 193.71,196.71 Z" id="Path" fill="#CBD1FA"></path>
            <path d="M143.06,197.45 C144.35,197.7 145.64,197.96 146.92,198.25 C147.76,200.02 147.93,201.87 148.15,203.79 C146.99,204.47 145.82,205.16 144.65,205.83 C143.88,203.06 143.36,200.32 143.06,197.45 Z" id="Path" fill="#000000"></path>
            <path d="M188.69,201.47 C189.51,202.3 190.31,203.11 190.95,204.11 C191.39,206.11 189.55,207.31 188.6,208.84 C188.57,207.62 188.52,206.41 188.44,205.2 C187.61,204.02 186.46,203.05 185.46,202.02 C186.53,201.82 187.61,201.64 188.69,201.47 Z" id="Path" fill="#BEC5FB"></path>
            <path d="M68.48,201.88 C69.63,202.63 70.78,203.37 71.94,204.11 C69.18,205.86 67.94,208.52 66.31,211.21 C66.45,211.9 66.6,212.6 66.74,213.29 C65.37,212.55 64.01,211.79 62.65,211.05 C65.58,208.53 67.27,205.5 68.48,201.88 Z" id="Path" fill="#C7CCFA"></path>
            <path d="M153.01,202.03 L154.93,201.88 C156.98,203.58 155.87,204.93 154.46,206.48 C153.93,205.01 153.41,203.54 153.01,202.03 Z" id="Path" fill="#A8A6A0"></path>
            <path d="M216.34,203.24 C218.22,203.71 214.59,207.59 213.34,206.77 C212.99,205.39 215.1,203.53 216.34,203.24 Z" id="Path" fill="#FFD9DB"></path>
            <path d="M40.21,204.33 C41.28,203.75 44.27,206.7 43.68,207.77 C42.35,208.34 39.66,205.67 40.21,204.33 Z" id="Path" fill="#FFD8DB"></path>
            <path d="M184.37,203.2 C186.46,205.99 188.02,209.72 190.9,211.71 C189.8,212.49 188.7,213.28 187.62,214.08 C186.84,210.26 184.74,207.53 181.98,204.92 C182.76,204.33 183.56,203.76 184.37,203.2 Z" id="Path" fill="#D5D9FB"></path>
            <path d="M76.95,207.15 C79.75,208.12 82.51,209.57 85.02,211.15 L84.83,212.87 C83.34,213.34 82.85,211.43 81.8,210.62 C79.74,213.05 78.22,216.25 78.17,219.49 C76.92,218.92 75.66,218.37 74.4,217.82 C76.74,215.14 78.13,212.02 79.31,208.7 C77.82,208.97 76.32,209.21 74.82,209.47 C75.37,208.88 76.01,206.72 76.95,207.15 Z" id="Path" fill="#CBD0FA"></path>
            <path d="M174.43,208.41 C179.19,206.11 183.73,211.58 182.07,215.96 C180.43,219.52 175.22,220.54 172.81,217.18 C170.37,214.05 170.79,210.33 174.43,208.41 Z" id="Path" fill="#C6CBFA"></path>
            <path d="M210.36,208.17 C212.28,208.51 209.47,211.66 208.29,210.81 C207.78,209.71 209.34,208.31 210.36,208.17 Z" id="Path" fill="#FFD7D9"></path>
            <path d="M45.62,208.97 C50.07,211.61 54.84,214.41 58.44,218.17 C53.86,216.03 48.68,213.06 45.62,208.97 Z" id="Path" fill="#FFDBDD"></path>
            <path d="M175.97,208.62 C179.46,211.57 180.01,212.49 180.2,217.12 C179.11,217.38 178.01,217.61 176.91,217.82 C174.96,216.56 173.85,214.33 173.42,212.12 C173.5,210.75 175.19,209.63 175.97,208.62 Z" id="Path" fill="#0122FF"></path>
            <path d="M205.14,212.02 C207.01,212.22 205.54,214.69 204.2,213.83 C203.81,213 204.12,212.4 205.14,212.02 Z" id="Path" fill="#FFD4D5"></path>
            <path d="M165.88,213.05 C166.71,213.92 167.41,214.86 168.14,215.81 C167.69,216.75 167.23,217.68 166.78,218.62 C168.55,219.72 170.3,220.84 172.02,222 C168.68,223.21 167.45,221.65 164.81,220.08 C164.89,218.39 165.08,216.79 164.94,215.15 C163.94,214.93 162.94,214.73 161.93,214.56 C162.63,216.26 163.33,217.96 164,219.67 C164.56,221.11 165.23,222.48 165.93,223.85 C164.83,224.28 163.72,224.71 162.62,225.15 C162.45,221.31 161.06,218.15 159.07,214.95 C161.17,214.22 163.62,212.83 165.88,213.05 Z" id="Path" fill="#C9CEFB"></path>
            <path d="M202.17,214.03 C204.07,214.24 202.54,216.67 201.21,215.83 C200.82,215.01 201.14,214.41 202.17,214.03 Z" id="Path" fill="#FFD3D5"></path>
            <path d="M153.88,216.27 C153.61,217.06 153.34,217.84 153.06,218.62 C153.75,221.46 154.54,224.2 155.87,226.81 C154.57,227.08 153.28,227.36 151.98,227.64 C152.2,226.85 152.42,226.06 152.64,225.27 C152.03,223.18 151.47,221.08 150.97,218.96 C150.42,218.53 149.86,218.1 149.31,217.67 C150.83,217.2 152.36,216.74 153.88,216.27 Z" id="Path" fill="#FFFFFF"></path>
            <path d="M199.39,216.22 C201.64,216.85 196.24,220.28 196.16,218.29 C196.65,217.09 198.13,216.29 199.39,216.22 Z" id="Path" fill="#FFD6D8"></path>
            <path d="M108.5,217.51 C109.77,218.3 111.32,218.9 110.95,220.68 C109.97,221.59 108.91,222.39 107.85,223.21 C108.52,224.26 109.19,225.32 109.87,226.37 C109.95,225.27 110.01,224.17 110.08,223.07 C111.13,223.17 112.18,223.27 113.22,223.37 C112.18,224.62 111.07,225.87 110.14,227.2 C110.67,228.09 111.21,228.97 111.78,229.84 C110.38,229.34 108.98,228.84 107.59,228.34 C106.83,225.63 105.45,223.04 104.93,220.28 C104.48,218.59 107.05,217.04 108.5,217.51 Z" id="Path" fill="#D2D6FB"></path>
            <path d="M58.59,218.09 C61.94,219.11 64.9,220.6 67.46,223.04 C64.09,221.94 60.92,220.95 58.59,218.09 Z" id="Path" fill="#FFDADA"></path>
            <path d="M141.32,218.89 C142.46,218.66 143.6,218.45 144.74,218.26 C144.33,221.98 144.09,225.5 146.41,228.69 C144.97,228.96 143.54,229.24 142.1,229.53 C142.79,227.75 142.86,226.16 142.8,224.27 C141.26,224.45 139.72,224.63 138.18,224.82 C138.68,226.44 139.21,228.04 139.76,229.65 C138.61,229.74 137.47,229.84 136.32,229.95 C136.42,226.24 136.67,222.86 134.52,219.64 C135.91,219.46 137.3,219.26 138.68,219.06 C138.34,220.52 138.03,221.98 137.72,223.45 C139.32,223.39 140.92,223.33 142.51,223.26 C142.11,221.81 141.67,220.36 141.32,218.89 Z" id="Path" fill="#FFFFFF"></path>
            <path d="M107.28,219.19 C109.17,217.86 109.92,220.8 107.95,221.23 C106.88,220.97 106.66,220.29 107.28,219.19 Z" id="Path" fill="#1127FA"></path>
            <path d="M132.22,222.59 C131.14,221.87 130.06,221.14 128.99,220.4 C128.03,220.66 127.07,220.93 126.12,221.2 C125.2,224.55 125.2,226.03 126.88,229.11 C128.58,228.99 130.28,228.82 131.98,228.81 C133.04,230.55 129.12,230.72 128.1,230.77 C123.02,230.16 121.03,224.12 124.59,220.59 C126.91,218.6 132.79,218.14 132.22,222.59 Z" id="Path" fill="#C0C6FA"></path>
            <path d="M195.48,219.06 C194.4,220.17 193.29,221.19 191.89,221.89 C180.7,227.63 169,232.21 156.64,234.67 C155.27,234.95 153.93,234.78 152.55,234.59 C161.42,232.26 170.28,230.37 178.74,226.68 C184.49,224.5 189.71,221.15 195.48,219.06 Z" id="Path" fill="#FFD8D9"></path>
            <path d="" id="Path" fill="#FFBCBD"></path>
            <path d="M102.62,222.3 C103.34,222.7 104.05,223.11 104.77,223.52 C103.38,225.67 106.38,227.29 107.29,229.05 C104.99,228.38 103.42,227.7 101.85,225.93 C102.08,224.71 102.34,223.5 102.62,222.3 Z" id="Path" fill="#B8C0F9"></path>
            <path d="M69.63,223.9 C72.32,224.32 74.29,225.43 76.39,227.1 C73.67,226.63 71.51,226.04 69.63,223.9 Z" id="Path" fill="#FFD5D6"></path>
            <path d="" id="Path" fill="#FFBBBC"></path>
            <polygon id="Path" fill="#FFC6C7" points="79.29 228.11 80.01 227.69 80.75 228.08 80.77 228.89 80.04 229.31 79.3 228.92"></polygon>
            <path d="M81.53,229.01 C85.83,229.64 89.64,231.26 93.86,232.26 C97.06,233.02 100.26,233.7 103.35,234.87 C98.55,235.05 94.36,233.5 89.8,232.35 C86.8,231.46 83.97,231.1 81.53,229.01 Z" id="Path" fill="#FFD4D6"></path>
            <path d="M104.2,235.33 C105.5,234.86 107.41,234.29 108.61,235.26 C108.59,236.98 105,236.31 104.2,235.33 Z" id="Path" fill="#FFCACC"></path>
            <path d="M151.82,235.69 C150.21,236.36 148.75,236.44 147.14,235.73 C148.53,234.17 150.33,234.38 151.82,235.69 Z" id="Path" fill="#FFCACD"></path>
            <path d="M119.64,237 L109.4,237 C113.08,235.88 115.99,235.33 119.64,237 Z" id="Path" fill="#FFCFD1"></path>
            <path d="M145.67,237 L136.08,237 C140.01,235.59 141.76,235.67 145.67,237 Z" id="Path" fill="#FFCCCE"></path>
        </g>
    </g>
</svg>